<svg width="91" height="108" viewBox="0 0 91 108" fill="none" xmlns="http://www.w3.org/2000/svg">
<path d="M57.902 80.5098L57.8961 80.5146C55.5302 82.4375 52.9649 84.2809 50.1978 86.0431C50.0364 86.1459 49.9078 86.1702 49.8085 86.1706C49.6982 86.1711 49.5715 86.1409 49.4445 86.0676C49.1933 85.9224 49 85.6488 49 85.2545V20C49 19.4477 49.4477 19 50 19H71C71.5523 19 72 19.4477 72 20V58.7793C72 65.7841 70.7977 68.9673 68.8598 71.3756C67.8141 72.6752 66.451 73.8761 64.5929 75.3324C63.9483 75.8376 63.2127 76.3966 62.4147 77.003C61.046 78.0432 59.4937 79.2229 57.902 80.5098Z" stroke="url(#paint0_linear)" stroke-width="6"/>
<path d="M87 58.1667V8.16715C87 7.03859 86.5901 6.06198 85.7687 5.23747C84.9475 4.4127 83.9744 4 82.8507 4H8.14989C7.02634 4 6.05375 4.4127 5.23189 5.23747C4.41092 6.06198 4 7.03859 4 8.16715V58.1667C4 61.8989 4.72391 65.5989 6.17238 69.267C7.62035 72.9346 9.41453 76.19 11.5542 79.0326C13.6945 81.8747 16.2448 84.6418 19.2062 87.3334C22.1666 90.0241 24.9018 92.2594 27.409 94.0393C29.916 95.8184 32.5316 97.4998 35.2548 99.0846C37.9786 100.669 39.9133 101.743 41.0585 102.307C42.2042 102.871 43.1228 103.305 43.8146 103.609C44.3339 103.869 44.8956 104 45.5009 104C46.1053 104 46.6678 103.869 47.1863 103.609C47.8784 103.305 48.7965 102.871 49.9428 102.307C51.0878 101.743 53.0226 100.669 55.7455 99.0846C58.4693 97.4998 61.0845 95.8185 63.5918 94.0393C66.0985 92.2594 68.8343 90.024 71.7944 87.3334C74.7563 84.6418 77.3065 81.8747 79.4463 79.0326C81.5857 76.19 83.3803 72.9346 84.8282 69.267C86.2768 65.5989 87 61.8989 87 58.1667Z" stroke="url(#paint1_linear)" stroke-width="7"/>
<defs>
<linearGradient id="paint0_linear" x1="60.5" y1="16" x2="60.5" y2="92" gradientUnits="userSpaceOnUse">
<stop stop-color="#A952ED"/>
<stop offset="1" stop-color="#D65FF2"/>
<stop offset="1" stop-color="#D65FF2"/>
</linearGradient>
<linearGradient id="paint1_linear" x1="45.5" y1="4" x2="45.5" y2="104" gradientUnits="userSpaceOnUse">
<stop stop-color="#A952ED"/>
<stop offset="1" stop-color="#D65FF2"/>
<stop offset="1" stop-color="#D65FF2"/>
</linearGradient>
</defs>
</svg>
