<svg width="125" height="113" viewBox="0 0 125 113" fill="none" xmlns="http://www.w3.org/2000/svg">
<path d="M86.0415 112.247H38.5294C33.1842 112.247 28.433 109.278 25.7605 104.824L2.00442 63.5474C-0.668139 59.0932 -0.668139 53.1542 2.00442 48.6999L25.7605 7.42377C28.433 2.96951 33.1842 0 38.5294 0H86.0415C91.3866 0 96.1378 2.96951 98.8103 7.42377L122.566 48.6999C125.239 53.1542 125.239 59.0932 122.566 63.5474L98.8103 104.824C96.4347 109.575 91.3866 112.247 86.0415 112.247ZM38.5294 5.93901C35.2629 5.93901 32.2934 7.72072 30.8086 10.3933L7.05258 51.6694C5.56782 54.342 5.56782 57.9054 7.05258 60.5779L30.8086 101.854C32.2934 104.527 35.2629 106.308 38.5294 106.308H86.0415C89.3079 106.308 92.2774 104.527 93.7622 101.854L117.518 60.5779C119.003 57.9054 119.003 54.342 117.518 51.6694L93.7622 10.3933C92.2774 7.72072 89.3079 5.93901 86.0415 5.93901H38.5294Z" fill="url(#paint0_linear)"/>
<path fill-rule="evenodd" clip-rule="evenodd" d="M25.1664 66.22L26.3542 58.4992H37.0444L37.9353 52.8572H27.2451L28.1359 46.3243H41.2018L42.0926 40.9792H21.9L17.4457 71.5651H37.3414L38.2322 66.22H25.1664ZM17.5754 35.9792L11.6648 76.5651H56.0205L56.3665 78.6415L57.3759 76.5651H78.4879L79.1474 72.0363C82.4349 75.2333 86.33 76.862 91.3864 76.862C91.4241 76.862 91.4621 76.862 91.5004 76.8621C92.5557 76.8625 93.8216 76.8631 95.3881 76.5267C95.5468 76.5105 95.7019 76.4898 95.8525 76.4657L100.223 81.9285L113.63 72.4646L108.765 66.8509C109.014 66.3341 109.216 65.8436 109.392 65.4044C110.158 63.4887 110.531 61.6182 110.813 60.2059L112.044 54.0557L112.057 53.9761C112.871 49.0891 111.675 44.2712 108.512 40.6561C105.314 37.0017 100.864 35.3853 96.1376 35.3853C91.4701 35.3853 87.3835 36.6131 83.9262 39.222L84.3984 35.9792H65.9862L61.0772 46.0778L59.3941 35.9792H17.5754ZM45.953 40.9792L41.4987 71.5651H48.6255L51.595 52.2633L55.4554 71.5651H60.2066L70.006 51.9663L67.0365 71.5651H74.1633L78.6175 40.9792H69.1151L58.7218 62.3596L55.1584 40.9792H45.953ZM80.9931 53.4511L80.1023 59.0931C79.8039 60.8835 79.8803 62.5989 80.2939 64.164C80.7034 65.714 81.4436 67.1166 82.4779 68.2986C84.8535 70.6742 87.5261 71.862 91.3864 71.862C92.5742 71.862 93.4651 71.862 94.6529 71.5651C95.2988 71.5651 96.1009 71.2528 96.8327 70.968C97.1101 70.8599 97.3775 70.7559 97.6224 70.6742L101.186 75.1285L106.234 71.5651L102.374 67.1108C102.584 66.9528 102.776 66.7854 102.953 66.6087C103.772 65.7893 104.261 64.7688 104.749 63.5474C105.343 62.0627 105.64 60.5779 105.937 59.0931L107.125 53.1541C107.719 49.5907 106.828 46.3243 104.749 43.9487C102.671 41.5731 99.701 40.3853 96.1376 40.3853C91.9803 40.3853 88.7139 41.5731 86.0413 43.9487C84.6233 45.2091 83.4561 46.7203 82.5841 48.4379C81.8125 49.9576 81.2719 51.6389 80.9931 53.4511ZM87.823 53.4511L86.9322 59.0931C86.6352 61.4688 86.9322 63.2505 87.5261 64.4383C88.4169 65.923 89.6047 66.5169 91.6834 66.5169C93.4651 66.5169 94.9498 65.923 96.1376 64.4383C97.3254 62.9535 98.2163 61.1718 98.5132 59.0931L99.701 53.4511C99.998 51.0755 99.701 49.2938 99.1071 48.106C98.5132 46.9182 97.0285 46.0273 94.9498 46.0273C93.1681 46.0273 91.6834 46.6212 90.1986 48.106C88.7139 49.5907 88.12 51.3724 87.823 53.4511ZM94.7616 52.6429C94.8366 51.9489 94.8272 51.4168 94.7859 51.0323C94.5895 51.0451 94.492 51.0801 94.4325 51.1056C94.3451 51.143 94.1175 51.2581 93.7342 51.6415C93.3209 52.0547 92.9922 52.6224 92.7728 54.1582L92.7676 54.1946L91.8847 59.7862C91.7957 60.5368 91.8038 61.1064 91.8473 61.5119C91.9902 61.5025 92.0593 61.4826 92.079 61.4757C92.0808 61.4744 92.0836 61.4724 92.0876 61.4692C92.1029 61.4571 92.1536 61.4144 92.2333 61.3148C92.9592 60.4074 93.413 59.4394 93.5635 58.386L93.5867 58.2236L94.7616 52.6429Z" fill="url(#paint1_linear)"/>
<defs>
<linearGradient id="paint0_linear" x1="28.0961" y1="78.7701" x2="117.143" y2="69.6111" gradientUnits="userSpaceOnUse">
<stop stop-color="#3BC791"/>
<stop offset="1" stop-color="#21C879"/>
</linearGradient>
<linearGradient id="paint1_linear" x1="34.6624" y1="68.0472" x2="105.405" y2="53.6836" gradientUnits="userSpaceOnUse">
<stop stop-color="#3BC791"/>
<stop offset="1" stop-color="#21C879"/>
</linearGradient>
</defs>
</svg>
