<svg width="139" height="124" viewBox="0 0 139 124" fill="none" xmlns="http://www.w3.org/2000/svg">
<path fill-rule="evenodd" clip-rule="evenodd" d="M86.932 0.269503C86.1622 0.468771 85.5981 0.876422 84.5362 2.00202C83.9411 2.63255 82.8631 3.74655 82.1409 4.47775C81.4183 5.20895 79.7141 6.95555 78.354 8.35913C76.994 9.76229 75.5304 11.2545 75.1016 11.6746C74.6729 12.0947 74.0529 12.7256 73.7232 13.0765C72.2723 14.6226 69.5526 17.3071 69.4378 17.3071C69.3111 17.3071 67.6755 15.7205 66.3757 14.3363C65.9932 13.9291 65.2632 13.1855 64.7532 12.6842C64.2428 12.1825 63.4844 11.4173 63.067 10.9836C62.2099 10.0929 59.5246 7.3603 58.0633 5.89169C57.5293 5.35478 56.7643 4.5635 56.3631 4.13307C53.1849 0.721066 52.2907 0.140662 50.7861 0.512271C49.791 0.757938 49.0684 1.05208 49.0666 1.21282C49.0662 1.2733 48.9911 1.3226 48.8998 1.3226C48.3833 1.3226 48.2925 1.72984 48.2925 4.044V6.34615L48.9448 6.24714C49.3037 6.19286 49.6338 6.10172 49.6792 6.04497C50.108 5.50392 51.0476 5.51096 51.4257 6.05781C51.5493 6.23636 51.9575 6.67923 52.3335 7.04214C52.709 7.40505 53.1246 7.84957 53.2569 8.03061C53.3892 8.21123 54.1869 9.04435 55.0296 9.88202C55.8719 10.7197 56.9442 11.8142 57.4114 12.3147C57.879 12.8155 58.644 13.6093 59.1116 14.0787C61.7628 16.7417 63.449 18.4671 63.8433 18.9203C64.0887 19.2025 64.4458 19.5849 64.6371 19.77C65.1117 20.2299 65.0925 20.2655 64.1708 20.6562C63.7258 20.8447 63.1774 21.092 62.9517 21.2059C62.726 21.3203 62.4304 21.4135 62.295 21.4135C62.1592 21.4135 62.0483 21.4661 62.0483 21.5307C62.0483 21.5949 61.7872 21.737 61.4685 21.846C60.8559 22.056 59.4906 22.629 57.9524 23.3225C57.4424 23.5524 55.8426 24.2467 54.3978 24.8657C52.9526 25.4846 51.4572 26.14 51.0747 26.3223C50.6922 26.5046 50.0316 26.8111 49.6063 27.0033C49.1815 27.1956 48.8103 27.4023 48.782 27.4628C48.7536 27.5233 48.6322 27.5726 48.5117 27.5726C48.3314 27.5726 48.2925 28.0125 48.2925 30.0657C48.2925 31.63 48.3501 32.5588 48.4471 32.5588C48.5322 32.5588 48.6016 32.5 48.6016 32.4287C48.6016 32.3571 48.9147 32.2543 49.2972 32.1996C49.6797 32.1454 49.9927 32.0389 49.9927 31.9631C49.9927 31.8873 50.0971 31.8256 50.2246 31.8256C50.3521 31.8256 50.4564 31.7758 50.4564 31.7154C50.4564 31.6549 50.8738 31.4788 51.3838 31.3243C51.8938 31.1698 52.3112 30.9883 52.3112 30.9212C52.3112 30.8537 52.4077 30.799 52.5251 30.799C52.643 30.799 52.9386 30.7004 53.1823 30.5798C53.4259 30.4593 53.7468 30.3602 53.8953 30.3598C54.0442 30.3594 54.166 30.2931 54.166 30.2124C54.166 30.1316 54.2529 30.0649 54.359 30.0645C54.4655 30.0636 54.8999 29.9008 55.3252 29.7024C55.75 29.5039 56.2194 29.3395 56.3683 29.337C56.5172 29.3345 56.639 29.2831 56.6394 29.2226C56.6394 29.1617 56.97 28.9898 57.3734 28.8403C57.7768 28.6903 58.4894 28.4044 58.957 28.2048C59.4247 28.0051 59.9464 27.788 60.1163 27.7221C60.7123 27.4918 61.6676 27.0916 62.2706 26.8202C62.605 26.6694 62.9705 26.546 63.0818 26.546C63.1936 26.546 63.2849 26.483 63.2849 26.406C63.2849 26.3293 63.5281 26.2228 63.8258 26.1698C64.1232 26.1168 64.3668 26.0149 64.3668 25.9432C64.3668 25.8715 64.4581 25.8127 64.5694 25.8127C64.6812 25.8127 65.0462 25.6897 65.3806 25.5389C65.936 25.2891 66.7342 24.9531 67.535 24.6328C67.7052 24.5649 68.1707 24.3735 68.5697 24.2078C69.5487 23.8014 69.4762 23.7881 71.7082 24.7865C72.0479 24.9386 72.6565 25.1987 73.0604 25.3645C73.8734 25.6984 74.7563 26.0733 76.2674 26.725C76.8202 26.9632 77.4983 27.2515 77.7747 27.3654C78.0506 27.4794 78.5029 27.6658 78.7789 27.7801C79.0553 27.894 79.6988 28.1637 80.2088 28.3796C81.5816 28.9604 82.309 29.267 82.9133 29.5201C83.2111 29.6448 83.9258 29.9505 84.5017 30.1995C85.0776 30.4485 85.5767 30.6523 85.6107 30.6523C85.6767 30.6523 87.4515 31.4183 89.0404 32.1321C89.5626 32.3666 90.0307 32.5588 90.08 32.5588C90.1634 32.5588 91.0109 32.9143 93.1141 33.8319C93.5817 34.0357 94.1035 34.257 94.2734 34.3237C94.4436 34.3899 95.0344 34.6418 95.5872 34.8829C96.1395 35.1245 97.2524 35.5967 98.0602 35.9331C98.8675 36.2691 99.8067 36.6647 100.146 36.8114C100.487 36.9585 101.426 37.3541 102.233 37.6913C103.703 38.3049 104.249 38.5377 106.062 39.324C106.596 39.5552 107.06 39.7445 107.094 39.7445C107.128 39.7445 107.7 39.9815 108.365 40.271C109.03 40.561 109.783 40.8834 110.038 40.9873C110.293 41.0917 110.848 41.3233 111.27 41.5027C111.692 41.6825 112.209 41.8905 112.417 41.9659C112.919 42.1469 112.693 42.3433 111.352 42.8934C110.8 43.1205 109.838 43.5273 109.215 43.7982C108.593 44.0687 108.056 44.2904 108.022 44.2904C107.987 44.2904 107.523 44.4797 106.99 44.7105C105.228 45.474 104.171 45.9264 103.701 46.119C102.568 46.583 102.081 46.7889 100.947 47.2831C100.282 47.5727 99.7063 47.8101 99.6679 47.8101C99.629 47.8101 98.9369 48.1071 98.1292 48.47C97.3214 48.833 96.6324 49.13 96.5988 49.13C96.5648 49.13 95.9928 49.3636 95.3278 49.6491C94.6628 49.9349 93.9799 50.2266 93.8097 50.2978C93.6398 50.3687 92.8853 50.696 92.133 51.0249C91.3812 51.3538 90.7398 51.6227 90.7079 51.6227C90.6507 51.6227 89.8918 51.9454 87.7323 52.8883C87.1097 53.1601 86.5726 53.3826 86.539 53.3826C86.4779 53.3826 85.7448 53.6941 83.559 54.6482C82.9364 54.92 82.3994 55.1424 82.3653 55.1424C82.295 55.1424 80.6847 55.833 79.2592 56.4747C78.737 56.7096 78.2693 56.9023 78.22 56.9023C78.1357 56.9023 77.4677 57.1836 75.0309 58.245C74.4786 58.4857 73.8874 58.7367 73.7171 58.8034C73.1128 59.04 71.5493 59.7094 71.2851 59.8445C71.1375 59.9199 70.9114 59.9816 70.783 59.9816C70.6542 59.9816 70.549 60.0371 70.549 60.1051C70.549 60.5264 69.3701 60.5894 68.5056 60.214C68.0244 60.0052 67.4354 59.7654 67.1966 59.6809C66.3294 59.3743 65.912 59.1746 65.912 59.0661C65.912 59.0052 65.8046 58.955 65.6732 58.955C65.5418 58.955 64.9143 58.7243 64.2786 58.4417C63.6433 58.1596 63.0727 57.9272 63.0107 57.9256C62.9491 57.9235 62.481 57.7271 61.9711 57.4889C61.4611 57.2503 60.9895 57.0539 60.9232 57.0522C60.8572 57.0502 60.3005 56.8256 59.6871 56.5526C59.0732 56.2796 58.31 55.9693 57.9912 55.8633C57.6725 55.7568 57.4114 55.6172 57.4114 55.553C57.4114 55.4883 57.3035 55.4357 57.1712 55.4357C57.039 55.4357 56.6215 55.3036 56.2439 55.1424C55.8662 54.9809 55.2265 54.7124 54.8227 54.545C54.4188 54.3781 53.88 54.1523 53.625 54.0433C53.37 53.9344 52.7788 53.7065 52.3112 53.5367C51.424 53.2144 51.3249 53.175 50.0796 52.6501C49.66 52.4732 49.0863 52.2934 48.8047 52.2499L48.2925 52.1712V54.6101C48.2925 56.1268 48.3506 57.0489 48.4462 57.0489C48.7099 57.0489 49.8382 57.5523 49.8382 57.6699C49.8382 57.7317 49.9242 57.7822 50.0294 57.7822C50.1342 57.7822 50.5691 57.9417 50.9952 58.1368C51.4213 58.3315 51.9964 58.5789 52.2723 58.6858C52.5487 58.7926 52.7749 58.9227 52.7749 58.9745C52.7749 59.0267 53.0181 59.1125 53.3159 59.1655C53.6132 59.2185 53.8568 59.325 53.8568 59.4016C53.8568 59.4787 54.0306 59.5417 54.2432 59.5417C54.4554 59.5417 54.6297 59.6079 54.6297 59.6883C54.6297 59.7691 54.7345 59.835 54.8624 59.835C54.9907 59.835 55.4252 59.994 55.8286 60.1883C56.9237 60.7161 58.3274 61.3015 58.4977 61.3015C58.5802 61.3015 58.6479 61.3674 58.6479 61.4482C58.6479 61.529 58.7531 61.5948 58.8819 61.5948C59.0107 61.5948 59.2365 61.6574 59.3841 61.734C59.8788 61.9905 61.6554 62.7328 62.2413 62.9276C62.5601 63.0336 62.8212 63.1728 62.8212 63.2374C62.8212 63.3021 62.9561 63.3547 63.1211 63.3547C63.2862 63.3547 63.4608 63.4156 63.5093 63.4902C63.5578 63.5643 63.7979 63.667 64.0433 63.7184C65.1235 63.9434 65.1226 64.2765 64.0389 65.3391C63.4966 65.871 62.7399 66.6403 62.3575 67.0488C61.975 67.4573 61.0637 68.3936 60.3328 69.1293C59.6019 69.8651 58.7326 70.7637 58.4008 71.1257C58.0694 71.4882 57.624 71.9564 57.4114 72.1664C56.9372 72.6354 55.7099 73.9014 54.1433 75.5382C53.4931 76.2172 52.4496 77.2823 51.8248 77.9046L50.6883 79.0364L50.07 78.753C49.7299 78.5968 49.3299 78.4672 49.1815 78.4643C49.0326 78.4614 48.9108 78.3934 48.9108 78.3126C48.9108 78.2319 48.7719 78.166 48.6016 78.166C48.4318 78.166 48.2925 78.26 48.2925 78.3752C48.2925 78.4904 48.1711 78.6147 48.0222 78.6515C47.7646 78.7153 47.7646 78.7195 48.0222 78.7356C48.2663 78.751 48.2925 78.9564 48.2925 80.8435V82.9343L48.9946 83.3366C49.3806 83.5578 49.7919 83.7385 49.9089 83.7385C50.0259 83.7385 50.149 83.8172 50.1831 83.9133C50.2224 84.0251 50.6311 84.091 51.3166 84.0964C52.5064 84.1055 52.6644 84.0264 53.7748 82.8689C54.1175 82.5114 54.8847 81.7474 55.4798 81.1712C56.0745 80.5949 56.7975 79.8641 57.0861 79.548C57.3747 79.2315 58.244 78.3367 59.0182 77.5599C60.8328 75.7379 63.5962 72.9278 64.7641 71.7165C65.819 70.6224 66.5569 69.9595 66.7237 69.9562C66.7875 69.955 66.8394 80.6442 66.8394 93.7106C66.8394 109.663 66.7879 117.467 66.6827 117.467C66.5966 117.467 66.4054 117.407 66.2578 117.333C66.1103 117.259 65.7112 117.091 65.371 116.959C65.0313 116.828 64.6323 116.657 64.4847 116.58C64.3371 116.504 64.1109 116.441 63.9821 116.441C63.8538 116.441 63.7486 116.382 63.7486 116.31C63.7486 116.238 63.5687 116.137 63.3495 116.085C63.1299 116.032 62.4295 115.761 61.7925 115.482C61.1559 115.203 60.607 114.975 60.5734 114.975C60.5394 114.975 60.1097 114.806 59.6185 114.6C59.1273 114.393 58.5863 114.171 58.4161 114.105C58.2462 114.04 57.69 113.805 57.1795 113.585C56.6696 113.364 56.1133 113.13 55.9435 113.066C55.7732 113.001 55.3213 112.816 54.9388 112.656C53.7162 112.142 51.2349 111.162 51.1581 111.162C51.117 111.162 50.7035 110.997 50.239 110.795C49.7744 110.593 49.2854 110.428 49.1527 110.428C49.0195 110.428 48.9108 110.363 48.9108 110.282C48.9108 110.201 48.7719 110.135 48.6016 110.135C48.3056 110.135 48.2925 110.233 48.2925 112.492C48.2925 114.855 48.382 115.268 48.8924 115.268C48.9793 115.268 49.5233 115.491 50.101 115.764C52.0828 116.701 53.4709 117.299 53.8953 117.399C54.1293 117.454 54.3205 117.558 54.3205 117.63C54.3205 117.702 54.4594 117.761 54.6297 117.761C54.7995 117.761 54.9388 117.82 54.9388 117.892C54.9388 117.964 55.13 118.066 55.3636 118.118C55.7304 118.201 57.5577 118.97 58.3755 119.384C58.523 119.459 58.7492 119.521 58.8776 119.521C59.0064 119.521 59.1116 119.586 59.1116 119.667C59.1116 119.748 59.2103 119.814 59.3308 119.814C59.4517 119.814 59.7473 119.909 59.9879 120.026C60.4189 120.234 61.8431 120.851 63.053 121.353C63.3927 121.494 64.0188 121.76 64.4441 121.944C64.8689 122.127 65.4601 122.377 65.7575 122.499C66.0552 122.62 66.8551 122.963 67.535 123.26C69.0177 123.908 69.9159 123.912 71.3991 123.274C71.909 123.055 72.6046 122.755 72.9447 122.607C73.2844 122.459 73.8062 122.237 74.1035 122.115C74.4013 121.993 75.0619 121.717 75.5719 121.502C76.0819 121.287 76.708 121.026 76.963 120.92C77.6122 120.652 78.361 120.338 79.4019 119.898C79.8932 119.69 80.3228 119.521 80.3564 119.521C80.3905 119.521 80.9275 119.298 81.5497 119.026C83.749 118.066 84.469 117.761 84.5318 117.761C84.5668 117.761 85.1946 117.497 85.9273 117.174C86.66 116.852 87.2878 116.587 87.3227 116.587C87.3577 116.587 87.7886 116.414 88.2798 116.201C88.771 115.989 89.6093 115.626 90.1429 115.395C90.6764 115.164 91.1406 114.975 91.1746 114.975C91.2091 114.975 91.7811 114.737 92.4461 114.448C93.1111 114.158 93.8638 113.836 94.1188 113.732C94.3738 113.628 94.9842 113.371 95.4754 113.159C95.9666 112.948 96.3962 112.775 96.4307 112.775C96.4648 112.775 96.9324 112.584 97.4699 112.351C98.0069 112.117 98.7592 111.794 99.1421 111.632C99.5246 111.47 100.551 111.034 101.423 110.663C102.295 110.292 103.037 109.988 103.073 109.988C103.108 109.988 103.65 109.764 104.276 109.49C105.382 109.005 106.306 108.616 111.97 106.252C113.458 105.631 115.114 104.931 115.652 104.696C116.189 104.462 116.659 104.269 116.697 104.269C116.772 104.269 117.454 103.978 119.787 102.948C120.93 102.444 121.443 102.128 121.719 101.762L122.094 101.263L122.171 85.4739C122.213 76.7897 122.283 69.653 122.326 69.6144C122.408 69.539 124.786 68.4872 124.873 68.4872C124.901 68.4872 125.594 68.1901 126.413 67.8272C127.231 67.4643 127.926 67.1673 127.955 67.1673C127.985 67.1673 128.765 66.8301 129.688 66.4179C130.612 66.0052 132.063 65.3718 132.913 65.0101C133.763 64.6481 134.771 64.2185 135.154 64.0552C138.204 62.7544 138.671 62.3732 138.827 61.06C138.99 59.6941 138.858 59.5127 133.248 53.3826C130.385 50.2539 123.535 42.632 123.394 42.4191C123.228 42.1664 123.466 41.8519 125.594 39.51C126.906 38.0663 129.289 35.4331 130.89 33.6583C132.492 31.884 133.984 30.2335 134.207 29.9907C134.431 29.7479 134.996 29.122 135.463 28.5991C135.93 28.0767 136.497 27.4504 136.721 27.2076C138.725 25.043 138.947 24.6449 138.826 23.4434C138.702 22.2251 138.114 21.6869 135.849 20.7216C135.254 20.4681 134.28 20.0513 133.686 19.7953C133.091 19.5393 131.56 18.881 130.285 18.3325C129.01 17.7836 127.445 17.1062 126.808 16.827C126.17 16.5478 125.266 16.1525 124.799 15.9491C124.331 15.7457 123.335 15.3082 122.587 14.9768C121.838 14.6454 121.203 14.3745 121.175 14.3745C121.147 14.3745 120.403 14.0542 119.522 13.6627C118.641 13.2712 117.329 12.7008 116.607 12.3946C115.884 12.0885 114.841 11.6415 114.289 11.4008C113.736 11.1605 112.867 10.7827 112.357 10.5614C109.981 9.5303 109.481 9.31197 108.127 8.71085C107.331 8.35747 106.657 8.06872 106.63 8.06872C106.602 8.06872 105.914 7.77168 105.101 7.40877C104.287 7.04587 103.59 6.74883 103.55 6.74883C103.511 6.74883 102.833 6.45966 102.044 6.10669C101.255 5.75373 100.263 5.31625 99.8372 5.13397C99.4124 4.9521 98.6475 4.62316 98.1375 4.40235C97.6275 4.18154 96.8621 3.85177 96.4373 3.66908C96.012 3.48638 95.2125 3.14129 94.6598 2.90225C92.564 1.9958 91.9387 1.72735 91.4139 1.50861C91.1166 1.38433 90.3743 1.06036 89.7648 0.788595C88.6247 0.27986 87.6105 0.0938486 86.932 0.269503ZM89.3054 6.14937C90.3023 6.59803 91.7361 7.22069 93.0368 7.76878C93.4621 7.94817 94.2271 8.27793 94.737 8.50164C95.247 8.72535 95.9076 9.01038 96.2054 9.13466C96.5027 9.25936 97.3027 9.60528 97.9829 9.90356C98.6627 10.2018 99.6019 10.6124 100.069 10.8162C100.537 11.0196 101.441 11.4157 102.078 11.6957C103.848 12.4729 105.014 12.9821 105.865 13.3479C107.421 14.0161 108.529 14.5025 110.172 15.237C111.095 15.6496 111.879 15.9877 111.913 15.9877C111.948 15.9877 112.549 16.2449 113.249 16.5598C113.948 16.8746 114.868 17.2794 115.293 17.4592C116.665 18.04 117.739 18.5057 119.002 19.0674C119.683 19.3698 120.587 19.7663 121.012 19.9482C121.838 20.302 122.936 20.7805 124.799 21.5991C126.563 22.3742 127.638 22.8415 129.667 23.7148C130.687 24.1535 131.582 24.569 131.656 24.6374C131.731 24.707 130.537 26.1437 128.951 27.8911C127.39 29.6121 125.524 31.6797 124.806 32.4859C124.087 33.2921 123.344 34.1169 123.155 34.3183C122.966 34.52 121.931 35.6585 120.855 36.8483C118.685 39.2494 118.867 39.1426 117.782 38.662C117.348 38.4702 116.75 38.2117 116.453 38.0882C116.155 37.9648 115.425 37.654 114.83 37.398C113.766 36.9407 112.968 36.6072 112.357 36.3665C112.187 36.2994 111.526 36.0181 110.888 35.7413C109.805 35.2711 109.326 35.069 108.068 34.5519C107.791 34.4384 107.021 34.1086 106.356 33.8187C105.691 33.5291 105.119 33.2921 105.085 33.2921C105.051 33.2921 104.586 33.1032 104.053 32.8729C103.52 32.6421 102.318 32.1396 101.383 31.7564C100.448 31.3732 99.2308 30.8624 98.6785 30.6217C98.1257 30.3806 97.5345 30.1278 97.3646 30.0595C96.966 29.9 95.4182 29.2508 94.4279 28.8282C94.0031 28.6468 93.342 28.375 92.9596 28.2242C92.5771 28.0734 92.0361 27.8319 91.7571 27.6882C91.4781 27.544 91.1877 27.4259 91.1118 27.4259C91.0354 27.4259 90.4638 27.2034 89.8412 26.9321C87.6554 25.9776 86.9224 25.6661 86.8612 25.6661C86.8276 25.6661 86.2561 25.4291 85.5907 25.1395C84.9257 24.8495 84.1559 24.5197 83.8795 24.4062C82.6185 23.888 82.3081 23.7575 81.3253 23.3328C80.7494 23.0839 80.2503 22.88 80.2162 22.88C80.1818 22.88 79.6098 22.6426 78.9448 22.3531C77.6782 21.8012 76.9643 21.5013 76.1901 21.1956C73.7381 20.2278 73.7765 20.2953 74.9925 19.1039C75.4811 18.6246 76.184 17.9091 76.5543 17.5135C76.9245 17.1178 77.8633 16.1646 78.6409 15.3953C79.4181 14.6259 80.3935 13.6362 80.8079 13.1958C81.2227 12.755 82.0571 11.8971 82.6627 11.2893C85.5754 8.36493 87.6463 6.24258 87.8292 5.99525C88.0947 5.63649 88.1877 5.64643 89.3054 6.14937ZM121.659 48.4411C125.776 53.0321 126.63 53.9808 127.427 54.8491C131.723 59.5338 131.917 59.7828 131.412 59.9667C131.217 60.0375 130.606 60.294 130.053 60.5368C129.501 60.7795 128.527 61.2071 127.889 61.4871C127.252 61.7672 126.348 62.1632 125.881 62.367C125.413 62.5705 124.509 62.9669 123.871 63.247C123.234 63.5274 122.364 63.9061 121.939 64.0884C121.514 64.2707 120.749 64.6017 120.239 64.8237C116.319 66.5293 115.078 67.0679 114.675 67.239C114.106 67.4797 112.588 68.1404 111.043 68.8199C110.405 69.1003 109.536 69.4781 109.111 69.66C108.686 69.8415 107.782 70.2375 107.102 70.5404C106.422 70.8432 105.517 71.2388 105.092 71.4203C104.667 71.6017 103.763 71.9974 103.083 72.2998C101.971 72.794 101.108 73.1689 99.4513 73.8761C99.1535 74.0033 98.275 74.3936 97.4991 74.7432C96.7228 75.0933 96.0526 75.3795 96.0098 75.3795C95.9666 75.3795 95.2453 75.6836 94.407 76.0552C93.5682 76.4268 92.3954 76.9468 91.8003 77.2107C91.2056 77.4745 90.3708 77.8325 89.946 78.0065C89.5207 78.1805 89.0522 78.3868 88.9046 78.4643C88.2239 78.8234 88.2506 78.8446 83.9952 74.5133C83.0176 73.5182 82.1832 72.6523 82.1409 72.5894C82.0697 72.4841 80.0643 70.4517 76.9464 67.3243C73.7708 64.1393 73.8555 64.2533 74.4515 63.9753C75.0597 63.6919 76.9049 62.9147 76.9699 62.9147C77.0044 62.9147 77.469 62.7258 78.0026 62.4946C78.5357 62.2635 79.3744 61.9006 79.8656 61.688C80.3568 61.4755 80.7874 61.3015 80.8223 61.3015C80.8572 61.3015 81.4855 61.0376 82.2182 60.7149C82.9504 60.3922 83.5787 60.1283 83.6136 60.1283C83.6486 60.1283 84.0791 59.9547 84.5703 59.7422C85.0615 59.5296 85.9002 59.1667 86.4333 58.9356C86.9669 58.7044 87.4315 58.5151 87.466 58.5151C87.5004 58.5151 88.003 58.3121 88.5828 58.0635C89.1622 57.8149 89.8456 57.5249 90.1005 57.4193C90.3555 57.3137 90.9467 57.0634 91.4139 56.8638C91.8815 56.6641 93.0294 56.186 93.9642 55.8011C94.8995 55.4167 96.1735 54.8802 96.7962 54.6088C97.4188 54.3379 97.9558 54.1158 97.9894 54.1158C98.0231 54.1158 98.4527 53.9418 98.9444 53.7293C99.4356 53.5168 100.274 53.1539 100.807 52.9227C101.341 52.692 101.809 52.5026 101.847 52.5026C101.886 52.5026 102.528 52.2342 103.273 51.9061C104.019 51.578 104.768 51.2548 104.938 51.1877C105.767 50.8613 106.683 50.4735 109.153 49.4034C109.687 49.1722 110.151 48.9833 110.185 48.9833C110.22 48.9833 110.792 48.746 111.457 48.4564C112.608 47.9547 113.166 47.7194 114.211 47.2931C114.466 47.1891 115.196 46.8792 115.834 46.6045C116.472 46.3299 117.237 46.0163 117.534 45.9077C117.832 45.7988 118.141 45.6546 118.222 45.5867C118.663 45.2167 119.072 45.5564 121.659 48.4411ZM73.8206 71.448C74.6139 72.27 75.8247 73.5074 76.5115 74.198C77.1979 74.8882 78.0672 75.7831 78.4431 76.1861C78.8191 76.5897 79.3351 77.1203 79.5906 77.366C79.8456 77.6117 80.4717 78.2422 80.9817 78.7671C87.2018 85.1685 86.7818 84.9635 90.4097 83.3743C91.0895 83.0764 91.8544 82.7467 92.1094 82.6414C93.2643 82.1642 94.4847 81.6376 97.1328 80.4731C97.7703 80.1926 98.6396 79.8144 99.0649 79.6317C99.4897 79.4494 100.255 79.1201 100.765 78.8993C101.275 78.6789 102.023 78.3574 102.426 78.1855C102.83 78.0135 103.491 77.7318 103.895 77.5599C104.298 77.388 105.046 77.0669 105.556 76.8461C106.066 76.6257 106.831 76.2959 107.256 76.1136C107.681 75.9314 108.551 75.5527 109.188 75.2722C110.633 74.6372 111.992 74.0431 112.898 73.6512C113.28 73.4855 114.209 73.0807 114.961 72.7518C115.713 72.4228 116.426 72.1535 116.545 72.1535C116.729 72.1535 116.762 74.1458 116.762 85.4283V98.703L116.336 98.8671C115.842 99.0585 114.927 99.4413 113.516 100.048C112.963 100.286 112.302 100.567 112.047 100.673C111.792 100.779 111.271 100.998 110.888 101.16C110.506 101.321 109.463 101.76 108.57 102.134C106.41 103.04 106.501 103.001 105.117 103.599C104.451 103.887 103.882 104.123 103.853 104.123C103.825 104.123 103.292 104.345 102.67 104.617C100.483 105.571 99.7504 105.882 99.6897 105.882C99.656 105.882 99.119 106.105 98.4964 106.376C96.3106 107.331 95.5775 107.642 95.5164 107.642C95.4828 107.642 94.9113 107.879 94.2459 108.169C93.5809 108.459 92.8111 108.789 92.5347 108.902C92.2583 109.016 91.8064 109.202 91.5301 109.315C91.2537 109.428 90.4835 109.758 89.8185 110.048C89.1535 110.338 88.5802 110.575 88.544 110.575C88.5082 110.575 87.9742 110.797 87.3577 111.068C84.6764 112.248 83.0875 112.922 82.9844 112.922C82.9434 112.922 82.4064 113.146 81.7912 113.421C79.7801 114.318 78.2506 114.975 78.1694 114.975C78.0812 114.975 76.1967 115.786 75.7675 116.009C75.6195 116.085 75.3937 116.148 75.2649 116.148C75.1361 116.148 75.0309 116.201 75.0309 116.265C75.0309 116.329 74.7702 116.468 74.4515 116.573C74.1328 116.679 73.5045 116.932 73.0552 117.136C72.6063 117.34 72.1977 117.467 72.147 117.42C72.0798 117.356 72.0213 73.0239 72.085 70.3572C72.0999 69.7354 72.271 69.8431 73.8206 71.448Z" fill="url(#paint0_linear)"/>
<path fill-rule="evenodd" clip-rule="evenodd" d="M50.07 0.283992C49.6452 0.433132 48.706 0.818412 47.9834 1.14031C47.2612 1.46262 46.2526 1.90672 45.7427 2.12795C45.2327 2.34917 42.3811 3.58704 39.4055 4.87918C36.4304 6.17131 33.5443 7.42409 32.9915 7.66313C32.4392 7.90217 31.5349 8.29615 30.9822 8.5385C30.4298 8.78086 29.595 9.14501 29.1278 9.34759C28.6602 9.55017 27.4778 10.0651 26.5002 10.4918C25.5226 10.9185 23.0535 11.9919 21.0136 12.8772C18.9733 13.7621 16.8172 14.7005 16.2221 14.9623C15.627 15.2237 14.3403 15.7842 13.3626 16.2076C11.3096 17.0967 10.4844 17.4546 7.72147 18.6527C6.61638 19.132 5.22529 19.734 4.63018 19.9904C0.533335 21.7561 0.0648376 22.1588 0.0761898 23.9008C0.0836124 24.9933 -0.2718 24.5404 6.25311 31.7738C9.4409 35.308 12.7038 38.9267 13.5041 39.8153C14.304 40.704 15.1266 41.605 15.3323 41.8175L15.7056 42.2041L12.878 45.3368C9.44439 49.1408 8.36069 50.3393 4.01104 55.1412C-0.187969 59.777 -0.466098 60.3031 0.393178 61.9876C0.861238 62.9044 0.687461 62.814 8.26245 66.067C9.0702 66.4137 10.3434 66.9684 11.0922 67.299C11.841 67.63 12.4789 67.9006 12.5099 67.9006C12.5409 67.9006 13.3194 68.2374 14.2394 68.6487C15.1598 69.0601 16.0697 69.4545 16.261 69.5249L16.6085 69.6534V100.986L17.0731 101.681C17.6066 102.479 17.2006 102.279 24.5682 105.369C27.2036 106.474 29.7369 107.541 30.198 107.74C30.6591 107.939 33.4757 109.126 36.4574 110.378C39.4391 111.63 42.1567 112.774 42.4968 112.919C43.0146 113.141 45.0113 113.985 48.0607 115.271C48.4008 115.414 49.3051 115.796 50.07 116.118C50.835 116.441 53.0609 117.378 55.0161 118.201C56.9709 119.024 58.8488 119.816 59.1889 119.959C59.5291 120.103 60.6765 120.584 61.7393 121.029C62.8016 121.473 64.0538 122.003 64.5214 122.205C69.3173 124.281 69.502 124.317 71.3218 123.514C72.5252 122.984 73.2434 122.678 75.1855 121.867C75.9933 121.53 76.932 121.135 77.2721 120.989C78.4117 120.5 80.6394 119.562 85.4636 117.539C91.7266 114.914 92.3527 114.643 92.2885 114.582C92.227 114.524 91.0996 114.978 88.3576 116.167C87.8245 116.399 87.3581 116.587 87.3227 116.587C87.2878 116.587 86.66 116.852 85.9273 117.174C85.1946 117.497 84.5668 117.761 84.5318 117.761C84.469 117.761 83.749 118.066 81.5497 119.026C80.9275 119.298 80.3905 119.521 80.3564 119.521C80.3228 119.521 79.8932 119.69 79.4019 119.898C78.9107 120.106 78.2825 120.37 78.0061 120.485C77.7302 120.6 77.2778 120.788 77.0019 120.903C76.7255 121.018 76.0819 121.287 75.5719 121.502C75.0619 121.717 74.4013 121.993 74.1035 122.115C73.8062 122.237 73.2844 122.459 72.9447 122.607C72.6046 122.755 71.909 123.055 71.3991 123.274C69.9159 123.912 69.0177 123.908 67.535 123.26C66.8551 122.963 66.0552 122.62 65.7575 122.499C65.4601 122.377 64.8689 122.127 64.4441 121.944C64.0188 121.76 63.3927 121.494 63.053 121.353C61.8431 120.851 60.4189 120.234 59.9879 120.026C59.7473 119.909 59.4517 119.814 59.3308 119.814C59.2103 119.814 59.1116 119.748 59.1116 119.667C59.1116 119.586 59.0064 119.521 58.8776 119.521C58.7492 119.521 58.523 119.459 58.3755 119.384C57.5577 118.97 55.7304 118.201 55.3636 118.118C55.13 118.066 54.9388 117.964 54.9388 117.892C54.9388 117.82 54.7995 117.761 54.6297 117.761C54.4594 117.761 54.3205 117.702 54.3205 117.63C54.3205 117.558 54.1293 117.454 53.8953 117.399C53.4709 117.299 52.0828 116.701 50.101 115.764C49.5233 115.491 48.9793 115.268 48.8924 115.268C48.382 115.268 48.2925 114.855 48.2925 112.492C48.2925 110.233 48.3056 110.135 48.6016 110.135C48.7719 110.135 48.9108 110.201 48.9108 110.282C48.9108 110.363 49.0195 110.428 49.1527 110.428C49.2854 110.428 49.7744 110.593 50.239 110.795C50.7035 110.997 51.117 111.162 51.1581 111.162C51.2349 111.162 53.7162 112.142 54.9388 112.656C55.3213 112.816 55.7732 113.001 55.9435 113.066C56.1133 113.13 56.6696 113.364 57.1795 113.585C57.69 113.805 58.2462 114.04 58.4161 114.105C58.5863 114.171 59.1273 114.393 59.6185 114.6C60.1097 114.806 60.5394 114.975 60.5734 114.975C60.607 114.975 61.1559 115.203 61.7925 115.482C62.4295 115.761 63.1299 116.032 63.3495 116.085C63.5687 116.137 63.7486 116.238 63.7486 116.31C63.7486 116.382 63.8538 116.441 63.9821 116.441C64.1109 116.441 64.3371 116.504 64.4847 116.58C64.6323 116.657 65.0313 116.828 65.371 116.959C65.7112 117.091 66.1103 117.259 66.2578 117.333C66.4054 117.407 66.5966 117.467 66.6827 117.467C66.7879 117.467 66.8394 109.663 66.8394 93.7106C66.8394 80.6442 66.7875 69.955 66.7237 69.9562C66.5569 69.9595 65.819 70.6224 64.7641 71.7165C63.5962 72.9278 60.8328 75.7379 59.0182 77.5599C58.244 78.3367 57.3747 79.2315 57.0861 79.548C56.7975 79.8641 56.0745 80.5949 55.4798 81.1712C54.8847 81.7474 54.1175 82.5114 53.7748 82.8689C52.6644 84.0264 52.5064 84.1055 51.3166 84.0964C50.6311 84.091 50.2224 84.0251 50.1831 83.9133C50.149 83.8172 50.0259 83.7385 49.9089 83.7385C49.7919 83.7385 49.3806 83.5578 48.9946 83.3366L48.2925 82.9343L48.2926 80.8542C48.2926 78.9966 48.2637 78.7671 48.0223 78.707C47.7647 78.6432 47.7647 78.6391 48.0223 78.6229C48.1712 78.6138 48.2926 78.5069 48.2926 78.386C48.2926 78.2638 48.43 78.166 48.6016 78.166C48.7719 78.166 48.9108 78.2319 48.9108 78.3126C48.9108 78.3934 49.0326 78.4614 49.1815 78.4643C49.3299 78.4672 49.7299 78.5968 50.07 78.753L50.6883 79.0364L51.8248 77.9046C52.4496 77.2823 53.4931 76.2172 54.1433 75.5382C55.7099 73.9014 56.9372 72.6354 57.4114 72.1664C57.624 71.9564 58.0694 71.4882 58.4008 71.1257C58.7326 70.7637 59.6019 69.8651 60.3328 69.1293C61.0637 68.3936 61.975 67.4573 62.3575 67.0488C62.7399 66.6403 63.4966 65.871 64.0389 65.3391C65.1226 64.2765 65.1235 63.9434 64.0433 63.7184C63.7979 63.667 63.5578 63.5643 63.5093 63.4902C63.4608 63.4156 63.2862 63.3547 63.1211 63.3547C62.9561 63.3547 62.8212 63.3021 62.8212 63.2374C62.8212 63.1728 62.5601 63.0336 62.2413 62.9276C61.6554 62.7328 59.8788 61.9905 59.3841 61.734C59.2365 61.6574 59.0107 61.5948 58.8819 61.5948C58.7531 61.5948 58.6479 61.529 58.6479 61.4482C58.6479 61.3674 58.5802 61.3015 58.4977 61.3015C58.3274 61.3015 56.9237 60.7161 55.8286 60.1883C55.4252 59.994 54.9907 59.835 54.8624 59.835C54.7345 59.835 54.6297 59.7691 54.6297 59.6883C54.6297 59.6079 54.4554 59.5417 54.2432 59.5417C54.0306 59.5417 53.8568 59.4787 53.8568 59.4016C53.8568 59.325 53.6132 59.2185 53.3159 59.1655C53.0181 59.1125 52.7749 59.0267 52.7749 58.9745C52.7749 58.9227 52.5487 58.7926 52.2723 58.6858C51.9964 58.5789 51.4213 58.3315 50.9952 58.1368C50.5691 57.9417 50.1342 57.7822 50.0294 57.7822C49.9242 57.7822 49.8382 57.7317 49.8382 57.6699C49.8382 57.5523 48.7099 57.0489 48.4462 57.0489C48.3506 57.0489 48.2925 56.1268 48.2925 54.6101V52.1712L48.8047 52.2499C49.0863 52.2934 49.66 52.4732 50.0796 52.6501C51.3218 53.1738 51.424 53.2144 52.2986 53.5329C52.7596 53.7007 53.4548 53.9713 53.8442 54.1341C54.2337 54.2969 54.7611 54.5177 55.0161 54.6242C55.2711 54.731 55.806 54.9572 56.2055 55.1271C56.6046 55.2965 57.039 55.4357 57.1712 55.4357C57.3035 55.4357 57.4114 55.4883 57.4114 55.553C57.4114 55.6172 57.6725 55.7568 57.9912 55.8633C58.31 55.9693 59.0732 56.2796 59.6871 56.5526C60.3005 56.8256 60.8572 57.0502 60.9232 57.0522C60.9895 57.0539 61.4611 57.2503 61.9711 57.4889C62.481 57.7271 62.9491 57.9235 63.0107 57.9256C63.0727 57.9272 63.6521 58.1633 64.2979 58.4504C64.9436 58.7375 65.5457 58.9488 65.6357 58.9202C65.7256 58.8921 64.7987 58.4484 63.5761 57.9342C61.1756 56.9251 59.7443 56.3181 58.648 55.8438C58.2655 55.6785 57.4311 55.3301 56.7932 55.0703C56.1557 54.8102 55.3213 54.4622 54.9388 54.2973C54.5564 54.132 52.9644 53.4575 51.4017 52.7988C48.5772 51.6082 47.2473 51.0469 46.3609 50.6715C44.3472 49.8189 36.3042 46.4355 32.0641 44.657C29.2165 43.4627 26.7945 42.4174 26.6819 42.3346C26.4256 42.1452 26.4513 42.1324 30.0932 40.6066C31.645 39.9566 33.1229 39.336 33.3779 39.2271C37.4839 37.4763 38.7187 36.9581 38.7829 36.9581C38.8252 36.9581 39.5994 36.6283 40.5027 36.2248C41.4061 35.8217 42.168 35.4915 42.1955 35.4915C42.2549 35.4915 51.6105 31.5625 53.0841 30.9187C53.6364 30.6772 54.4909 30.3188 54.9825 30.122C55.4741 29.9257 56.3435 29.5615 56.9141 29.3134C57.4852 29.0652 58.8217 28.5001 59.8845 28.0581C63.5726 26.5232 63.9809 26.345 64.135 26.2071C64.2328 26.1193 64.1193 26.106 63.8259 26.1715C63.5709 26.2282 63.339 26.3355 63.3107 26.4105C63.2823 26.4851 63.1736 26.546 63.0692 26.546C62.9644 26.546 62.605 26.6694 62.2706 26.8202C61.6676 27.0916 60.7123 27.4918 60.1163 27.7221C59.9464 27.788 59.4247 28.0051 58.957 28.2048C58.4894 28.4044 57.7768 28.6903 57.3734 28.8403C56.97 28.9898 56.6394 29.1617 56.6394 29.2226C56.639 29.2831 56.5172 29.3345 56.3683 29.337C56.2194 29.3395 55.75 29.5039 55.3252 29.7024C54.8999 29.9008 54.4655 30.0636 54.359 30.0645C54.2529 30.0649 54.166 30.1316 54.166 30.2124C54.166 30.2931 54.0442 30.3594 53.8953 30.3598C53.7468 30.3602 53.4259 30.4593 53.1823 30.5798C52.9386 30.7004 52.643 30.799 52.5251 30.799C52.4077 30.799 52.3112 30.8537 52.3112 30.9212C52.3112 30.9883 51.8938 31.1698 51.3838 31.3243C50.8738 31.4788 50.4564 31.6549 50.4564 31.7154C50.4564 31.7758 50.3521 31.8256 50.2246 31.8256C50.0971 31.8256 49.9927 31.8873 49.9927 31.9631C49.9927 32.0389 49.6797 32.1454 49.2972 32.1996C48.9147 32.2543 48.6016 32.3571 48.6016 32.4287C48.6016 32.5 48.5322 32.5588 48.4471 32.5588C48.3501 32.5588 48.2925 31.63 48.2925 30.0657C48.2925 28.0125 48.3314 27.5726 48.5117 27.5726C48.6322 27.5726 48.7536 27.5233 48.782 27.4628C48.8103 27.4023 49.1815 27.1956 49.6063 27.0033C50.0316 26.8111 50.6922 26.5046 51.0747 26.3223C51.4572 26.14 52.9526 25.4846 54.3978 24.8657C55.8426 24.2467 57.4424 23.5524 57.9524 23.3225C59.4906 22.629 60.8559 22.056 61.4685 21.846C61.7872 21.737 62.0483 21.5949 62.0483 21.5307C62.0483 21.4661 62.1592 21.4135 62.295 21.4135C62.4304 21.4135 62.726 21.3203 62.9517 21.2059C63.1774 21.092 63.7258 20.8447 64.1708 20.6562C65.0925 20.2655 65.1117 20.2299 64.6371 19.77C64.4458 19.5849 64.0887 19.2025 63.8433 18.9203C63.449 18.4671 61.7628 16.7417 59.1116 14.0787C58.644 13.6093 57.879 12.8155 57.4114 12.3147C56.9442 11.8142 55.8719 10.7197 55.0296 9.88202C54.1869 9.04435 53.3892 8.21123 53.2569 8.03061C53.1246 7.84957 52.709 7.40505 52.3335 7.04214C51.9575 6.67923 51.5493 6.23636 51.4257 6.05781C51.0476 5.51096 50.108 5.50392 49.6792 6.04497C49.6338 6.10172 49.3037 6.19286 48.9448 6.24714L48.2925 6.34615V4.044C48.2925 1.72984 48.3833 1.3226 48.8998 1.3226C48.9911 1.3226 49.0662 1.2733 49.0666 1.21282C49.0684 1.05208 49.791 0.757938 50.7861 0.512271C52.2907 0.140662 53.1849 0.721066 56.3631 4.13307C56.7643 4.5635 57.5293 5.35478 58.0633 5.89169C59.5246 7.3603 62.2099 10.0929 63.067 10.9836C63.4844 11.4173 64.2428 12.1825 64.7532 12.6842C65.2632 13.1855 65.9932 13.9291 66.3757 14.3363C67.6755 15.7205 69.3111 17.3071 69.4378 17.3071C69.5526 17.3071 72.2723 14.6226 73.7232 13.0765C74.0529 12.7256 74.6729 12.0947 75.1016 11.6746C75.5304 11.2545 76.994 9.76229 78.354 8.35913C79.7141 6.95555 81.4183 5.20895 82.1409 4.47775C82.8631 3.74655 83.9376 2.63751 84.5284 2.01278C86.7242 -0.308428 87.3354 -0.348612 91.4764 1.55624C91.7235 1.66976 92.0016 1.75883 92.0947 1.75427C92.4575 1.73687 88.6737 0.12988 88.0895 0.0536527C86.5369 -0.149344 86.112 0.154322 81.9008 4.47567C80.8001 5.60499 79.4094 7.02348 78.8104 7.62875C78.2109 8.23359 77.3066 9.15495 76.801 9.67653C76.295 10.1981 75.2899 11.2222 74.5673 11.9526C73.8451 12.6825 72.4274 14.1234 71.417 15.1541C70.4067 16.1849 69.4998 17.0084 69.4016 16.9844C69.2221 16.9405 67.952 15.6861 64.676 12.3167C63.6984 11.3113 62.3767 9.9599 61.7393 9.31362C60.7922 8.35373 57.7961 5.27854 57.1796 4.63309C52.6767 -0.0793312 52.1051 -0.428568 50.07 0.283992ZM92.3413 1.8392C92.3413 1.88352 92.6369 2.04095 92.9985 2.18885C93.3596 2.33716 94.204 2.69965 94.8742 2.99462C95.5449 3.28959 96.1195 3.50626 96.1518 3.4756C96.1841 3.44494 95.5663 3.13755 94.7781 2.79287C92.785 1.91998 92.3413 1.7464 92.3413 1.8392ZM96.36 3.58911C96.36 3.66368 97.7371 4.25942 97.8865 4.24906C98.0087 4.24077 96.632 3.53815 96.4757 3.52904C96.412 3.52531 96.36 3.55224 96.36 3.58911ZM98.0602 4.32197C98.0602 4.39696 99.4374 4.99269 99.5867 4.98233C99.7089 4.97405 98.3323 4.27143 98.1759 4.26231C98.1122 4.25859 98.0602 4.28551 98.0602 4.32197ZM99.76 5.05524C99.76 5.13023 101.138 5.72596 101.287 5.71561C101.409 5.70732 100.032 5.00429 99.8762 4.99559C99.8124 4.99186 99.76 5.01879 99.76 5.05524ZM87.8292 5.99525C87.6463 6.24258 85.5754 8.36493 82.6627 11.2893C82.0571 11.8971 81.2227 12.755 80.8079 13.1958C80.3935 13.6362 79.4195 14.6259 78.644 15.3952C76.7722 17.2516 75.8195 18.2509 75.8732 18.3018C75.9278 18.3536 77.8681 16.426 81.0804 13.1279C83.5381 10.6045 86.2042 7.88809 87.1735 6.9195L88.2655 5.82912L88.8737 6.09343C89.2086 6.23925 89.5343 6.38384 89.598 6.41532C89.6618 6.44681 89.7142 6.43728 89.7142 6.39419C89.7142 6.00602 88.0777 5.65969 87.8292 5.99525ZM101.46 5.78935C101.46 5.89085 103.502 6.76705 103.576 6.69703C103.631 6.64483 101.685 5.72223 101.52 5.72223C101.487 5.72223 101.46 5.75248 101.46 5.78935ZM51.0284 6.0781C51.0965 6.19327 51.6048 6.73763 52.1575 7.28779C52.7108 7.83837 54.0324 9.17856 55.0943 10.266C57.4027 12.6303 56.6299 11.8407 60.983 16.2851C65.0013 20.3877 64.8375 20.1889 64.3407 20.3695C64.1424 20.4416 62.6937 21.0448 61.121 21.7105C59.5483 22.3763 57.7402 23.1352 57.1023 23.3974C56.4648 23.6597 55.4217 24.1034 54.7843 24.3843C54.1464 24.6647 53.1033 25.1101 52.4658 25.3736C51.8283 25.637 50.8892 26.0327 50.3792 26.2527C49.8692 26.4726 48.9305 26.8687 48.2926 27.1326C47.6551 27.3965 46.7163 27.7925 46.2064 28.0125C45.696 28.2325 44.7572 28.6286 44.1197 28.8925C43.4823 29.1563 42.5431 29.5524 42.0331 29.7724C41.5231 29.9924 40.5844 30.388 39.9465 30.6515C39.309 30.9154 38.2781 31.3533 37.6555 31.6246C37.0333 31.8964 36.4963 32.1189 36.4622 32.1189C36.4286 32.1189 35.999 32.2924 35.5078 32.505C35.0166 32.7175 34.1778 33.0804 33.6447 33.3116C33.1111 33.5427 32.6444 33.7316 32.6073 33.7316C32.5702 33.7316 31.8589 34.0349 31.0267 34.4057C30.1949 34.776 29.2012 35.1986 28.8187 35.3448C28.4362 35.4911 27.5665 35.8523 26.8866 36.1481C25.4894 36.7555 25.6003 36.7082 23.4089 37.6267C22.5165 38.0008 21.4384 38.4623 21.0136 38.652L20.2408 38.9975L19.4942 38.2344C17.9088 36.6138 7.41234 24.9125 7.41234 24.7662C7.41234 24.6813 8.59472 24.1005 10.0399 23.4758C11.4852 22.851 13.0151 22.189 13.4399 22.0038C14.3507 21.6078 15.4205 21.1442 17.845 20.0944C18.8226 19.671 20.1316 19.1018 20.7543 18.8292C21.3769 18.5566 21.9096 18.3337 21.9384 18.3337C21.9672 18.3337 22.8723 17.9381 23.9499 17.4538C25.0275 16.9699 25.93 16.5743 25.9553 16.5743C25.9806 16.5743 26.6526 16.2847 27.4486 15.9313C28.2445 15.5779 29.2435 15.14 29.6688 14.9586C30.0936 14.7771 30.8935 14.4325 31.4459 14.1922C31.9986 13.9523 33.1111 13.4726 33.9189 13.1262C34.7267 12.7803 35.909 12.2678 36.5465 11.9878C37.184 11.7082 38.0533 11.3299 38.4786 11.1476C39.4025 10.7512 42.2606 9.50253 44.0425 8.71664C50.5617 5.84196 50.8293 5.74088 51.0284 6.0781ZM90.063 6.61459C90.4931 6.85197 91.414 7.19955 91.414 7.12415C91.414 7.04917 90.043 6.45261 89.8875 6.46006C89.8347 6.46214 89.9137 6.53174 90.063 6.61459ZM105.943 7.7754C106.24 7.92993 106.553 8.05628 106.638 8.05628C106.723 8.05628 106.549 7.92993 106.252 7.7754C105.954 7.62087 105.641 7.49411 105.556 7.49411C105.471 7.49411 105.645 7.62087 105.943 7.7754ZM93.7857 8.23235C94.1127 8.39599 94.4157 8.49583 94.4594 8.4544C94.5349 8.38273 93.4932 7.9146 93.2888 7.92827C93.2351 7.932 93.4591 8.06871 93.7857 8.23235ZM107.643 8.50867C107.94 8.6632 108.253 8.78956 108.338 8.78956C108.423 8.78956 108.249 8.6632 107.952 8.50867C107.654 8.35373 107.341 8.22738 107.256 8.22738C107.171 8.22738 107.345 8.35373 107.643 8.50867ZM94.7258 8.63752C94.7716 8.70836 94.9672 8.80406 95.1597 8.85004C95.4977 8.93083 95.4994 8.92627 95.21 8.7212C94.8777 8.48548 94.5948 8.43659 94.7258 8.63752ZM96.4024 9.33102C96.5893 9.50792 100.122 11.0006 100.194 10.9326C100.234 10.8945 100.101 10.8017 99.8976 10.7267C99.6945 10.6513 98.8475 10.2868 98.0157 9.91598C96.5665 9.27012 96.1972 9.13631 96.4024 9.33102ZM110.27 9.59243C110.27 9.66576 112.271 10.5643 112.412 10.5552C112.537 10.5469 111.44 9.99511 110.773 9.73038C110.496 9.6206 110.27 9.55887 110.27 9.59243ZM113.207 10.9281C113.589 11.1224 113.972 11.2814 114.057 11.2814C114.142 11.2814 113.898 11.1224 113.516 10.9281C113.133 10.7338 112.751 10.5747 112.666 10.5747C112.581 10.5747 112.824 10.7338 113.207 10.9281ZM100.573 11.1605C101.003 11.3983 101.924 11.7454 101.924 11.67C101.924 11.5955 100.553 10.9989 100.397 11.0059C100.345 11.0084 100.424 11.078 100.573 11.1605ZM114.289 11.3614C114.289 11.436 115.666 12.0317 115.815 12.0213C115.937 12.0131 114.561 11.3104 114.404 11.3013C114.341 11.2976 114.289 11.3245 114.289 11.3614ZM102.697 12.1013C103.079 12.2956 103.462 12.4547 103.547 12.4547C103.632 12.4547 103.388 12.2956 103.006 12.1013C102.623 11.907 102.241 11.7479 102.156 11.7479C102.071 11.7479 102.314 11.907 102.697 12.1013ZM116.607 12.3946C116.99 12.5889 117.372 12.748 117.457 12.748C117.542 12.748 117.299 12.5889 116.916 12.3946C116.533 12.2003 116.151 12.0412 116.066 12.0412C115.981 12.0412 116.224 12.2003 116.607 12.3946ZM106.292 13.6536C106.722 13.8914 107.643 14.2386 107.643 14.1632C107.643 14.0882 106.272 13.4916 106.116 13.4991C106.063 13.5016 106.142 13.5712 106.292 13.6536ZM120.471 14.0811C120.769 14.2357 121.081 14.362 121.166 14.362C121.252 14.362 121.078 14.2357 120.78 14.0811C120.483 13.9266 120.17 13.8003 120.084 13.8003C119.999 13.8003 120.173 13.9266 120.471 14.0811ZM108.261 14.5211C108.558 14.6756 108.871 14.802 108.956 14.802C109.041 14.802 108.868 14.6756 108.57 14.5211C108.272 14.3666 107.959 14.2398 107.875 14.2398C107.79 14.2398 107.963 14.3666 108.261 14.5211ZM123.871 15.5477C124.169 15.7022 124.482 15.8286 124.567 15.8286C124.652 15.8286 124.478 15.7022 124.18 15.5477C123.883 15.3932 123.57 15.2664 123.485 15.2664C123.4 15.2664 123.573 15.3932 123.871 15.5477ZM127.889 17.3071C128.187 17.4621 128.5 17.5884 128.585 17.5884C128.67 17.5884 128.496 17.4621 128.199 17.3071C127.901 17.1526 127.588 17.0263 127.503 17.0263C127.418 17.0263 127.592 17.1526 127.889 17.3071ZM115.72 17.7599C116.15 17.9973 117.071 18.3449 117.071 18.2695C117.071 18.1945 115.7 17.598 115.544 17.605C115.491 17.6075 115.57 17.6771 115.72 17.7599ZM129.59 18.0404C129.887 18.1949 130.2 18.3217 130.285 18.3217C130.37 18.3217 130.196 18.1949 129.899 18.0404C129.601 17.8859 129.288 17.7595 129.203 17.7595C129.118 17.7595 129.292 17.8859 129.59 18.0404ZM117.42 18.4932C117.85 18.7306 118.771 19.0782 118.771 19.0028C118.771 18.9278 117.4 18.3312 117.244 18.3383C117.191 18.3408 117.27 18.4104 117.42 18.4932ZM74.838 19.2389C73.9176 20.176 73.9219 20.2589 74.9153 20.6736C75.3615 20.86 75.9553 21.1115 76.2343 21.2324C76.5137 21.353 76.784 21.4122 76.8355 21.3633C76.8866 21.3149 76.7626 21.213 76.5596 21.1371C74.1835 20.2506 74.121 20.1648 75.1414 19.1822C75.5418 18.7961 75.8025 18.4829 75.7208 18.4858C75.6392 18.4891 75.2418 18.828 74.838 19.2389ZM131.445 18.847C131.657 18.9622 131.9 19.0566 131.985 19.0566C132.07 19.0566 131.966 18.9622 131.754 18.847C131.541 18.7318 131.298 18.6374 131.213 18.6374C131.128 18.6374 131.232 18.7318 131.445 18.847ZM77.1176 21.5601C77.17 21.6409 77.2743 21.7068 77.3494 21.7068C77.4245 21.7068 78.0851 21.9707 78.8178 22.2934C79.5505 22.6161 80.1788 22.88 80.2141 22.88C80.2735 22.88 81.689 23.4807 82.8806 24.0118C83.1596 24.1361 83.4202 24.2078 83.4591 24.1709C83.5377 24.0963 82.8343 23.7807 79.45 22.3725C76.9652 21.3385 76.9757 21.3418 77.1176 21.5601ZM138.012 21.8538C138.745 22.6663 138.755 22.6754 138.587 22.3667C138.499 22.2052 138.23 21.9085 137.989 21.7072L137.549 21.3414L138.012 21.8538ZM138.89 23.7111C138.875 24.0475 138.823 24.4431 138.774 24.591C138.691 24.8433 138.696 24.8441 138.86 24.6013C138.957 24.4588 139.009 24.0632 138.976 23.7214L138.917 23.1L138.89 23.7111ZM68.865 24.0657C68.6615 24.1427 68.5301 24.2397 68.5733 24.2803C68.6161 24.3213 68.8348 24.2886 69.0593 24.2074C69.5133 24.0437 69.612 24.0707 71.3716 24.8425C72.0366 25.1341 72.6086 25.3727 72.6422 25.3727C72.6758 25.3727 73.071 25.5314 73.5198 25.7249C76.8093 27.1434 77.8673 27.5705 77.9341 27.5071C77.976 27.4669 77.8446 27.3737 77.6415 27.3C77.4385 27.2258 76.8202 26.969 76.2675 26.7287C74.9292 26.1466 73.9498 25.7303 73.0604 25.3645C72.6565 25.1987 72.0479 24.9386 71.7082 24.7865C69.6417 23.8619 69.4976 23.8254 68.865 24.0657ZM130.904 24.3714C131.244 24.5392 131.551 24.7016 131.587 24.7318C131.623 24.7625 131.483 24.9688 131.278 25.19L130.904 25.5927L131.328 25.2373C131.562 25.0417 131.754 24.8288 131.754 24.7637C131.754 24.6407 130.621 24.0483 130.408 24.0595C130.34 24.0632 130.563 24.2032 130.904 24.3714ZM83.7512 24.3275C83.8106 24.4187 83.9206 24.4932 83.9953 24.4932C84.0704 24.4932 84.731 24.7571 85.4636 25.0798C86.1963 25.4021 86.8242 25.666 86.8591 25.666C86.9224 25.666 87.6428 25.9722 89.8526 26.9371C90.4813 27.2113 91.0568 27.4168 91.1315 27.3932C91.2061 27.3696 89.6251 26.6578 87.618 25.8119C83.3844 24.0267 83.6124 24.1142 83.7512 24.3275ZM67.6896 24.5529C67.4346 24.6627 66.9477 24.8677 66.6076 25.0086C66.2679 25.1494 65.7155 25.3881 65.3806 25.5389C65.0462 25.6897 64.6812 25.8127 64.5694 25.8127C64.4581 25.8127 64.3669 25.879 64.3669 25.9594C64.3669 26.1665 64.1699 26.2369 67.883 24.6975C68.1589 24.5827 68.3851 24.4572 68.3851 24.4178C68.3851 24.3014 68.1816 24.3408 67.6896 24.5529ZM137.694 26.1429L137.24 26.6193L137.743 26.1889C138.019 25.9519 138.245 25.7373 138.245 25.712C138.245 25.5989 138.117 25.6988 137.694 26.1429ZM130.276 26.2895L129.822 26.766L130.324 26.3355C130.6 26.0986 130.826 25.884 130.826 25.8587C130.826 25.7456 130.699 25.845 130.276 26.2895ZM91.414 27.4914C91.414 27.602 93.4578 28.4686 93.5386 28.3924C93.5787 28.3543 93.3604 28.2201 93.0539 28.0946C92.747 27.9686 92.2527 27.766 91.9549 27.6438C91.6576 27.522 91.414 27.4532 91.414 27.4914ZM78.8951 27.9889C79.3627 28.2085 80.1277 28.542 80.5953 28.7301C81.0625 28.9181 81.7235 29.1903 82.0637 29.3353C84.0224 30.1688 84.514 30.3557 84.5817 30.2915C84.6227 30.2525 84.4882 30.1597 84.2826 30.0856C84.0765 30.0114 83.563 29.803 83.1404 29.6224C82.1388 29.1945 81.3157 28.8461 80.3634 28.4479C79.9382 28.2698 79.3169 28.0005 78.982 27.8485C78.6471 27.6968 78.2995 27.5767 78.2091 27.5813C78.1188 27.5858 78.4274 27.7693 78.8951 27.9889ZM128.421 28.3427L127.967 28.8191L128.469 28.3883C128.745 28.1517 128.971 27.9371 128.971 27.9119C128.971 27.7983 128.844 27.8982 128.421 28.3427ZM135.366 28.7031C134.951 29.1638 134.693 29.4936 134.792 29.436C135.008 29.31 136.295 27.8659 136.191 27.8659C136.151 27.8659 135.78 28.2429 135.366 28.7031ZM94.1097 28.6799C94.4419 28.9152 94.7249 28.9641 94.5939 28.7636C94.548 28.6928 94.3524 28.5971 94.1599 28.5507C93.8219 28.4699 93.8202 28.4744 94.1097 28.6799ZM95.3313 29.2027C95.6579 29.3664 95.9614 29.4662 96.0051 29.4248C96.0802 29.3535 95.0384 28.8854 94.834 28.8991C94.7808 28.9024 95.0043 29.0391 95.3313 29.2027ZM96.2906 29.6092C96.3714 29.6808 96.6111 29.7827 96.8237 29.8354L97.2101 29.9311L96.8237 29.7102C96.3932 29.4642 96.0544 29.3999 96.2906 29.6092ZM134.006 30.1983L133.553 30.7256L134.075 30.2538C134.362 29.994 134.566 29.7571 134.527 29.7264C134.49 29.6962 134.255 29.9087 134.006 30.1983ZM126.566 30.3955L126.112 30.8723L126.615 30.4414C126.891 30.2045 127.117 29.9903 127.117 29.965C127.117 29.8515 126.989 29.9513 126.566 30.3955ZM98.0602 30.2712C98.0602 30.3905 100.102 31.2567 100.189 31.1743C100.232 31.1337 100.067 31.0285 99.8225 30.9402C99.4225 30.7961 98.4733 30.3992 98.1759 30.2521C98.1122 30.2206 98.0602 30.2293 98.0602 30.2712ZM85.5409 30.7745C86.2959 31.1287 87.3315 31.5712 88.9025 32.2112C89.6928 32.5331 89.4889 32.309 88.6707 31.9565C88.2668 31.7825 87.5053 31.4531 86.9783 31.2244C84.9135 30.3292 83.9433 30.0255 85.5409 30.7745ZM124.571 32.5708C123.832 33.3841 123.25 34.0718 123.279 34.0991C123.308 34.126 123.943 33.4607 124.691 32.6205C125.439 31.78 126.02 31.0923 125.983 31.0923C125.946 31.0923 125.31 31.7576 124.571 32.5708ZM101.443 31.7688C102.071 32.0468 102.61 32.2502 102.641 32.2208C102.709 32.1557 100.602 31.2335 100.425 31.2509C100.357 31.2576 100.815 31.4904 101.443 31.7688ZM132.13 32.302L131.676 32.7788L132.178 32.348C132.455 32.111 132.681 31.8964 132.681 31.8711C132.681 31.758 132.554 31.8579 132.13 32.302ZM89.5596 32.447C89.602 32.4863 90.2281 32.7664 90.9507 33.0696C91.6729 33.3725 92.5077 33.7225 92.805 33.8476C93.1028 33.9723 93.3984 34.1004 93.4622 34.1318C93.5259 34.1633 93.5779 34.1538 93.5779 34.1107C93.5779 34.0676 93.2478 33.8899 92.8439 33.7159C92.44 33.5419 91.6925 33.2196 91.1821 32.9992C90.2543 32.5986 89.4142 32.3127 89.5596 32.447ZM104.018 32.8298C104.203 32.9864 105.479 33.4591 105.479 33.3708C105.479 33.3029 104.115 32.7055 103.96 32.7055C103.911 32.7055 103.938 32.7614 104.018 32.8298ZM131.203 33.3286L130.749 33.805L131.251 33.3745C131.527 33.1376 131.754 32.923 131.754 32.8977C131.754 32.7846 131.626 32.8844 131.203 33.3286ZM130.276 34.3551L129.822 34.8316L130.324 34.4011C130.6 34.1642 130.826 33.9496 130.826 33.9243C130.826 33.8112 130.699 33.911 130.276 34.3551ZM95.1772 34.8485C95.5894 35.052 95.9614 35.1854 96.0037 35.1452C96.0841 35.0689 94.7712 34.4599 94.5524 34.472C94.4839 34.4757 94.765 34.6451 95.1772 34.8485ZM122.001 35.455C121.121 36.3495 119.666 37.9846 119.751 37.9846C119.794 37.9846 120.463 37.2915 121.237 36.4448C122.648 34.8995 123.013 34.4281 122.001 35.455ZM96.9783 35.5561C96.9783 35.6311 98.3493 36.2277 98.5047 36.2202C98.6453 36.214 98.1393 35.948 97.5175 35.7015C97.2211 35.5839 96.9783 35.5184 96.9783 35.5561ZM111.197 35.8693C111.197 35.9683 112 36.2451 112.077 36.1726C112.112 36.1394 111.928 36.0421 111.669 35.9563C111.41 35.8702 111.197 35.8312 111.197 35.8693ZM128.421 36.4083L127.967 36.8847L128.469 36.4539C128.745 36.2173 128.971 36.0027 128.971 35.9775C128.971 35.8639 128.844 35.9638 128.421 36.4083ZM98.6785 36.2915C98.6785 36.3934 100.108 36.9705 100.184 36.8988C100.22 36.8644 99.922 36.6983 99.5216 36.5305C98.7497 36.2066 98.6785 36.1862 98.6785 36.2915ZM127.339 37.5811L126.885 38.058L127.387 37.6271C127.664 37.3901 127.889 37.176 127.889 37.1507C127.889 37.0372 127.762 37.137 127.339 37.5811ZM101.924 37.6913C102.222 37.8459 102.534 37.9722 102.619 37.9722C102.705 37.9722 102.531 37.8459 102.233 37.6913C101.936 37.5368 101.623 37.4104 101.538 37.4104C101.453 37.4104 101.627 37.5368 101.924 37.6913ZM102.851 38.0509C102.851 38.1528 104.281 38.7299 104.356 38.6587C104.393 38.6239 104.095 38.4582 103.694 38.29C102.923 37.966 102.851 37.9461 102.851 38.0509ZM119.207 38.517C118.836 38.8695 118.756 38.8882 118.287 38.7332C118.004 38.6396 117.841 38.6264 117.924 38.7034C118.325 39.0758 118.851 39.0282 119.304 38.5783C119.857 38.0319 119.774 37.9797 119.207 38.517ZM125.563 39.561L125.03 40.1111L125.61 39.6057C126.15 39.1351 126.26 39.0112 126.143 39.0112C126.117 39.0112 125.856 39.2585 125.563 39.561ZM107.219 39.9036C107.649 40.141 108.57 40.4885 108.57 40.4131C108.57 40.3382 107.199 39.7416 107.043 39.7486C106.991 39.7511 107.07 39.8207 107.219 39.9036ZM124.116 41.1423C123.625 41.6692 123.259 42.1875 123.302 42.294C123.394 42.5222 126.323 45.7569 126.437 45.7569C126.481 45.7569 125.907 45.0804 125.163 44.2539C124.419 43.427 123.71 42.6366 123.587 42.497C123.332 42.2053 123.359 42.1568 124.465 40.9293C124.834 40.5196 125.107 40.1845 125.072 40.1845C125.037 40.1845 124.607 40.6153 124.116 41.1423ZM111.78 41.8453C112.299 42.103 112.4 42.2111 112.251 42.352C112.13 42.4667 112.123 42.5305 112.23 42.5305C112.838 42.5305 112.722 42.0955 112.037 41.8084C111.088 41.4099 110.945 41.4306 111.78 41.8453ZM111.197 42.8238C110.9 42.9784 110.726 43.1051 110.811 43.1051C110.896 43.1051 111.209 42.9784 111.507 42.8238C111.804 42.6693 111.978 42.5429 111.893 42.5429C111.808 42.5429 111.495 42.6693 111.197 42.8238ZM108.647 43.9142C108.222 44.1085 107.918 44.2726 107.971 44.2788C108.113 44.2958 109.497 43.7017 109.497 43.6238C109.497 43.5264 109.489 43.5293 108.647 43.9142ZM104.474 45.6741C104.049 45.8684 103.745 46.0324 103.798 46.0386C103.939 46.0556 105.324 45.4611 105.324 45.3832C105.324 45.2863 105.317 45.2892 104.474 45.6741ZM21.9406 46.1965C22.5357 46.4562 23.3356 46.7872 23.7181 46.9322C24.1005 47.0772 24.9699 47.4385 25.6501 47.7355C26.3304 48.0326 27.0953 48.3619 27.3503 48.4676C28.1782 48.8093 29.3352 49.3036 30.4914 49.8086C31.114 50.0803 31.6506 50.3028 31.6847 50.3028C31.7183 50.3028 32.113 50.4623 32.5619 50.6566C33.0107 50.8513 34.0385 51.2863 34.8463 51.6231C36.3147 52.2358 36.8578 52.4674 38.6755 53.2554C39.209 53.4865 39.6732 53.6759 39.7072 53.6759C39.7417 53.6759 40.2788 53.8983 40.9014 54.1701C43.0871 55.1242 43.8202 55.4357 43.8813 55.4357C43.915 55.4357 44.452 55.6578 45.0742 55.9296C45.6968 56.2013 46.7277 56.6392 47.3652 56.9027C48.0031 57.1666 48.8724 57.532 49.2972 57.7151C49.7225 57.8982 51.1136 58.4898 52.3885 59.03C53.6635 59.5702 54.9851 60.1312 55.3253 60.277C55.6649 60.4228 56.6041 60.818 57.4114 61.1549C58.2192 61.4921 59.1579 61.8881 59.4981 62.0348C59.8382 62.1819 60.7424 62.5655 61.5074 62.8878C65.2336 64.4579 64.9812 64.119 63.5106 65.5802C62.9972 66.0902 61.1577 67.9594 59.4234 69.7337C57.6891 71.5081 55.0279 74.2266 53.5098 75.7748L50.7499 78.589L50.101 78.3205C49.7439 78.1726 48.6174 77.6908 47.597 77.25C46.5771 76.8092 45.3947 76.2984 44.9698 76.1153C44.5446 75.9322 43.6753 75.5523 43.0378 75.271C42.4003 74.9901 41.6004 74.643 41.2603 74.5C40.9202 74.3567 40.1207 74.0099 39.4828 73.729C38.8453 73.4482 37.9411 73.0517 37.4739 72.8483C37.0063 72.6449 36.0108 72.2074 35.262 71.876C34.5131 71.5446 33.8779 71.2736 33.8499 71.2736C33.8224 71.2736 33.1483 70.9853 32.3523 70.6331C31.5563 70.281 29.8238 69.5266 28.5026 68.957C27.1814 68.3869 25.4772 67.6454 24.7162 67.309C23.9547 66.973 22.671 66.415 21.8633 66.0694C21.056 65.7239 19.1086 64.8821 17.5359 64.199C15.9632 63.5154 13.9809 62.6562 13.1308 62.2892C12.2811 61.9225 10.9944 61.3632 10.2718 61.0467C9.54918 60.7302 8.59297 60.3164 8.14631 60.127C7.70008 59.9377 7.33506 59.7372 7.33506 59.6813C7.33506 59.5802 18.4118 47.274 19.5666 46.0917C20.2438 45.3982 20.0976 45.3919 21.9406 46.1965ZM118.247 45.5838C118.204 45.6496 118.374 45.6753 118.624 45.6405C118.875 45.6057 119.08 45.5514 119.08 45.5204C119.08 45.4085 118.323 45.4661 118.247 45.5838ZM119.467 46.1961C119.722 46.4782 119.947 46.7367 119.969 46.7707C119.99 46.8046 120.041 46.8005 120.082 46.7611C120.123 46.7222 119.898 46.4637 119.58 46.1869L119.003 45.6836L119.467 46.1961ZM128.117 47.6999C128.617 48.2443 129.055 48.69 129.091 48.69C129.193 48.69 127.961 47.3266 127.566 47.0035C127.369 46.8419 127.617 47.1555 128.117 47.6999ZM120.749 47.6266C121.087 48.0098 121.525 48.4551 121.722 48.6167C121.919 48.7778 121.671 48.4642 121.171 47.9199C120.136 46.7935 119.816 46.571 120.749 47.6266ZM100.301 47.4335C99.8762 47.6278 99.5718 47.7919 99.6247 47.7985C99.7666 47.8155 101.151 47.221 101.151 47.1431C101.151 47.0462 101.143 47.0486 100.301 47.4335ZM97.983 48.3835C97.6428 48.5314 96.9285 48.8354 96.3954 49.0592C95.8623 49.2829 95.4519 49.49 95.4828 49.5198C95.568 49.6002 98.6785 48.2894 98.6785 48.173C98.6785 48.0794 98.6864 48.0769 97.983 48.3835ZM110.193 48.9784C110.023 49.0459 109.683 49.1756 109.437 49.2663C109.192 49.357 109.024 49.4631 109.066 49.5024C109.147 49.5795 110.579 49.0123 110.579 48.903C110.579 48.8234 110.583 48.823 110.193 48.9784ZM129.59 49.35C129.878 49.6321 130.149 49.8633 130.191 49.8633C130.234 49.8633 130.033 49.6321 129.744 49.35C129.456 49.0674 129.185 48.8367 129.143 48.8367C129.1 48.8367 129.302 49.0674 129.59 49.35ZM94.5053 49.8633C94.2079 50.0178 94.0079 50.1466 94.0612 50.1504C94.2215 50.1603 95.2781 49.7183 95.2781 49.6412C95.2781 49.5132 95.0558 49.577 94.5053 49.8633ZM123.539 50.7146C123.994 51.2146 124.446 51.6699 124.544 51.7259C124.641 51.7822 124.349 51.4185 123.894 50.918C123.439 50.4176 122.987 49.9627 122.889 49.9063C122.792 49.8504 123.084 50.2142 123.539 50.7146ZM93.2687 50.3877L92.8823 50.6085L93.2687 50.5124C93.4814 50.4598 93.7215 50.3579 93.8018 50.2867C94.0381 50.077 93.6997 50.1417 93.2687 50.3877ZM91.1821 51.2544C90.4171 51.6061 89.846 51.899 89.9133 51.9048C90.067 51.9189 92.5221 50.8799 92.7203 50.7171C93.0338 50.459 92.5273 50.6359 91.1821 51.2544ZM131.445 51.4027C131.733 51.6853 132.003 51.916 132.046 51.916C132.089 51.916 131.887 51.6853 131.599 51.4027C131.31 51.1206 131.04 50.8894 130.997 50.8894C130.955 50.8894 131.156 51.1206 131.445 51.4027ZM103.818 51.6326C103.456 51.793 103.16 51.9537 103.16 51.9889C103.16 52.0697 103.525 51.9384 104.234 51.602C104.988 51.2441 104.631 51.2702 103.818 51.6326ZM87.473 52.8051C86.3679 53.2807 85.1266 53.808 84.7144 53.9766C84.3027 54.1448 83.9975 54.3134 84.0363 54.3503C84.0756 54.3876 84.6389 54.185 85.2886 53.9C85.9383 53.6154 86.5002 53.3826 86.5373 53.3826C86.5744 53.3826 87.204 53.1187 87.9367 52.7959C88.6693 52.4732 89.3299 52.2093 89.4051 52.2093C89.4797 52.2093 89.5841 52.1435 89.6369 52.0627C89.7919 51.8245 89.5819 51.8965 87.473 52.8051ZM101.172 52.7421C100.886 52.8606 100.688 52.9919 100.732 53.0342C100.776 53.076 101.08 52.9766 101.407 52.8129C102.092 52.4703 101.94 52.4243 101.172 52.7421ZM125.881 53.3092C126.169 53.5918 126.439 53.8225 126.482 53.8225C126.525 53.8225 126.323 53.5918 126.035 53.3092C125.747 53.0271 125.476 52.7959 125.433 52.7959C125.391 52.7959 125.592 53.0271 125.881 53.3092ZM133.744 53.9476C134.089 54.3387 134.494 54.7513 134.644 54.864C134.793 54.9767 134.542 54.6565 134.084 54.1523C133.627 53.6485 133.222 53.2359 133.184 53.2359C133.146 53.2359 133.398 53.5561 133.744 53.9476ZM97.1577 54.4328C96.7888 54.5935 96.5172 54.7538 96.5539 54.7886C96.6303 54.8611 98.0602 54.2853 98.0602 54.1821C98.0602 54.0715 97.859 54.127 97.1577 54.4328ZM81.3681 55.3769C80.1355 55.8964 78.9174 56.4151 78.661 56.529C78.4048 56.6434 77.9952 56.8087 77.7507 56.8969C77.5066 56.9847 77.3403 57.0891 77.3817 57.1281C77.466 57.208 78.2179 56.9338 79.5906 56.3223C80.8062 55.7808 81.717 55.3972 82.7588 54.9883C83.5931 54.6606 84.0555 54.3975 83.756 54.4203C83.6752 54.4265 82.6007 54.857 81.3681 55.3769ZM95.7418 55.0691C95.5291 55.1843 95.4248 55.2787 95.5099 55.2787C95.5951 55.2787 95.8383 55.1843 96.0509 55.0691C96.2635 54.9539 96.3679 54.8595 96.2827 54.8595C96.1976 54.8595 95.9544 54.9539 95.7418 55.0691ZM127.426 54.944C127.426 55.0227 127.652 55.2812 127.928 55.5182L128.43 55.949L127.967 55.4366C127.712 55.1544 127.486 54.8959 127.465 54.8619C127.443 54.828 127.426 54.8648 127.426 54.944ZM134.844 55.1884C134.844 55.2137 135.071 55.4279 135.347 55.6648L135.849 56.0957L135.395 55.6188C134.972 55.1747 134.844 55.0749 134.844 55.1884ZM93.7324 55.8782C91.7104 56.7498 91.0782 57.0162 90.4316 57.271C90.1037 57.4002 89.8679 57.537 89.908 57.5751C89.9482 57.6128 90.4944 57.4239 91.1223 57.1546C91.7506 56.8853 92.5771 56.5377 92.9596 56.3824C94.0459 55.9407 95.3715 55.3056 95.2008 55.309C95.1157 55.3106 94.455 55.5666 93.7324 55.8782ZM128.817 56.5356C129.105 56.8178 129.376 57.0489 129.419 57.0489C129.461 57.0489 129.26 56.8178 128.971 56.5356C128.683 56.2531 128.413 56.0224 128.37 56.0224C128.327 56.0224 128.529 56.2531 128.817 56.5356ZM136.546 57.0493C136.987 57.5336 137.429 57.9761 137.527 58.0324C137.624 58.0892 137.296 57.6927 136.797 57.1521C136.297 56.6115 135.856 56.169 135.815 56.169C135.775 56.169 136.103 56.565 136.546 57.0493ZM73.8302 58.5461C72.1073 59.279 70.7337 59.9124 70.7778 59.9547C70.8223 59.9965 71.0149 59.9592 71.2061 59.8718C71.634 59.6759 73.2962 58.9687 73.7171 58.8034C73.8874 58.7367 74.6363 58.4136 75.382 58.0855C76.1273 57.7573 76.8015 57.4889 76.8796 57.4889C76.9582 57.4889 77.0652 57.4226 77.1176 57.3422C77.28 57.0928 77.0569 57.1745 73.8302 58.5461ZM89.1121 57.7946C88.9086 57.8717 88.7807 57.9715 88.8278 58.0167C88.875 58.0614 89.1112 57.9968 89.3527 57.8725C89.8382 57.6231 89.6902 57.5751 89.1121 57.7946ZM87.9367 58.3017C87.6817 58.4156 87.0211 58.6998 86.4683 58.9322C85.916 59.1651 85.0615 59.5296 84.5703 59.7422C84.0791 59.9547 83.6486 60.1283 83.6136 60.1283C83.5787 60.1283 82.9504 60.3922 82.2182 60.7149C81.4855 61.0376 80.8572 61.3015 80.8223 61.3015C80.7869 61.3015 80.3211 61.4908 79.7875 61.7216C79.254 61.9528 78.4157 62.3157 77.9245 62.5282C77.4333 62.7407 77.004 62.9147 76.9699 62.9147C76.9053 62.9147 75.0562 63.6931 74.4515 63.9753C73.8555 64.2533 73.7923 64.1687 76.9464 67.3193C77.6354 68.0079 78.7877 69.1765 79.5068 69.9164C80.2259 70.6559 80.8433 71.2339 80.8791 71.1999C80.9145 71.1659 80.535 70.7259 80.0355 70.2218C75.0388 65.1804 74.242 64.3373 74.3708 64.2267C74.4363 64.1704 75.0467 63.8916 75.7265 63.6074C80.1085 61.7746 86.674 59.0172 87.3616 58.7206C87.8105 58.5271 88.241 58.3684 88.3183 58.3684C88.396 58.3684 88.5021 58.3025 88.5549 58.2222C88.682 58.0266 88.4977 58.0502 87.9367 58.3017ZM130.208 58.1211C130.208 58.1464 130.434 58.361 130.71 58.5979L131.213 59.0284L130.759 58.5519C130.335 58.1078 130.208 58.008 130.208 58.1211ZM65.912 59.0661C65.912 59.1746 66.3294 59.3743 67.1966 59.6809C67.4354 59.7654 68.0244 60.0052 68.5056 60.214C69.3701 60.5894 70.549 60.5264 70.549 60.1051C70.549 59.9327 70.4451 59.9493 69.9264 60.2037C69.4911 60.4174 69.409 60.398 67.7568 59.6904C65.9077 58.8991 65.912 58.9004 65.912 59.0661ZM138.907 60.6416C138.909 61.0451 138.939 61.1926 138.974 60.9697C139.009 60.7468 139.009 60.4166 138.972 60.2364C138.935 60.0562 138.906 60.2385 138.907 60.6416ZM124.335 62.9147C124.037 63.0692 123.863 63.1956 123.949 63.1956C124.033 63.1956 124.346 63.0692 124.644 62.9147C124.941 62.7602 125.115 62.6338 125.03 62.6338C124.945 62.6338 124.632 62.7602 124.335 62.9147ZM122.867 63.5647C122.441 63.759 122.137 63.9235 122.19 63.9297C122.332 63.9467 123.717 63.3522 123.717 63.2743C123.717 63.1774 123.709 63.1798 122.867 63.5647ZM120.78 64.4546C120.567 64.5698 120.463 64.6642 120.548 64.6642C120.633 64.6642 120.876 64.5698 121.089 64.4546C121.302 64.3394 121.406 64.245 121.321 64.245C121.236 64.245 120.993 64.3394 120.78 64.4546ZM133.145 64.8945C132.932 65.0097 132.828 65.1042 132.913 65.1042C132.998 65.1042 133.241 65.0097 133.454 64.8945C133.666 64.779 133.77 64.6849 133.686 64.6849C133.601 64.6849 133.357 64.779 133.145 64.8945ZM118.771 65.3345C118.388 65.5288 118.145 65.6879 118.23 65.6879C118.315 65.6879 118.697 65.5288 119.08 65.3345C119.462 65.1402 119.706 64.9811 119.621 64.9811C119.536 64.9811 119.153 65.1402 118.771 65.3345ZM116.453 66.3611C116.07 66.5554 115.826 66.7141 115.912 66.7141C115.996 66.7141 116.379 66.5554 116.762 66.3611C117.144 66.1664 117.387 66.0077 117.302 66.0077C117.218 66.0077 116.835 66.1664 116.453 66.3611ZM124.335 68.7072C124.122 68.8223 124.018 68.9168 124.103 68.9168C124.188 68.9168 124.431 68.8223 124.644 68.7072C124.856 68.592 124.961 68.4975 124.876 68.4975C124.791 68.4975 124.547 68.592 124.335 68.7072ZM122.67 69.4011C122.144 69.6414 122.161 69.0871 122.206 85.5716L122.25 100.97L122.326 69.8029L122.828 69.5121C123.361 69.2039 123.259 69.1318 122.67 69.4011ZM72.085 70.3572C72.0213 73.014 72.0802 117.356 72.147 117.42C72.1972 117.467 72.4894 117.393 72.7972 117.254C73.1046 117.116 73.3216 116.97 73.2797 116.93C73.2373 116.89 73.0565 116.932 72.8775 117.022C72.6981 117.114 72.4837 117.148 72.4003 117.099C72.2021 116.983 72.1916 70.3937 72.3898 70.3937C72.4671 70.3937 73.4185 71.301 74.5044 72.41C75.5903 73.519 77.0049 74.9549 77.6481 75.6008C78.2912 76.247 80.3303 78.3255 82.1794 80.2204C85.8994 84.0326 86.2766 84.3383 87.3555 84.4096L88.0913 84.4581L87.473 84.34C86.2085 84.0985 85.926 83.8557 80.9817 78.7671C80.4717 78.2422 79.8456 77.6117 79.5906 77.366C79.3351 77.1203 78.8191 76.5897 78.4431 76.1861C78.0672 75.7831 77.1979 74.8882 76.5115 74.198C75.8247 73.5074 74.6139 72.27 73.8206 71.448C72.271 69.8431 72.0999 69.7354 72.085 70.3572ZM66.6469 93.7151C66.6683 106.488 66.6268 116.995 66.5543 117.063C66.4386 117.173 65.3545 116.769 62.7439 115.642C62.3187 115.458 61.4493 115.092 60.8119 114.829C60.1744 114.565 59.1435 114.127 58.5209 113.855C57.8983 113.584 57.3612 113.361 57.3276 113.361C57.294 113.361 56.8988 113.202 56.45 113.008C56.0016 112.813 54.9733 112.378 54.166 112.041C53.3583 111.704 52.4195 111.309 52.0794 111.163C51.7393 111.016 50.2438 110.389 48.7562 109.768C45.6807 108.484 42.2658 107.046 41.0634 106.528C40.615 106.334 39.85 106.017 39.3632 105.823C38.8768 105.628 37.8655 105.199 37.1167 104.869C36.3679 104.539 35.7265 104.269 35.6916 104.269C35.6567 104.269 35.2262 104.095 34.7349 103.882C34.2437 103.668 33.3198 103.281 32.6824 103.021C32.0449 102.761 31.2101 102.414 30.8276 102.249C28.6991 101.331 27.5429 100.844 24.9969 99.7897L22.1803 98.6235L22.1763 85.4863C22.1742 78.2608 22.2113 72.3122 22.2589 72.2671C22.3436 72.1867 25.2331 73.3931 30.673 75.7797C31.3109 76.0598 32.4933 76.5723 33.3006 76.919C34.1084 77.2657 35.3816 77.8201 36.1304 78.1511C36.8792 78.4821 37.5162 78.7526 37.5459 78.7526C37.5756 78.7526 38.2843 79.0567 39.1208 79.4283C39.9574 79.7999 41.3031 80.3873 42.1104 80.7337C42.9181 81.08 44.1005 81.5925 44.738 81.8721C45.3755 82.1522 46.2099 82.5159 46.5928 82.6808C46.9753 82.8453 47.959 83.2757 48.7794 83.6374C52.027 85.0683 52.1226 85.0273 56.7823 80.2113C57.7533 79.2075 59.04 77.8888 59.6413 77.2807C60.9656 75.9417 63.739 73.089 65.2165 71.5458C65.8117 70.924 66.3683 70.4326 66.453 70.4538C66.5552 70.4786 66.6211 78.3868 66.6469 93.7151ZM106.02 70.8975C105.595 71.0913 105.29 71.2558 105.343 71.262C105.485 71.279 106.87 70.6845 106.87 70.6066C106.87 70.5097 106.862 70.5126 106.02 70.8975ZM104.32 71.6307C103.895 71.8246 103.59 71.9891 103.643 71.9953C103.785 72.0123 105.17 71.4178 105.17 71.3399C105.17 71.243 105.162 71.2454 104.32 71.6307ZM81.6855 72.0802C82.7474 73.2555 84.614 75.1074 84.61 74.9818C84.6079 74.9184 83.8001 74.0746 82.8147 73.1068C81.8292 72.1386 81.3214 71.6767 81.6855 72.0802ZM102.264 72.4754C101.728 72.7199 101.318 72.9473 101.354 72.9813C101.428 73.0513 103.47 72.1763 103.47 72.074C103.47 71.9522 103.249 72.0255 102.264 72.4754ZM115.68 72.4469C115.382 72.6014 115.208 72.7277 115.293 72.7277C115.378 72.7277 115.691 72.6014 115.989 72.4469C116.286 72.2923 116.46 72.1656 116.375 72.1656C116.29 72.1656 115.977 72.2923 115.68 72.4469ZM114.134 73.1068C113.752 73.3011 113.508 73.4602 113.593 73.4602C113.678 73.4602 114.061 73.3011 114.443 73.1068C114.826 72.9125 115.069 72.7534 114.984 72.7534C114.899 72.7534 114.517 72.9125 114.134 73.1068ZM100.224 73.4001C99.8412 73.5944 99.5718 73.7564 99.6247 73.7601C99.774 73.7701 101.151 73.1747 101.151 73.0998C101.151 72.9726 100.915 73.0488 100.224 73.4001ZM97.1695 74.7072C95.8343 75.2921 95.1283 75.6753 95.8239 75.438C96.4888 75.2109 98.6785 74.2154 98.6785 74.14C98.6785 74.0373 98.8187 73.9847 97.1695 74.7072ZM110.27 74.7933C109.973 74.9479 109.799 75.0742 109.884 75.0742C109.969 75.0742 110.282 74.9479 110.579 74.7933C110.877 74.6384 111.051 74.512 110.966 74.512C110.881 74.512 110.568 74.6384 110.27 74.7933ZM84.7681 75.1699C84.7681 75.9107 88.5458 78.9477 88.8623 78.4614C88.92 78.3731 88.7877 78.3491 88.5209 78.3996C88.0764 78.4841 87.9114 78.3379 85.0388 75.3157C84.8899 75.1591 84.7681 75.0937 84.7681 75.1699ZM93.8097 76.1845C93.0447 76.5362 92.4885 76.825 92.5732 76.8258C92.6583 76.8266 93.3539 76.5399 94.1188 76.1882C94.8838 75.8365 95.4405 75.5477 95.3554 75.5469C95.2702 75.5457 94.5747 75.8328 93.8097 76.1845ZM90.6765 77.5301C89.8028 77.9029 89.1182 78.2364 89.1549 78.2708C89.1915 78.3056 89.5928 78.173 90.0473 77.9762C90.5014 77.7795 91.2035 77.4762 91.6074 77.3022C92.0113 77.1278 92.3413 76.9542 92.3413 76.9157C92.3413 76.8154 92.4051 76.7918 90.6765 77.5301ZM104.513 77.2732C104.195 77.4145 103.882 77.581 103.818 77.6436C103.69 77.7683 104.697 77.3913 105.13 77.1518C105.567 76.9103 105.144 76.9936 104.513 77.2732ZM101.331 78.6296C100.962 78.7903 100.694 78.9544 100.736 78.9941C100.778 79.0335 101.149 78.8997 101.561 78.6963C102.449 78.2579 102.289 78.212 101.331 78.6296ZM99.6303 79.3628C99.2614 79.5236 98.9937 79.6876 99.0357 79.7274C99.0776 79.7668 99.4491 79.6329 99.8609 79.4295C100.749 78.9912 100.589 78.9452 99.6303 79.3628ZM97.6738 80.222C97.1639 80.4549 96.3412 80.8194 95.8457 81.032C95.3505 81.2449 94.9729 81.445 95.0069 81.4773C95.0689 81.5361 98.6331 80.0178 98.7964 79.8629C98.9876 79.6814 98.5576 79.819 97.6738 80.222ZM94.0031 81.8195C93.6848 81.9604 93.3718 82.1269 93.3076 82.1895C93.1797 82.3146 94.187 81.9372 94.6196 81.6981C95.0571 81.4566 94.6349 81.5395 94.0031 81.8195ZM92.3623 82.5114C92.0759 82.6298 91.8781 82.7612 91.9226 82.8034C91.9667 82.8457 92.2706 82.7463 92.5972 82.5826C93.2823 82.2396 93.1299 82.1936 92.3623 82.5114ZM90.487 83.3238C89.9342 83.5748 89.1693 83.8996 88.7868 84.0458C88.4043 84.1921 88.2301 84.3106 88.4004 84.3097C88.7156 84.3081 91.927 82.8884 91.6458 82.8747C91.5611 82.8709 91.0393 83.0727 90.487 83.3238ZM112.82 100.242C112.432 100.419 112.419 100.439 112.743 100.365C112.956 100.317 113.195 100.218 113.276 100.147C113.477 99.9691 113.367 99.9919 112.82 100.242ZM110.038 101.4C109.613 101.594 109.309 101.758 109.362 101.765C109.503 101.782 110.888 101.187 110.888 101.11C110.888 101.012 110.88 101.015 110.038 101.4ZM108.286 102.093C107.917 102.254 107.649 102.418 107.691 102.458C107.733 102.497 108.104 102.363 108.516 102.16C109.404 101.721 109.244 101.675 108.286 102.093ZM121.418 102.12C121.323 102.229 120.966 102.437 120.625 102.583C120.284 102.729 120.033 102.876 120.068 102.909C120.166 103.002 121.316 102.414 121.544 102.154C121.655 102.027 121.71 101.923 121.668 101.923C121.625 101.923 121.513 102.012 121.418 102.12ZM118.616 103.463C118.404 103.578 118.299 103.672 118.384 103.672C118.469 103.672 118.713 103.578 118.925 103.463C119.138 103.348 119.242 103.253 119.157 103.253C119.072 103.253 118.829 103.348 118.616 103.463ZM104.204 103.816C103.886 103.958 103.573 104.124 103.508 104.186C103.381 104.312 104.388 103.934 104.82 103.695C105.258 103.454 104.835 103.537 104.204 103.816ZM116.143 104.489C115.931 104.604 115.826 104.699 115.912 104.699C115.996 104.699 116.24 104.604 116.453 104.489C116.665 104.374 116.769 104.28 116.684 104.28C116.599 104.28 116.356 104.374 116.143 104.489ZM101.692 104.92C101.267 105.114 100.963 105.278 101.016 105.284C101.157 105.301 102.542 104.707 102.542 104.629C102.542 104.532 102.534 104.534 101.692 104.92ZM100.031 105.576C99.7124 105.717 99.3994 105.883 99.3356 105.944C99.1811 106.092 100.568 105.58 100.757 105.421C100.989 105.224 100.674 105.291 100.031 105.576ZM113.439 105.653C113.013 105.847 112.709 106.011 112.762 106.018C112.904 106.035 114.289 105.44 114.289 105.362C114.289 105.265 114.281 105.268 113.439 105.653ZM111.97 106.249C111.758 106.364 111.653 106.459 111.738 106.459C111.824 106.459 112.067 106.364 112.279 106.249C112.492 106.134 112.596 106.039 112.511 106.039C112.426 106.039 112.183 106.134 111.97 106.249ZM97.0556 106.844C96.3753 107.128 95.4863 107.499 95.0803 107.668C94.6738 107.837 94.3673 108 94.3996 108.031C94.4581 108.086 95.1667 107.811 96.9503 107.038C97.4874 106.806 97.9878 106.616 98.0616 106.616C98.1358 106.616 98.2393 106.549 98.2921 106.469C98.4226 106.269 98.4462 106.261 97.0556 106.844ZM110.734 106.762C110.436 106.917 110.263 107.043 110.347 107.043C110.432 107.043 110.745 106.917 111.043 106.762C111.341 106.608 111.514 106.481 111.429 106.481C111.344 106.481 111.031 106.608 110.734 106.762ZM107.72 108.014C106.7 108.451 105.528 108.947 105.116 109.116C104.704 109.284 104.395 109.449 104.429 109.481C104.487 109.536 109.641 107.408 109.789 107.268C109.982 107.085 109.403 107.294 107.72 108.014ZM93.2936 108.399C92.9247 108.56 92.6531 108.72 92.6902 108.755C92.7662 108.827 94.1961 108.251 94.1961 108.149C94.1961 108.038 93.9953 108.094 93.2936 108.399ZM90.8734 109.466C90.4481 109.66 90.1438 109.824 90.1967 109.83C90.3386 109.847 91.7231 109.253 91.7231 109.175C91.7231 109.078 91.7152 109.081 90.8734 109.466ZM103.624 109.768C103.411 109.884 103.307 109.978 103.392 109.978C103.477 109.978 103.721 109.884 103.933 109.768C104.146 109.653 104.25 109.559 104.165 109.559C104.08 109.559 103.837 109.653 103.624 109.768ZM89.1204 110.159C88.7519 110.319 88.4803 110.48 88.517 110.515C88.5929 110.587 90.0233 110.011 90.0233 109.908C90.0233 109.797 89.822 109.853 89.1204 110.159ZM101.615 110.578C100.892 110.894 100.032 111.257 99.7024 111.384C99.3727 111.51 99.1352 111.644 99.1741 111.681C99.2374 111.741 102.985 110.204 103.146 110.052C103.329 109.877 102.801 110.059 101.615 110.578ZM87.2411 110.975C87.1136 111.021 86.6613 111.207 86.2365 111.389C83.8713 112.4 75.9125 115.732 75.5588 115.859C75.3301 115.942 75.1873 116.051 75.2419 116.103C75.296 116.155 75.4973 116.125 75.6881 116.036C76.5583 115.633 78.0969 114.975 78.1694 114.975C78.2506 114.975 79.7801 114.318 81.7912 113.421C82.4064 113.146 82.9461 112.922 82.9906 112.922C83.0775 112.922 83.7826 112.624 85.8265 111.728C86.5364 111.416 87.1756 111.162 87.2473 111.162C87.3189 111.162 87.4206 111.096 87.473 111.015C87.5773 110.855 87.5765 110.854 87.2411 110.975ZM98.2353 111.988C97.9493 112.106 97.7515 112.238 97.7956 112.279C97.8402 112.322 98.1436 112.222 98.4707 112.059C99.1557 111.716 99.0033 111.67 98.2353 111.988ZM96.9783 112.555C96.7656 112.67 96.6613 112.764 96.7464 112.764C96.8316 112.764 97.0748 112.67 97.2874 112.555C97.5001 112.44 97.604 112.345 97.5193 112.345C97.4341 112.345 97.1909 112.44 96.9783 112.555ZM95.6121 113.092C95.2431 113.253 94.9716 113.413 95.0087 113.448C95.0847 113.52 96.5146 112.944 96.5146 112.841C96.5146 112.731 96.3133 112.786 95.6121 113.092ZM94.1961 113.665C94.0686 113.742 93.6281 113.941 93.2172 114.108C92.8063 114.276 92.5016 114.442 92.5396 114.478C92.5776 114.514 93.1225 114.316 93.7503 114.038C94.3782 113.76 94.7873 113.53 94.6598 113.529C94.5323 113.527 94.3236 113.588 94.1961 113.665ZM74.1285 116.465C73.7595 116.626 73.4879 116.785 73.5246 116.82C73.6255 116.916 75.031 116.396 75.031 116.263C75.031 116.101 74.8921 116.132 74.1285 116.465Z" fill="url(#paint1_linear)"/>
<defs>
<linearGradient id="paint0_linear" x1="69.5" y1="0" x2="69.5" y2="124" gradientUnits="userSpaceOnUse">
<stop stop-color="#A952ED"/>
<stop offset="1" stop-color="#D65FF2"/>
</linearGradient>
<linearGradient id="paint1_linear" x1="69.5" y1="0" x2="69.5" y2="124" gradientUnits="userSpaceOnUse">
<stop stop-color="#A952ED"/>
<stop offset="1" stop-color="#D65FF2"/>
</linearGradient>
</defs>
</svg>
