<svg width="131" height="120" viewBox="0 0 131 120" fill="none" xmlns="http://www.w3.org/2000/svg">
<mask id="path-1-inside-1" fill="white">
<path fill-rule="evenodd" clip-rule="evenodd" d="M7.51883 46.0946H7.5189L21.9392 1.71278C22.6809 -0.570615 25.9117 -0.571235 26.6535 1.71278L41.0744 46.0946H41.0745L41.0745 46.0947H88.9606L88.9606 46.0946L103.382 1.71278C104.123 -0.571235 107.354 -0.570615 108.096 1.71278L122.516 46.0946H122.516L122.516 46.0948L129.792 68.4881C130.456 70.5305 129.729 72.768 127.991 74.0303L65.0176 119.784V119.783L65.0175 119.783L2.04367 74.0303C0.306189 72.768 -0.420655 70.5305 0.242985 68.4881L7.51883 46.0948V46.0946Z"/>
</mask>
<path d="M7.5189 46.0946V52.0946C10.1183 52.0946 12.422 50.4208 13.2252 47.9487L7.5189 46.0946ZM7.51883 46.0946V40.0946C4.20512 40.0946 1.51883 42.7809 1.51883 46.0946H7.51883ZM21.9392 1.71278L27.6456 3.56685L27.6457 3.56642L21.9392 1.71278ZM26.6535 1.71278L20.9468 3.56596L20.9471 3.56692L26.6535 1.71278ZM41.0744 46.0946L35.3681 47.9488C36.1713 50.4209 38.4751 52.0946 41.0744 52.0946V46.0946ZM41.0745 46.0946L46.7666 44.1973C45.9499 41.7472 43.657 40.0946 41.0745 40.0946V46.0946ZM41.0745 46.0947L35.3824 47.992C36.1991 50.4421 38.4919 52.0947 41.0745 52.0947V46.0947ZM88.9606 46.0947V52.0947C90.3642 52.0947 91.7234 51.6026 92.8017 50.704L88.9606 46.0947ZM88.9606 46.0946L92.8017 50.704C93.6708 49.9798 94.3174 49.0246 94.667 47.9488L88.9606 46.0946ZM103.382 1.71278L109.088 3.56692L109.088 3.56596L103.382 1.71278ZM108.096 1.71278L102.389 3.56642L102.389 3.56685L108.096 1.71278ZM122.516 46.0946L116.81 47.9487C117.613 50.4208 119.917 52.0946 122.516 52.0946V46.0946ZM122.516 46.0946L128.51 45.8282C128.368 42.6213 125.726 40.0946 122.516 40.0946V46.0946ZM122.516 46.0948L116.522 46.3612C116.546 46.901 116.643 47.435 116.81 47.9489L122.516 46.0948ZM129.792 68.4881L124.086 70.3422L124.086 70.3424L129.792 68.4881ZM127.991 74.0303L124.465 69.176L124.465 69.1762L127.991 74.0303ZM65.0176 119.784H59.0176C59.0176 122.04 60.2833 124.105 62.2936 125.13C64.3039 126.154 66.7189 125.964 68.5443 124.638L65.0176 119.784ZM65.0176 119.783H71.0176C71.0176 117.492 69.7122 115.4 67.6537 114.394C65.5951 113.387 63.1428 113.64 61.3339 115.047L65.0176 119.783ZM65.0175 119.783L61.4908 124.638C63.6524 126.208 66.592 126.16 68.7011 124.52L65.0175 119.783ZM2.04367 74.0303L5.57039 69.1761L5.57014 69.176L2.04367 74.0303ZM0.242985 68.4881L5.94929 70.3423L5.94934 70.3422L0.242985 68.4881ZM7.51883 46.0948L13.2252 47.9489C13.4197 47.3501 13.5188 46.7244 13.5188 46.0948H7.51883ZM7.5189 40.0946H7.51883V52.0946H7.5189V40.0946ZM16.2329 -0.141299L1.81255 44.2405L13.2252 47.9487L27.6456 3.56685L16.2329 -0.141299ZM32.3601 -0.14041C29.822 -7.95618 18.7694 -7.95006 16.2327 -0.140865L27.6457 3.56642C26.5925 6.80883 22.0015 6.81371 20.9468 3.56596L32.3601 -0.14041ZM46.7807 44.2405L32.3598 -0.141372L20.9471 3.56692L35.3681 47.9488L46.7807 44.2405ZM41.0745 40.0946H41.0744V52.0946H41.0745V40.0946ZM46.7666 44.1973L46.7666 44.1973L35.3824 47.992L35.3824 47.992L46.7666 44.1973ZM88.9606 40.0947H41.0745V52.0947H88.9606V40.0947ZM85.1195 41.4853L85.1195 41.4854L92.8017 50.704L92.8017 50.704L85.1195 41.4853ZM94.667 47.9488L109.088 3.56692L97.6752 -0.141373L83.2543 44.2405L94.667 47.9488ZM109.088 3.56596C108.034 6.81371 103.443 6.80883 102.389 3.56642L113.802 -0.140865C111.266 -7.95006 100.213 -7.95618 97.6749 -0.14041L109.088 3.56596ZM102.389 3.56685L116.81 47.9487L128.222 44.2405L113.802 -0.1413L102.389 3.56685ZM122.516 40.0946H122.516V52.0946H122.516V40.0946ZM128.51 45.8284V45.8282L116.522 46.361L116.522 46.3612L128.51 45.8284ZM135.498 66.6341L128.223 44.2407L116.81 47.9489L124.086 70.3422L135.498 66.6341ZM131.518 78.8845C135.359 76.0942 136.965 71.1482 135.498 66.6339L124.086 70.3424C123.946 69.9128 124.099 69.4418 124.465 69.176L131.518 78.8845ZM68.5443 124.638L131.518 78.8843L124.465 69.1762L61.4908 114.929L68.5443 124.638ZM59.0176 119.783V119.784H71.0176V119.783H59.0176ZM68.7011 124.52L68.7012 124.52L61.3339 115.047L61.3338 115.047L68.7011 124.52ZM-1.48304 78.8844L61.4908 124.638L68.5442 114.929L5.57039 69.1761L-1.48304 78.8844ZM-5.46332 66.6339C-6.93017 71.1482 -5.32374 76.0942 -1.48279 78.8845L5.57014 69.176C5.93612 69.4418 6.08886 69.9128 5.94929 70.3423L-5.46332 66.6339ZM1.81248 44.2408L-5.46337 66.6341L5.94934 70.3422L13.2252 47.9489L1.81248 44.2408ZM1.51883 46.0946V46.0948H13.5188V46.0946H1.51883Z" fill="url(#paint0_linear)" mask="url(#path-1-inside-1)"/>
<defs>
<linearGradient id="paint0_linear" x1="124.799" y1="3.78867e-06" x2="30.6262" y2="113.016" gradientUnits="userSpaceOnUse">
<stop stop-color="#FF7F37"/>
<stop offset="1" stop-color="#FF5C63"/>
</linearGradient>
</defs>
</svg>
