<svg width="123" height="134" viewBox="0 0 123 134" fill="none" xmlns="http://www.w3.org/2000/svg">
<path d="M26.4261 3H107.801C109.242 3 110.21 4.47893 109.634 5.80013L100.334 27.1036C100.016 27.8324 99.2966 28.3034 98.5014 28.3034H45.6384C44.2101 28.3034 43.2421 29.7576 43.7934 31.0753L63.5614 78.331C63.8725 79.0749 64.6 79.5592 65.4064 79.5592H81.8828C83.3056 79.5592 84.2734 78.1153 83.7327 76.7991L75.6048 57.0157C75.0641 55.6996 76.0319 54.2557 77.4548 54.2557H106.844C107.691 54.2557 108.446 54.789 108.729 55.5872L119.039 84.6548C119.208 85.1326 119.19 85.657 118.988 86.1218L100.334 128.964C100.016 129.694 99.2959 130.166 98.5 130.166H97.2214C96.4262 130.166 95.7065 129.695 95.3884 128.966L85.3904 106.062C85.0723 105.334 84.3526 104.863 83.5574 104.863H22.5801C21.7456 104.863 20.9989 104.345 20.7067 103.563L3.27623 56.941C3.09873 56.4662 3.10812 55.9417 3.30249 55.4736L24.579 4.23303C24.889 3.48654 25.6178 3 26.4261 3Z" stroke="url(#paint0_linear)" stroke-width="6" stroke-linecap="round" stroke-linejoin="round"/>
<defs>
<linearGradient id="paint0_linear" x1="10.9118" y1="120.629" x2="124.639" y2="63.3493" gradientUnits="userSpaceOnUse">
<stop stop-color="#FF6767"/>
<stop offset="1" stop-color="#E14BB8"/>
</linearGradient>
</defs>
</svg>
