<svg width="137" height="149" viewBox="0 0 137 149" fill="none" xmlns="http://www.w3.org/2000/svg">
<path d="M133.792 66.3468C133.558 63.9728 133.169 61.2485 132.391 58.2129C131.612 55.2162 130.445 51.9082 128.732 48.4834C127.02 45.0586 124.802 41.517 121.922 38.0533C120.793 36.6912 119.548 35.368 118.225 34.0837C120.209 26.1833 115.812 19.3337 115.812 19.3337C108.223 18.8667 103.397 21.7077 101.607 22.992C101.295 22.8753 101.023 22.7196 100.711 22.6028C99.4272 22.0969 98.104 21.591 96.7029 21.1629C95.3408 20.7348 93.9397 20.3456 92.4997 19.9953C91.0598 19.6451 89.6198 19.3726 88.1409 19.1391C87.8685 19.1002 87.635 19.0613 87.3626 19.0224C84.0545 8.43666 74.5585 4 74.5585 4C63.9339 10.7328 61.949 20.151 61.949 20.151C61.949 20.151 61.9101 20.3456 61.8323 20.6959C61.2485 20.8515 60.6647 21.0461 60.081 21.2018C59.2637 21.4353 58.4464 21.7467 57.6681 22.058C56.8508 22.3693 56.0724 22.6807 55.2551 23.0309C53.6595 23.7315 52.0638 24.5098 50.5071 25.366C48.9893 26.2222 47.5104 27.1563 46.0705 28.1292C45.8759 28.0514 45.6813 27.9735 45.6813 27.9735C30.9702 22.3693 17.9327 29.1022 17.9327 29.1022C16.7262 44.7472 23.8093 54.5935 25.2104 56.3838C24.8601 57.3567 24.5488 58.3297 24.2374 59.3026C23.1477 62.8442 22.3304 66.4635 21.8245 70.2386C21.7467 70.7835 21.6688 71.3283 21.6299 71.8732C8.00856 78.606 4 92.3441 4 92.3441C15.3252 105.382 28.5573 106.199 28.5573 106.199L28.5962 106.16C30.2697 109.157 32.2156 111.998 34.395 114.683C35.3291 115.812 36.2631 116.862 37.275 117.913C33.1497 129.744 37.8587 139.552 37.8587 139.552C50.4682 140.019 58.7578 134.025 60.5091 132.663C61.7545 133.091 63.0387 133.481 64.323 133.792C68.2149 134.804 72.1845 135.387 76.1541 135.543C77.1271 135.582 78.139 135.621 79.1119 135.582H79.5789H79.8903H80.513L81.1357 135.543V135.582C87.0901 144.066 97.5202 145.273 97.5202 145.273C104.954 137.45 105.382 129.667 105.382 127.993C105.382 127.993 105.382 127.954 105.382 127.876C105.382 127.721 105.382 127.643 105.382 127.643C105.382 127.526 105.382 127.409 105.382 127.293C106.938 126.203 108.417 125.035 109.818 123.751C112.776 121.066 115.384 117.991 117.563 114.683C117.758 114.372 117.952 114.06 118.147 113.749C126.553 114.216 132.508 108.534 132.508 108.534C131.106 99.7774 126.125 95.4964 125.074 94.6792C125.074 94.6792 125.035 94.6402 124.957 94.6013C124.88 94.5624 124.88 94.5235 124.88 94.5235C124.841 94.4846 124.763 94.4457 124.685 94.4067C124.724 93.8619 124.763 93.3559 124.802 92.8111C124.88 91.8771 124.88 90.9041 124.88 89.9701V89.2695V88.9193V88.7247C124.88 88.4912 124.88 88.569 124.88 88.4912L124.841 87.9074L124.802 87.1291C124.802 86.8566 124.763 86.6231 124.724 86.3896C124.685 86.1561 124.685 85.8837 124.646 85.6502L124.568 84.9107L124.452 84.1713C124.296 83.1983 124.14 82.2643 123.907 81.2913C123.012 77.5163 121.533 73.9358 119.626 70.7056C117.68 67.4754 115.267 64.6344 112.504 62.2215C109.779 59.8085 106.705 57.8626 103.514 56.4227C100.283 54.9827 96.9364 54.0487 93.5895 53.6206C91.916 53.3871 90.2425 53.3092 88.569 53.3481H87.9463H87.7907C87.7517 53.3481 87.5571 53.3481 87.5961 53.3481H87.3236L86.7009 53.3871C86.4674 53.3871 86.2339 53.426 86.0393 53.426C85.1831 53.5038 84.327 53.6206 83.5097 53.7762C80.1627 54.3989 77.0103 55.6054 74.2472 57.2789C71.484 58.9524 69.0711 61.015 67.1252 63.3501C65.1792 65.6852 63.6614 68.2927 62.6107 70.978C61.5599 73.6634 60.9761 76.4655 60.8204 79.1508C60.7815 79.8124 60.7815 80.513 60.7815 81.1746C60.7815 81.3303 60.7815 81.5248 60.7815 81.6805L60.8204 82.2254C60.8593 82.5367 60.8593 82.887 60.8983 83.1983C61.015 84.5605 61.2874 85.8837 61.6377 87.1291C62.3771 89.6587 63.5447 91.9549 64.9847 93.9008C66.4246 95.8467 68.1759 97.4423 70.0051 98.7266C71.8342 99.972 73.8191 100.867 75.765 101.451C77.7109 102.035 79.6568 102.268 81.4859 102.268C81.7194 102.268 81.9529 102.268 82.1475 102.268C82.2643 102.268 82.381 102.268 82.4978 102.268C82.6146 102.268 82.7313 102.268 82.8481 102.229C83.0427 102.229 83.2372 102.19 83.4318 102.19C83.4707 102.19 83.5486 102.19 83.5875 102.151L83.7821 102.113C83.8989 102.113 84.0156 102.074 84.1324 102.074C84.3659 102.035 84.5605 101.996 84.794 101.957C85.0275 101.918 85.2221 101.879 85.4167 101.801C85.8448 101.723 86.2339 101.568 86.6231 101.451C87.4015 101.178 88.1798 100.867 88.8414 100.517C89.542 100.167 90.1647 99.7385 90.7874 99.3493C90.943 99.2326 91.1376 99.1158 91.2933 98.9602C91.916 98.4542 92.0327 97.5202 91.5268 96.8975C91.0987 96.3526 90.3203 96.197 89.6976 96.5472C89.542 96.6251 89.3863 96.7029 89.2306 96.7807C88.6858 97.0532 88.1409 97.2867 87.5571 97.4813C86.9734 97.6759 86.3507 97.8315 85.728 97.9483C85.4167 97.9872 85.1053 98.0261 84.7551 98.065C84.5994 98.065 84.4437 98.104 84.2491 98.104C84.0934 98.104 83.8989 98.104 83.7821 98.104C83.6264 98.104 83.4708 98.104 83.3151 98.104C83.1205 98.104 82.9259 98.104 82.7313 98.065C82.7313 98.065 82.6146 98.065 82.6924 98.065H82.6146H82.4978C82.42 98.065 82.3032 98.065 82.2254 98.0261C82.0308 97.9872 81.8751 97.9872 81.6805 97.9483C80.2406 97.7537 78.8006 97.3256 77.4384 96.7029C76.0374 96.0802 74.7142 95.224 73.5077 94.1343C72.3013 93.0446 71.2505 91.7603 70.4332 90.2814C69.6159 88.8025 69.0321 87.168 68.7597 85.4556C68.643 84.5994 68.5651 83.7043 68.604 82.8481C68.604 82.6146 68.643 82.381 68.643 82.1475C68.643 82.2254 68.643 82.1086 68.643 82.1086V82.0308V81.8362C68.643 81.7194 68.6819 81.6027 68.6819 81.4859C68.7208 81.0189 68.7986 80.5519 68.8765 80.0849C69.5381 76.3487 71.4061 72.6904 74.2861 69.9273C75.0255 69.2267 75.8039 68.604 76.6212 68.0203C77.4384 67.4365 78.3336 66.9306 79.2676 66.5025C80.2016 66.0744 81.1357 65.7241 82.1475 65.4517C83.1205 65.1792 84.1324 65.0236 85.1831 64.9068C85.6891 64.8679 86.195 64.829 86.7399 64.829C86.8955 64.829 86.9734 64.829 87.0901 64.829H87.5182H87.7907C87.9074 64.829 87.7907 64.829 87.8296 64.829H87.9463L88.3744 64.8679C89.5031 64.9457 90.5928 65.1014 91.6825 65.3738C93.8619 65.8409 96.0024 66.6581 97.9872 67.7478C101.957 69.9662 105.343 73.391 107.405 77.5163C108.456 79.5789 109.196 81.7973 109.546 84.0934C109.624 84.6772 109.702 85.261 109.74 85.8448L109.779 86.2729L109.818 86.7009C109.818 86.8566 109.818 87.0123 109.818 87.1291C109.818 87.2847 109.818 87.4404 109.818 87.5571V87.9463V88.3744C109.818 88.6469 109.779 89.1139 109.779 89.3863C109.74 90.009 109.663 90.6706 109.585 91.2933C109.507 91.916 109.39 92.5387 109.273 93.1614C109.157 93.784 109.001 94.4067 108.845 94.9905C108.534 96.197 108.145 97.4034 107.678 98.6099C106.744 100.945 105.498 103.202 104.02 105.265C101.023 109.39 96.9364 112.737 92.2662 114.878C89.9312 115.928 87.4793 116.707 84.9496 117.096C83.7043 117.329 82.42 117.446 81.1357 117.485H80.9022H80.7076H80.2795H79.6568H79.3454C79.5011 117.485 79.3065 117.485 79.3065 117.485H79.1898C78.4892 117.485 77.8276 117.446 77.1271 117.368C74.4028 117.174 71.7175 116.668 69.0711 115.928C66.4635 115.189 63.9339 114.138 61.5209 112.893C56.734 110.324 52.4141 106.822 49.0672 102.58C47.3937 100.478 45.9148 98.1818 44.7083 95.8078C43.5019 93.4338 42.5289 90.9041 41.8284 88.3744C41.1279 85.8058 40.6998 83.1983 40.5052 80.5519L40.4663 80.046V79.9292V79.8124V79.5789V79.1508V79.0341V78.8784V78.5671V77.9444V77.8276C40.4663 77.8276 40.4663 77.8665 40.4663 77.7887V77.5552C40.4663 77.2439 40.4663 76.8936 40.4663 76.5822C40.5052 75.298 40.6219 73.9358 40.7776 72.6126C40.9333 71.2894 41.1668 69.9273 41.4392 68.604C41.7116 67.2808 42.023 65.9576 42.4122 64.6344C43.1516 62.0269 44.0856 59.4972 45.1753 57.1232C47.3937 52.3752 50.2736 48.1331 53.7373 44.7472C54.5935 43.891 55.4886 43.1127 56.4227 42.3343C57.3567 41.5949 58.3297 40.8944 59.3415 40.2327C60.3145 39.5711 61.3653 38.9874 62.4161 38.4425C62.922 38.1701 63.4669 37.8977 64.0117 37.6642C64.2841 37.5474 64.5566 37.4306 64.829 37.3139C65.1014 37.1971 65.3738 37.0804 65.6463 36.9636C66.736 36.4966 67.8646 36.1074 69.0321 35.7572C69.3046 35.6793 69.6159 35.6015 69.8883 35.4847C70.1608 35.4069 70.4721 35.3291 70.7445 35.2512C71.3283 35.0956 71.9121 34.9399 72.4958 34.8231C72.7683 34.7453 73.0796 34.7064 73.391 34.6285C73.7023 34.5507 73.9747 34.5118 74.2861 34.434C74.5974 34.395 74.8698 34.3172 75.1812 34.2783L75.6093 34.2004L76.0763 34.1226C76.3877 34.0837 76.6601 34.0448 76.9714 34.0059C77.3217 33.9669 77.633 33.928 77.9833 33.8891C78.2557 33.8502 78.7227 33.8113 78.9952 33.7723C79.1898 33.7334 79.4233 33.7334 79.6179 33.6945L80.046 33.6556L80.2406 33.6167H80.4741C80.8243 33.5778 81.1357 33.5778 81.4859 33.5388L81.9919 33.4999C81.9919 33.4999 82.1865 33.4999 82.0308 33.4999H82.1475H82.381C82.6535 33.4999 82.9648 33.461 83.2372 33.461C84.3659 33.4221 85.5334 33.4221 86.662 33.461C88.9193 33.5388 91.1376 33.8113 93.2781 34.2004C97.598 35.0177 101.645 36.3799 105.343 38.209C109.04 39.9992 112.309 42.2176 115.189 44.6305C115.384 44.7862 115.539 44.9418 115.734 45.0975C115.89 45.2532 116.084 45.4089 116.24 45.5645C116.59 45.8759 116.901 46.1872 117.252 46.4986C117.602 46.8099 117.913 47.1212 118.225 47.4326C118.536 47.7439 118.847 48.0553 119.159 48.4055C120.365 49.6898 121.494 50.9741 122.506 52.2974C124.529 54.9049 126.164 57.5513 127.448 60.0421C127.526 60.1977 127.604 60.3534 127.682 60.5091C127.76 60.6647 127.837 60.8204 127.915 60.9761C128.071 61.2874 128.227 61.5988 128.343 61.9101C128.499 62.2215 128.616 62.4939 128.771 62.8052C128.888 63.1166 129.044 63.389 129.161 63.7004C129.628 64.8679 130.095 65.9965 130.445 67.0473C131.029 68.7597 131.457 70.2775 131.807 71.6007C131.924 72.1456 132.43 72.4958 132.975 72.418C133.558 72.3791 133.986 71.9121 133.986 71.3283C134.025 69.9273 133.986 68.2538 133.792 66.3468Z" stroke="url(#paint0_linear)" stroke-width="6"/>
<defs>
<linearGradient id="paint0_linear" x1="128.765" y1="4" x2="15.8618" y2="118.854" gradientUnits="userSpaceOnUse">
<stop stop-color="#FF7F37"/>
<stop offset="1" stop-color="#FF5C63"/>
</linearGradient>
</defs>
</svg>
