<svg width="120" height="137" viewBox="0 0 120 137" fill="none" xmlns="http://www.w3.org/2000/svg">
<path d="M113.282 48.191L113.286 48.1832L113.289 48.1753C115.285 43.3389 116.179 36.3592 116.039 29.0528C115.898 21.6887 114.7 13.6608 112.259 6.62575L112.195 6.44168L112.108 6.26743C109.538 1.12833 101.684 2.65745 101.382 8.40624L101.377 8.48503V8.56392V9.42194C100.588 21.4722 96.3299 27.227 90.644 30.0143L90.6333 30.0195L90.6238 30.0242C90.6291 30.0216 90.5837 30.0433 90.481 30.0627C90.3775 30.0823 90.2488 30.0929 90.1088 30.0864C89.8056 30.0723 89.6101 29.9883 89.5363 29.9391L89.507 29.9196L89.4773 29.9008C80.8186 24.4169 70.4416 21.2508 59.363 21.2508C48.2482 21.2508 38.0312 24.5731 29.298 29.8702L29.2809 29.8806L29.2639 29.8912C29.1127 29.9857 28.9569 30.0319 28.8314 30.0424C28.7085 30.0526 28.6533 30.027 28.6489 30.0248L28.4967 29.9487L28.3369 29.8902C22.8767 27.8952 18.2861 21.6384 17.485 9.28646V8.42751C17.485 5.38469 15.1857 3.55412 13.036 3.11747C10.8609 2.67564 8.06385 3.48453 6.83287 6.25424L6.77771 6.37836L6.73399 6.50695C4.29661 13.6757 3.13462 21.7683 3.01108 29.1453C2.8885 36.465 3.78332 43.3976 5.70072 48.1527L5.70846 48.1719L5.71646 48.191C7.17501 51.6691 7.20545 55.6751 5.92137 59.416C3.88923 65.2256 2.8845 71.7204 3.02845 78.1984L3.02859 78.2045C3.74915 107.892 28.9009 133.212 58.7684 133.648C90.1978 134.222 115.698 108.982 115.698 77.4497C115.698 71.1306 114.693 65.227 112.826 59.6148C111.668 55.8897 111.802 51.7204 113.282 48.191ZM21.9862 78.2304L21.986 78.2138L21.9856 78.1972C21.4803 56.8496 38.9129 39.4311 60.1101 39.9358L60.1269 39.9362L60.1437 39.9364C80.1885 40.1886 96.6339 56.7312 97.013 76.8242C97.3899 98.024 80.1048 115.342 58.7364 115.1C38.7633 114.583 22.2381 98.2581 21.9862 78.2304Z" stroke="url(#paint0_linear)" stroke-width="6"/>
<path d="M68.1764 71.4862L68.1659 71.4695L68.1552 71.4529L58.626 56.7507C56.2118 52.8458 51.2208 51.8403 47.4317 54.1559L47.4084 54.1701L47.3854 54.1847C45.0768 55.6539 43.5407 58.2158 43.5407 61.0808C43.5407 62.591 43.9684 64.1174 44.8424 65.442L50.8714 74.9344L41.3344 85.3735C38.2897 88.65 38.531 93.8113 41.7656 96.8302L41.812 96.8735L41.8602 96.9148C43.4595 98.2857 45.5603 98.8647 47.3591 98.8647C49.8528 98.8647 51.803 97.7095 53.1634 96.3491L53.2435 96.269L53.3174 96.1831L59.3736 89.1359L63.294 94.7652C63.969 96.1286 65.0831 96.871 65.7902 97.2993C68.5701 99.1725 72.1321 99.1366 74.8488 97.4648L74.8681 97.4529L74.8872 97.4408C77.1958 95.9717 78.7319 93.4098 78.7319 90.5448C78.7319 89.0367 78.3053 87.5124 77.4338 86.1891L68.1764 71.4862Z" stroke="url(#paint1_linear)" stroke-width="6"/>
<defs>
<linearGradient id="paint0_linear" x1="122.42" y1="-42.7573" x2="-28.4764" y2="112.79" gradientUnits="userSpaceOnUse">
<stop stop-color="#00ADFE"/>
<stop offset="1" stop-color="#3B7DFF"/>
</linearGradient>
<linearGradient id="paint1_linear" x1="78.6669" y1="40.3028" x2="30.2992" y2="89.0616" gradientUnits="userSpaceOnUse">
<stop stop-color="#00ADFE"/>
<stop offset="1" stop-color="#3B7DFF"/>
</linearGradient>
</defs>
</svg>
