<svg width="118" height="135" viewBox="0 0 118 135" fill="none" xmlns="http://www.w3.org/2000/svg">
<path d="M111.821 46.9976L111.824 46.9911L111.827 46.9845C113.786 42.2381 114.678 35.3361 114.539 28.0623C114.398 20.7406 113.207 12.7662 110.786 5.78964L110.733 5.63625L110.661 5.49104C108.315 0.799212 101.156 2.20993 100.881 7.43252L100.877 7.49817V7.56392V8.43815C100.083 20.6177 95.7615 26.5723 89.864 29.4632L89.8552 29.4676L89.8464 29.472C89.7483 29.521 89.4711 29.6038 89.0856 29.5859C88.7107 29.5684 88.4228 29.4643 88.2589 29.3551L88.2346 29.3389L88.2098 29.3232C79.6301 23.8893 69.3457 20.7508 58.363 20.7508C47.3501 20.7508 37.2218 24.0422 28.5573 29.2977L28.5431 29.3064L28.5289 29.3152C28.0569 29.6102 27.6196 29.5691 27.4253 29.472L27.2985 29.4086L27.1653 29.3599C21.4334 27.2656 16.7891 20.7564 15.985 8.30263V7.42751C15.985 4.67585 13.9098 3.00828 11.9365 2.60746C9.94198 2.20232 7.40653 2.94461 6.28978 5.45731L6.24381 5.56074L6.20737 5.6679C3.78973 12.7786 2.63385 20.8183 2.51101 28.1537C2.38897 35.4413 3.28243 42.2983 5.16444 46.9657L5.17089 46.9817L5.17756 46.9976C6.68856 50.6008 6.71394 54.7348 5.39379 58.5798C3.38205 64.3305 2.38563 70.7659 2.52832 77.1873L2.52845 77.1924C3.24259 106.615 28.1811 131.717 57.7769 132.148C88.924 132.717 114.198 107.705 114.198 76.4497C114.198 70.1835 113.202 64.3317 111.35 58.7682C110.158 54.9364 110.292 50.6435 111.821 46.9976ZM20.4862 77.2367L20.486 77.2228L20.4857 77.209C19.9737 55.5772 37.6382 37.9244 59.122 38.436L59.136 38.4363L59.15 38.4365C79.4685 38.6921 96.1283 55.4553 96.5129 75.814C96.8956 97.3001 79.3767 114.846 57.7274 114.599C37.491 114.078 20.7416 97.5413 20.4862 77.2367Z" stroke="url(#paint0_linear)" stroke-width="5"/>
<path d="M66.7533 70.7526L66.7445 70.7387L66.7356 70.7249L57.2034 56.0181C54.9416 52.3544 50.2594 51.4027 46.6924 53.5825L46.673 53.5944L46.6538 53.6066C44.4799 54.99 43.0407 57.3977 43.0407 60.0808C43.0407 61.4985 43.4427 62.9299 44.2621 64.1702L50.4985 73.9892L40.702 84.7124C37.8464 87.7838 38.0702 92.6306 41.1067 95.4646L41.1454 95.5007L41.1855 95.5351C42.6775 96.8139 44.6555 97.3647 46.3591 97.3647C48.6873 97.3647 50.5171 96.2884 51.8099 94.9955L51.8766 94.9288L51.9382 94.8572L58.415 87.3205L62.7261 93.5107C63.3365 94.7681 64.3646 95.4572 65.0595 95.8778C67.6719 97.644 71.027 97.6142 73.5868 96.039L73.6028 96.0291L73.6187 96.019C75.7927 94.6356 77.2319 92.2278 77.2319 89.5448C77.2319 88.1287 76.8308 86.6991 76.0134 85.4598L66.7533 70.7526Z" stroke="url(#paint1_linear)" stroke-width="5"/>
<defs>
<linearGradient id="paint0_linear" x1="121.42" y1="-43.7573" x2="-29.4764" y2="111.79" gradientUnits="userSpaceOnUse">
<stop stop-color="#00ADFE"/>
<stop offset="1" stop-color="#3B7DFF"/>
</linearGradient>
<linearGradient id="paint1_linear" x1="77.6669" y1="39.3028" x2="29.2992" y2="88.0616" gradientUnits="userSpaceOnUse">
<stop stop-color="#00ADFE"/>
<stop offset="1" stop-color="#3B7DFF"/>
</linearGradient>
</defs>
</svg>
