<svg width="89" height="144" viewBox="0 0 89 144" fill="none" xmlns="http://www.w3.org/2000/svg">
<path d="M54.3066 88.6052L56.5041 90.1555L58.2845 88.1398C61.1994 84.8395 65.4395 82.758 70.1626 82.758C78.902 82.758 86 89.8453 86 98.53C86 107.215 78.902 114.302 70.1626 114.302C61.4232 114.302 54.3252 107.215 54.3252 98.53C54.3252 97.0003 54.556 95.517 54.9744 94.099L55.5826 92.0375L53.8261 90.7986L44.9147 84.513L42.6325 82.9033L40.8638 85.0646C37.5962 89.0575 32.9818 91.7329 27.8787 92.5895L25.3754 93.0097V95.5481V106.903V109.317L27.7335 109.833C34.8458 111.391 40.1688 117.712 40.1688 125.228C40.1688 133.913 33.0708 141 24.3314 141C15.592 141 8.49401 133.913 8.49401 125.228C8.49401 117.712 13.8171 111.391 20.9294 109.833L23.2875 109.317V106.903V95.5485V93.0098L20.7838 92.5898C10.6953 90.8974 3 82.1541 3 71.6643C3 61.2249 10.6201 52.5139 20.6358 50.7619L23.1189 50.3276V47.8068V37.0537V34.6627L20.788 34.1293C13.746 32.5179 8.49401 26.2351 8.49401 18.772C8.49401 10.0873 15.592 3 24.3314 3C33.0708 3 40.1688 10.0873 40.1688 18.772C40.1688 26.3401 34.774 32.7008 27.5922 34.204L25.2067 34.7032V37.1403V47.7555V50.3121L27.731 50.7176C33.041 51.5704 37.7017 54.3639 40.9393 58.3665L42.6987 60.5416L44.9912 58.9381L53.8297 52.7561L55.6033 51.5155L54.9853 49.4412C54.5595 48.012 54.3252 46.5136 54.3252 44.9663C54.3252 36.2816 61.4232 29.1943 70.1626 29.1943C78.902 29.1943 86 36.2816 86 44.9663C86 53.651 78.902 60.7382 70.1626 60.7382C65.4536 60.7382 61.2244 58.6682 58.3095 55.3842L56.5357 53.3858L54.3462 54.9175L45.5136 61.0964L43.6372 62.4091L44.4086 64.5652C45.2102 66.8058 45.6628 69.1866 45.6628 71.6643C45.6628 74.1855 45.1939 76.6069 44.3649 78.8814L43.5792 81.0373L45.4542 82.3601L54.3066 88.6052ZM82.2955 44.9663C82.2955 38.2824 76.8465 32.8647 70.1626 32.8647C63.4786 32.8647 58.0297 38.2824 58.0297 44.9663C58.0297 51.6503 63.4788 57.0675 70.1626 57.0675C76.8464 57.0675 82.2955 51.6503 82.2955 44.9663ZM24.3314 6.67077C17.6478 6.67077 12.1981 12.0878 12.1981 18.772C12.1981 25.4561 17.6478 30.8732 24.3314 30.8732C31.0152 30.8732 36.4643 25.456 36.4643 18.772C36.4643 12.088 31.0152 6.67077 24.3314 6.67077ZM24.3314 137.329C31.0152 137.329 36.4643 131.912 36.4643 125.228C36.4643 118.544 31.0152 113.127 24.3314 113.127C17.6478 113.127 12.1981 118.544 12.1981 125.228C12.1981 131.912 17.6478 137.329 24.3314 137.329ZM8.5919 71.6643C8.5919 80.331 15.6597 87.3575 24.3307 87.3575C33.0015 87.3575 40.0692 80.3309 40.0692 71.6643C40.0692 62.9977 33.0018 55.9697 24.3307 55.9697C15.6593 55.9697 8.5919 62.9976 8.5919 71.6643ZM58.0297 98.53C58.0297 105.214 63.4786 110.632 70.1626 110.632C76.8465 110.632 82.2955 105.214 82.2955 98.53C82.2955 91.846 76.8464 86.4288 70.1626 86.4288C63.4788 86.4288 58.0297 91.846 58.0297 98.53Z" stroke="url(#paint0_linear)" stroke-width="6"/>
<defs>
<linearGradient id="paint0_linear" x1="96.7875" y1="-56.3226" x2="-70.1084" y2="67.4933" gradientUnits="userSpaceOnUse">
<stop stop-color="#00ADFE"/>
<stop offset="1" stop-color="#3B7DFF"/>
</linearGradient>
</defs>
</svg>
