<svg width="135" height="113" viewBox="0 0 135 113" fill="none" xmlns="http://www.w3.org/2000/svg">
<path d="M131.175 29.8975C130.959 29.6819 130.69 29.5741 130.366 29.5741H111.913C111.535 29.5741 111.265 29.4124 111.05 29.089L96.2654 3.48512C96.1036 3.16171 95.7798 3 95.4021 3H35.0789C34.7012 3 34.3775 3.16171 34.2156 3.48512L18.892 30.0592L18.3524 31.0295L4.10791 55.717C4 55.8787 4 56.0404 4 56.2021C4 56.3099 4 56.4716 4.05396 56.5794C4.05396 56.6334 4.10791 56.6873 4.10791 56.6873L5.7266 59.4902L18.892 82.2911L18.9459 82.345L34.2695 108.919C34.4314 109.243 34.7551 109.404 35.1328 109.404H95.5101C95.8878 109.404 96.2115 109.243 96.3734 108.919L111.157 83.3153C111.319 82.9919 111.643 82.8301 112.021 82.8301H130.42H130.474H130.528C130.798 82.8301 131.013 82.6684 131.175 82.5067C131.229 82.4528 131.283 82.3989 131.283 82.345C131.337 82.2911 131.337 82.2372 131.391 82.1833C131.445 82.0755 131.499 81.9138 131.499 81.7521V30.7061C131.499 30.3827 131.391 30.1131 131.175 29.8975ZM59.8449 83.3153L55.2046 91.2929C55.1507 91.4007 55.0428 91.5085 54.8809 91.5624C54.773 91.6163 54.6111 91.6702 54.4492 91.6702H45.2227C44.8989 91.6702 44.6292 91.5085 44.4673 91.239L39.5573 82.7762L30.7624 67.4678L29.4135 65.0961L24.5034 56.6333C24.4495 56.5255 24.3955 56.3638 24.3955 56.2021C24.3955 56.0404 24.4495 55.8787 24.5034 55.7709L29.4674 47.2003L39.6652 29.5741L44.5213 21.1653C44.6831 20.8957 44.9529 20.734 45.2766 20.734H54.5032C54.6651 20.734 54.8269 20.7879 54.9348 20.8418C55.0428 20.8958 55.1507 21.0036 55.2586 21.1114L55.3125 21.1653L59.9528 29.1968C60.0067 29.3046 60.0607 29.4663 60.0607 29.5741C60.0607 29.7358 60.0067 29.8975 59.9528 30.0053L45.0608 55.7709C45.0069 55.8787 44.9529 56.0404 44.9529 56.2021C44.9529 56.3638 44.9529 56.4716 45.0608 56.6333C45.0608 56.6333 45.0608 56.6333 45.0608 56.6873L59.8988 82.3989C59.9528 82.5067 60.0067 82.6684 60.0067 82.7762C60.0067 82.9919 59.9528 83.1536 59.8449 83.3153ZM86.0137 91.2929C85.8519 91.5624 85.5821 91.7241 85.2583 91.7241H76.0318C75.8699 91.7241 75.7081 91.6702 75.6001 91.6163C75.4922 91.5624 75.3843 91.4546 75.2764 91.3468L70.6362 83.3153C70.5822 83.1536 70.5282 83.0458 70.5282 82.8841C70.5282 82.7762 70.5822 82.6145 70.6362 82.5067L85.4742 56.7412C85.5821 56.6334 85.5821 56.4716 85.5821 56.3099C85.5821 56.1482 85.5281 55.9865 85.4742 55.8787L70.6362 30.167C70.5282 30.0053 70.5282 29.8436 70.5282 29.6819C70.5282 29.5202 70.5822 29.4124 70.6362 29.2507L75.2764 21.2192C75.3304 21.1114 75.4383 21.0036 75.6001 20.9497C75.7081 20.8957 75.8699 20.8418 76.0318 20.8418H85.2583C85.5821 20.8418 85.8519 21.0036 86.0137 21.2731L90.8698 29.6819L101.122 47.4699L105.978 55.8787C106.086 55.9865 106.086 56.1482 106.086 56.3099C106.086 56.4716 106.032 56.6334 105.978 56.7412L90.8698 82.8841L86.0137 91.2929Z" stroke="url(#paint0_linear)" stroke-width="6"/>
<defs>
<linearGradient id="paint0_linear" x1="8.45627" y1="94.8946" x2="51.8076" y2="84.7378" gradientUnits="userSpaceOnUse">
<stop stop-color="#8261DE"/>
<stop offset="1" stop-color="#32DCCB"/>
</linearGradient>
</defs>
</svg>
