<svg width="104" height="132" viewBox="0 0 104 132" fill="none" xmlns="http://www.w3.org/2000/svg">
<path fill-rule="evenodd" clip-rule="evenodd" d="M14.1829 16.4274C13.9625 15.345 14.6612 14.2889 15.7436 14.0685L20.8155 13.0355C21.8979 12.815 22.954 13.5138 23.1744 14.5961L40.0228 97.3219C40.2432 98.4042 39.5445 99.4603 38.4621 99.6808L33.3902 100.714C32.3078 100.934 31.2517 100.235 31.0313 99.1531L14.1829 16.4274ZM4.99563 28.1758C3.91328 28.3963 3.21456 29.4524 3.435 30.5348L17.9527 101.817C18.1731 102.899 19.2292 103.598 20.3116 103.377L25.3835 102.344C26.4659 102.124 27.1646 101.068 26.9441 99.9855L12.4265 28.7035C12.2061 27.6211 11.1499 26.9224 10.0676 27.1429L4.99563 28.1758ZM60.4382 101.846C60.327 101.305 60.6754 100.777 61.2164 100.666L98.0084 93.1033C98.5493 92.9921 99.078 93.3405 99.1892 93.8815L100.634 100.911C100.745 101.452 100.397 101.98 99.8558 102.092L63.0638 109.654C62.5229 109.765 61.9942 109.417 61.883 108.876L60.4382 101.846ZM47.3256 103.521C46.7846 103.632 46.4362 104.161 46.5474 104.702L47.9922 111.731C48.1034 112.272 48.6321 112.62 49.173 112.509L56.2022 111.064C56.7432 110.953 57.0916 110.424 56.9804 109.883L55.5356 102.854C55.4244 102.313 54.8957 101.965 54.3547 102.076L47.3256 103.521ZM33.0521 107.475C32.9409 106.934 33.2893 106.406 33.8303 106.295L40.8595 104.85C41.4004 104.739 41.9291 105.087 42.0403 105.628L43.4851 112.657C43.5963 113.198 43.2479 113.727 42.7069 113.838L35.6778 115.283C35.1368 115.394 34.6081 115.046 34.4969 114.505L33.0521 107.475ZM20.3611 109.063C19.8201 109.174 19.4717 109.703 19.5829 110.244L21.0277 117.273C21.1389 117.814 21.6676 118.162 22.2085 118.051L29.4759 116.557C30.0169 116.446 30.3653 115.918 30.2541 115.377L28.8093 108.347C28.6981 107.806 28.1695 107.458 27.6285 107.569L20.3611 109.063ZM63.1257 114.92C63.0145 114.379 63.3629 113.85 63.9039 113.739L100.696 106.177C101.237 106.066 101.766 106.414 101.877 106.955L103.321 113.984C103.433 114.525 103.084 115.054 102.543 115.165L65.7513 122.727C65.2104 122.839 64.6817 122.49 64.5705 121.949L63.1257 114.92ZM50.0131 116.594C49.4721 116.706 49.1237 117.234 49.2349 117.775L50.6797 124.804C50.7909 125.345 51.3196 125.694 51.8605 125.583L58.8897 124.138C59.4307 124.027 59.7791 123.498 59.6679 122.957L58.2231 115.928C58.1119 115.387 57.5832 115.038 57.0422 115.15L50.0131 116.594ZM35.7392 120.549C35.628 120.008 35.9764 119.479 36.5174 119.368L43.5465 117.924C44.0875 117.812 44.6162 118.161 44.7274 118.702L46.1722 125.731C46.2834 126.272 45.935 126.801 45.394 126.912L38.3648 128.356C37.8239 128.468 37.2952 128.119 37.184 127.578L35.7392 120.549ZM22.2704 123.318C22.1592 122.777 22.5076 122.248 23.0486 122.137L30.316 120.643C30.8569 120.532 31.3856 120.88 31.4968 121.421L32.9416 128.45C33.0528 128.991 32.7044 129.52 32.1634 129.631L24.896 131.125C24.3551 131.236 23.8264 130.888 23.7152 130.347L22.2704 123.318ZM33.4684 30.0388C32.3861 30.2592 31.6874 31.3153 31.9078 32.3977L45.0936 97.1405C45.3141 98.2228 46.3702 98.9215 47.4526 98.7011L52.5245 97.6681C53.6069 97.4477 54.3056 96.3916 54.0851 95.3092L40.8993 30.5664C40.6789 29.4841 39.6228 28.7854 38.5404 29.0058L33.4684 30.0388Z" fill="url(#paint0_linear)"/>
<defs>
<linearGradient id="paint0_linear" x1="77.0863" y1="1.57509" x2="2.67791" y2="87.6461" gradientUnits="userSpaceOnUse">
<stop stop-color="#FF7F37"/>
<stop offset="1" stop-color="#FF5C63"/>
</linearGradient>
</defs>
</svg>
