<svg width="115" height="120" viewBox="0 0 115 120" fill="none" xmlns="http://www.w3.org/2000/svg">
<path d="M6.02566 5.60963V114.39H13.9102V117H3V3H13.9102V5.60963H6.02566Z" stroke="url(#paint0_linear)" stroke-width="6"/>
<path d="M36.4025 40.0949V45.5998H36.5603C38.0391 43.5043 39.8202 41.8773 41.9067 40.7237C43.9919 39.5723 46.3821 38.9941 49.0744 38.9941C51.661 38.9941 54.0243 39.4934 56.1623 40.4885C58.301 41.4853 59.925 43.2406 61.0339 45.7575C62.2474 43.9754 63.8973 42.4022 65.9838 41.0392C68.069 39.6768 70.5373 38.9941 73.3891 38.9941C75.554 38.9941 77.5594 39.2568 79.409 39.7811C81.2559 40.3054 82.84 41.1441 84.1602 42.2973C85.4791 43.4515 86.5086 44.9587 87.2493 46.8183C87.988 48.6812 88.3582 50.9212 88.3582 53.5434V80.7519L77.1115 80.7515V57.7103C77.1115 56.348 77.059 55.0635 76.953 53.8568C76.8463 52.6519 76.5572 51.6039 76.082 50.7114C75.6065 49.8209 74.906 49.1124 73.9832 48.5878C73.0591 48.0655 71.8047 47.8019 70.2209 47.8019C68.6372 47.8019 67.3565 48.1051 66.3795 48.7059C65.4019 49.3098 64.637 50.0967 64.083 51.0654C63.5288 52.0365 63.1589 53.1369 62.9745 54.3696C62.7887 55.601 62.697 56.8465 62.697 58.1047V80.7519H51.451V57.9473C51.451 56.7416 51.4234 55.5485 51.3726 54.3696C51.3188 53.1894 51.0951 52.1018 50.6983 51.105C50.3022 50.1099 49.642 49.3098 48.7182 48.7059C47.794 48.1051 46.4346 47.8019 44.6395 47.8019C44.1108 47.8019 43.4113 47.92 42.5411 48.1566C41.6698 48.3925 40.8244 48.839 40.0066 49.4932C39.1871 50.1492 38.4883 51.0929 37.9075 52.3239C37.3263 53.5566 37.0362 55.1677 37.0362 57.1596V80.7515L25.7905 80.7519V40.0949H36.4025Z" fill="url(#paint1_linear)"/>
<path d="M108.807 114.39V5.60963H100.923V3H111.834V117H100.923V114.39H108.807Z" stroke="url(#paint2_linear)" stroke-width="6"/>
<defs>
<linearGradient id="paint0_linear" x1="14.8649" y1="-41.5887" x2="-16.4416" y2="-37.9923" gradientUnits="userSpaceOnUse">
<stop stop-color="#00ADFE"/>
<stop offset="1" stop-color="#3B7DFF"/>
</linearGradient>
<linearGradient id="paint1_linear" x1="93.8328" y1="22.6615" x2="50.877" y2="99.9185" gradientUnits="userSpaceOnUse">
<stop stop-color="#00ADFE"/>
<stop offset="1" stop-color="#3B7DFF"/>
</linearGradient>
<linearGradient id="paint2_linear" x1="112.788" y1="-41.5887" x2="81.4801" y2="-37.9919" gradientUnits="userSpaceOnUse">
<stop stop-color="#00ADFE"/>
<stop offset="1" stop-color="#3B7DFF"/>
</linearGradient>
</defs>
</svg>
