<svg width="101" height="157" viewBox="0 0 101 157" fill="none" xmlns="http://www.w3.org/2000/svg">
<mask id="path-1-outside-1" maskUnits="userSpaceOnUse" x="0" y="0" width="101" height="157" fill="black">
<rect fill="white" width="101" height="157"/>
<path d="M95.1182 50.7625C90.4937 43.1182 85.8567 35.4816 81.2072 27.8525C78.7905 23.9228 76.2951 19.9931 73.8882 16.0635C73.5837 15.5723 73.2005 15.14 72.9058 14.6881C68.4554 7.90941 59.7021 3.38047 51.1452 7.68345C47.4543 9.46256 44.6314 12.6481 43.3091 16.5262C41.9869 20.4044 42.2758 24.6509 44.1111 28.3142C45.5946 31.2025 48.0408 33.6389 50.3397 36.0557C57.3345 43.4827 64.5552 50.7035 71.5009 58.1895C76.3811 63.4339 78.3805 70.7375 76.8517 77.7362C75.3275 84.7145 70.489 90.5057 63.8964 93.2475C63.8578 93.2636 63.817 93.2743 63.7753 93.2777C63.5485 93.2961 63.3763 93.0995 63.3763 92.872V61.9403C63.3763 60.4432 61.7936 59.4807 60.483 60.2043C49.3232 66.3667 39.2813 74.3799 30.7895 83.9092C17.6095 98.6055 9.35407 116.653 6.05309 130.846C5.67897 132.454 7.35393 133.701 8.82423 132.949L28.7756 122.744C35.6918 119.243 42.5318 115.818 49.6172 112.207C50.9494 111.529 52.5305 112.495 52.5305 113.991V141.072C52.5305 141.528 52.686 141.97 52.9714 142.325L59.778 150.796C60.9608 152.268 63.337 151.432 63.337 149.543V106.27C63.337 105.537 63.7534 104.86 64.3981 104.511C67.6676 102.951 70.84 101.196 73.898 99.2546C81.5836 93.8706 86.5299 85.3946 87.4367 76.0547C88.3435 66.7149 85.12 57.4457 78.6136 50.6839C70.5578 42.2547 62.4529 33.8649 54.4069 25.4259C52.0687 22.9699 52.1178 19.8654 54.4069 17.6845C56.6959 15.5035 59.82 15.7196 62.1778 18.1266L65.5377 21.5159C68.2098 24.3649 70.8525 27.2434 73.5444 30.0629C80.3473 37.1933 87.1653 44.3093 93.9983 51.4109C94.2842 51.7049 94.6176 51.9582 94.9364 52.2272C95.0516 52.3244 95.2161 52.34 95.3451 52.262C95.4684 52.1875 95.5328 52.0435 95.4998 51.9033C95.4079 51.5123 95.2802 51.1304 95.1182 50.7625ZM52.5027 98.09C52.5016 98.2242 52.4902 98.359 52.4489 98.4867C52.2948 98.9635 51.9632 99.3663 51.5186 99.6083C47.2057 101.897 42.8536 104.127 38.5114 106.357L27.959 111.768C26.2553 112.641 24.4709 110.879 25.3956 109.202C32.0585 97.123 41.1044 86.4978 52.0046 77.9816C52.185 77.8407 52.5501 77.8743 52.5501 78.1031C52.5404 84.7654 52.5595 91.4277 52.5027 98.09Z"/>
</mask>
<path d="M95.1182 50.7625L99.6947 48.7485L99.5641 48.4517L99.3963 48.1744L95.1182 50.7625ZM81.2072 27.8525L85.4768 25.2504L85.4715 25.2418L85.4662 25.2332L81.2072 27.8525ZM73.8882 16.0635L78.152 13.4519L78.1449 13.4403L78.1377 13.4288L73.8882 16.0635ZM72.9058 14.6881L77.0938 11.9568L77.0897 11.9504L77.0855 11.944L72.9058 14.6881ZM51.1452 7.68345L53.3163 12.1875L53.3541 12.1693L53.3916 12.1504L51.1452 7.68345ZM43.3091 16.5262L38.5766 14.9127L38.5766 14.9127L43.3091 16.5262ZM44.1111 28.3142L39.6408 30.5539L39.652 30.5763L39.6635 30.5986L44.1111 28.3142ZM50.3397 36.0557L53.9795 32.6276L53.971 32.6186L53.9625 32.6096L50.3397 36.0557ZM71.5009 58.1895L67.8356 61.5903L67.8406 61.5957L71.5009 58.1895ZM76.8517 77.7362L71.9669 76.6693V76.6693L76.8517 77.7362ZM63.8964 93.2475L65.8161 97.8643L65.8164 97.8642L63.8964 93.2475ZM63.7753 93.2777L63.3719 88.294L63.3717 88.294L63.7753 93.2777ZM60.483 60.2043L58.0661 55.8273L60.483 60.2043ZM30.7895 83.9092L34.5119 87.2475L34.5172 87.2416L34.5225 87.2357L30.7895 83.9092ZM6.05309 130.846L1.18308 129.713L6.05309 130.846ZM8.82423 132.949L11.1011 137.4H11.1011L8.82423 132.949ZM28.7756 122.744L26.5172 118.283L26.508 118.288L26.4987 118.293L28.7756 122.744ZM49.6172 112.207L51.8872 116.662L49.6172 112.207ZM52.9714 142.325L56.8691 139.193L56.869 139.193L52.9714 142.325ZM59.778 150.796L63.6757 147.664L63.6757 147.664L59.778 150.796ZM64.3981 104.511L62.2458 99.9974L62.1289 100.053L62.0149 100.115L64.3981 104.511ZM73.898 99.2546L76.578 103.476L76.6739 103.415L76.7668 103.35L73.898 99.2546ZM87.4367 76.0547L82.4601 75.5716V75.5716L87.4367 76.0547ZM78.6136 50.6839L74.999 54.1385L75.0048 54.1446L75.0107 54.1507L78.6136 50.6839ZM54.4069 25.4259L50.7855 28.8735L50.7881 28.8762L54.4069 25.4259ZM54.4069 17.6845L57.8559 21.3044V21.3044L54.4069 17.6845ZM62.1778 18.1266L58.606 21.6254L58.6164 21.6361L58.6269 21.6466L62.1778 18.1266ZM65.5377 21.5159L69.1846 18.0954L69.1373 18.0449L69.0886 17.9958L65.5377 21.5159ZM73.5444 30.0629L77.162 26.6114L77.1609 26.6102L73.5444 30.0629ZM93.9983 51.4109L90.3953 54.8776L90.4043 54.8869L90.4133 54.8963L93.9983 51.4109ZM94.9364 52.2272L98.1608 48.4057L98.1607 48.4057L94.9364 52.2272ZM95.3451 52.262L97.9322 56.5407L97.9322 56.5407L95.3451 52.262ZM95.4998 51.9033L100.367 50.7584L100.367 50.7583L95.4998 51.9033ZM52.5027 98.09L47.5029 98.0474L47.5029 98.0475L52.5027 98.09ZM52.4489 98.4867L57.2067 100.024L57.2068 100.024L52.4489 98.4867ZM51.5186 99.6083L53.8626 104.025L53.8858 104.012L53.9088 104L51.5186 99.6083ZM38.5114 106.357L40.7926 110.807L40.7956 110.805L38.5114 106.357ZM27.959 111.768L30.2402 116.217L27.959 111.768ZM25.3956 109.202L29.7738 111.617H29.7738L25.3956 109.202ZM52.0046 77.9816L48.9263 74.0416L48.9263 74.0416L52.0046 77.9816ZM52.5501 78.1031L57.5501 78.1104V78.1031H52.5501ZM99.3963 48.1744C94.769 40.5255 90.1291 32.8842 85.4768 25.2504L76.9376 30.4545C81.5843 38.079 86.2185 45.711 90.8402 53.3506L99.3963 48.1744ZM85.4662 25.2332C82.9108 21.078 80.6437 17.52 78.152 13.4519L69.6244 18.675C71.9465 22.4662 74.6702 26.7677 76.9482 30.4718L85.4662 25.2332ZM78.1377 13.4288C77.8508 12.966 77.5515 12.5705 77.3829 12.3472C77.1694 12.0646 77.1246 12.0039 77.0938 11.9568L68.7177 17.4194C68.9817 17.8242 69.2759 18.2056 69.4038 18.3749C69.5765 18.6035 69.621 18.6697 69.6387 18.6982L78.1377 13.4288ZM77.0855 11.944C71.7551 3.82482 60.4722 -2.60339 48.8989 3.21646L53.3916 12.1504C58.932 9.36432 65.1558 11.994 68.7261 17.4322L77.0855 11.944ZM48.9742 3.17939C44.0768 5.54005 40.3311 9.76686 38.5766 14.9127L48.0416 18.1398C48.9317 15.5293 50.8318 13.3851 53.3163 12.1875L48.9742 3.17939ZM38.5766 14.9127C36.8222 20.0585 37.2055 25.6931 39.6408 30.5539L48.5815 26.0746C47.3461 23.6087 47.1516 20.7503 48.0416 18.1398L38.5766 14.9127ZM39.6635 30.5986C41.5532 34.2779 44.6248 37.3023 46.7169 39.5017L53.9625 32.6096C51.4569 29.9755 49.636 28.1271 48.5588 26.0299L39.6635 30.5986ZM46.6998 39.4837C53.9371 47.1682 60.8022 54.0097 67.8356 61.5903L75.1663 54.7888C68.3083 47.3973 60.7319 39.7973 53.9795 32.6276L46.6998 39.4837ZM67.8406 61.5957C71.604 65.6399 73.1458 71.2721 71.9669 76.6693L81.7366 78.8032C83.6151 70.2028 81.1583 61.2279 75.1613 54.7834L67.8406 61.5957ZM71.9669 76.6693C70.7915 82.0506 67.0603 86.5165 61.9764 88.6309L65.8164 97.8642C73.9178 94.4949 79.8635 87.3784 81.7366 78.8032L71.9669 76.6693ZM61.9766 88.6307C62.3545 88.4736 62.8246 88.3383 63.3719 88.294L64.1788 98.2614C64.8094 98.2104 65.3611 98.0535 65.8161 97.8643L61.9766 88.6307ZM63.3717 88.294C66.6909 88.0252 68.3763 90.8566 68.3763 92.872H58.3763C58.3763 95.3425 60.4062 98.567 64.179 98.2614L63.3717 88.294ZM68.3763 92.872V61.9403H58.3763V92.872H68.3763ZM68.3763 61.9403C68.3763 56.76 62.8166 53.2041 58.0661 55.8273L62.8999 64.5814C60.7706 65.7572 58.3763 64.1264 58.3763 61.9403H68.3763ZM58.0661 55.8273C46.4117 62.2627 35.9248 70.6311 27.0566 80.5828L34.5225 87.2357C42.6379 78.1287 52.2347 70.4706 62.8999 64.5814L58.0661 55.8273ZM27.0672 80.5709C13.2799 95.9444 4.6589 114.769 1.18308 129.713L10.9231 131.978C14.0492 118.538 21.9391 101.267 34.5119 87.2475L27.0672 80.5709ZM1.18308 129.713C-0.217519 135.735 6.09115 139.963 11.1011 137.4L6.54737 128.497C8.61672 127.439 11.5755 129.174 10.9231 131.978L1.18308 129.713ZM11.1011 137.4L31.0525 127.196L26.4987 118.293L6.54737 128.497L11.1011 137.4ZM31.0339 127.205C37.9195 123.719 44.7991 120.274 51.8872 116.662L47.3472 107.752C40.2645 111.361 33.464 114.766 26.5172 118.283L31.0339 127.205ZM51.8872 116.662C49.9006 117.675 47.5305 116.238 47.5305 113.991H57.5305C57.5305 108.753 51.9982 105.383 47.3472 107.752L51.8872 116.662ZM47.5305 113.991V141.072H57.5305V113.991H47.5305ZM47.5305 141.072C47.5305 142.667 48.0749 144.213 49.0737 145.457L56.869 139.193C57.2971 139.726 57.5305 140.389 57.5305 141.072H47.5305ZM49.0737 145.456L55.8803 153.928L63.6757 147.664L56.8691 139.193L49.0737 145.456ZM55.8803 153.928C60.0202 159.08 68.337 156.153 68.337 149.543H58.337C58.337 146.711 61.9014 145.456 63.6757 147.664L55.8803 153.928ZM68.337 149.543V106.27H58.337V149.543H68.337ZM68.337 106.27C68.337 107.433 67.6938 108.411 66.7812 108.906L62.0149 100.115C59.8131 101.309 58.337 103.641 58.337 106.27H68.337ZM66.5503 109.024C70.0015 107.378 73.3502 105.525 76.578 103.476L71.218 95.0335C68.3299 96.8672 65.3337 98.5249 62.2458 99.9974L66.5503 109.024ZM76.7668 103.35C85.6489 97.1275 91.3653 87.3319 92.4133 76.5379L82.4601 75.5716C81.6945 83.4573 77.5182 90.6137 71.0293 95.1595L76.7668 103.35ZM92.4133 76.5379C93.4612 65.744 89.7359 55.0316 82.2166 47.2171L75.0107 54.1507C80.5041 59.8598 83.2257 67.6859 82.4601 75.5716L92.4133 76.5379ZM82.2283 47.2293C74.1257 38.7512 66.0909 30.4348 58.0257 21.9756L50.7881 28.8762C58.8148 37.2949 66.9899 45.7583 74.999 54.1385L82.2283 47.2293ZM58.0283 21.9784C57.8123 21.7515 57.7241 21.5865 57.6916 21.5111C57.6609 21.4396 57.6718 21.4315 57.6716 21.4747C57.6714 21.5194 57.6595 21.5482 57.662 21.5427C57.6663 21.5333 57.7079 21.4454 57.8559 21.3044L50.9578 14.0645C48.9395 15.9875 47.6847 18.5675 47.6717 21.4294C47.6589 24.2714 48.8701 26.8615 50.7855 28.8735L58.0283 21.9784ZM57.8559 21.3044C57.9832 21.1831 58.0502 21.1617 58.0389 21.166C58.0249 21.1713 57.9927 21.1776 57.965 21.1759C57.8906 21.1715 58.1441 21.154 58.606 21.6254L65.7496 14.6277C63.8536 12.6922 61.3663 11.3632 58.5681 11.1941C55.7176 11.0219 53.0312 12.089 50.9578 14.0645L57.8559 21.3044ZM58.6269 21.6466L61.9867 25.036L69.0886 17.9958L65.7287 14.6065L58.6269 21.6466ZM61.8908 24.9364C64.5092 27.7282 67.2208 30.6801 69.9279 33.5156L77.1609 26.6102C74.4843 23.8067 71.9105 21.0017 69.1846 18.0954L61.8908 24.9364ZM69.9268 33.5144C76.7346 40.6499 83.5574 47.7709 90.3953 54.8776L97.6013 47.9441C90.7732 40.8476 83.9601 33.7367 77.162 26.6114L69.9268 33.5144ZM90.4133 54.8963C90.9285 55.4261 91.6598 56.0046 91.7121 56.0487L98.1607 48.4057C98.052 48.314 97.9468 48.2276 97.8691 48.1638C97.7832 48.0932 97.7265 48.0466 97.6737 48.0022C97.5675 47.9129 97.5573 47.8987 97.5833 47.9255L90.4133 54.8963ZM91.712 56.0486C93.407 57.4788 95.9033 57.7675 97.9322 56.5407L92.758 47.9834C94.529 46.9126 96.6962 47.17 98.1608 48.4057L91.712 56.0486ZM97.9322 56.5407C99.8182 55.4003 100.921 53.1137 100.367 50.7584L90.6327 53.0481C90.1447 50.9734 91.1187 48.9746 92.758 47.9834L97.9322 56.5407ZM100.367 50.7583C100.205 50.0695 99.98 49.3967 99.6947 48.7485L90.5418 52.7765C90.5804 52.8641 90.6108 52.9551 90.6327 53.0482L100.367 50.7583ZM47.5029 98.0475C47.5036 97.9648 47.5068 97.52 47.691 96.9496L57.2068 100.024C57.4735 99.198 57.4996 98.4837 57.5025 98.1326L47.5029 98.0475ZM47.6911 96.9494C47.9291 96.2127 48.4413 95.5905 49.1283 95.2166L53.9088 104C55.485 103.142 56.6605 101.714 57.2067 100.024L47.6911 96.9494ZM49.1745 95.1918C44.8977 97.4617 40.5786 99.6749 36.2271 101.91L40.7956 110.805C45.1287 108.58 49.5138 106.333 53.8626 104.025L49.1745 95.1918ZM36.2301 101.908L25.6778 107.319L30.2402 116.217L40.7926 110.807L36.2301 101.908ZM25.6778 107.319C26.8873 106.699 28.3362 107.019 29.2194 107.898C30.1271 108.802 30.4749 110.346 29.7738 111.617L21.0175 106.787C17.5188 113.13 24.4991 119.161 30.2402 116.217L25.6778 107.319ZM29.7738 111.617C36.1112 100.128 44.7152 90.0219 55.083 81.9217L48.9263 74.0416C37.4936 82.9738 28.0059 94.118 21.0175 106.787L29.7738 111.617ZM55.0829 81.9217C53.8925 82.8518 52.5478 83.0103 51.5055 82.8328C50.9238 82.7337 50.0124 82.4595 49.1576 81.6952C48.1848 80.8254 47.5501 79.5362 47.5501 78.1031H57.5501C57.5501 76.5557 56.8697 75.1764 55.8229 74.2404C54.894 73.4099 53.88 73.0932 53.1845 72.9747C51.9146 72.7584 50.2971 72.9706 48.9263 74.0416L55.0829 81.9217ZM47.5501 78.0958C47.5403 84.7872 47.5595 91.4085 47.5029 98.0474L57.5025 98.1327C57.5596 91.447 57.5404 84.7437 57.5501 78.1104L47.5501 78.0958Z" fill="url(#paint0_linear)" mask="url(#path-1-outside-1)"/>
<defs>
<linearGradient id="paint0_linear" x1="12.089" y1="140.631" x2="110.528" y2="107.293" gradientUnits="userSpaceOnUse">
<stop stop-color="#FF6767"/>
<stop offset="1" stop-color="#E14BB8"/>
</linearGradient>
</defs>
</svg>
