<svg width="60" height="133" viewBox="0 0 60 133" fill="none" xmlns="http://www.w3.org/2000/svg">
<mask id="path-1-inside-1" fill="white">
<path d="M58.6269 52.921C51.6211 22.0149 37.0192 13.7874 33.2944 7.97132C31.7585 5.40921 30.3978 2.74601 29.2218 0C29.025 2.74558 28.6635 4.47529 26.3298 6.55735C21.644 10.7352 1.74318 26.9524 0.0683775 62.0683C-1.49202 94.8093 24.1379 114.998 27.5241 117.085C30.1279 118.366 33.299 117.113 34.8457 115.937C47.2008 107.457 64.0815 84.852 58.6407 52.921"/>
</mask>
<path d="M33.2944 7.97132L28.1483 11.0564L28.1939 11.1325L28.2418 11.2072L33.2944 7.97132ZM29.2218 0L34.7373 -2.36206L23.2372 -0.4289L29.2218 0ZM26.3298 6.55735L30.3228 11.0358L30.3242 11.0345L26.3298 6.55735ZM0.0683775 62.0683L-5.92481 61.7825L-5.92482 61.7827L0.0683775 62.0683ZM27.5241 117.085L24.3765 122.193L24.6192 122.343L24.875 122.469L27.5241 117.085ZM34.8457 115.937L31.4505 110.989L31.3302 111.072L31.2141 111.16L34.8457 115.937ZM64.4785 51.5945C60.7882 35.3151 55.0265 24.7562 49.5281 17.4344C46.8054 13.8088 44.2059 11.0569 42.1537 8.93297C39.8854 6.58552 38.8653 5.54463 38.347 4.73542L28.2418 11.2072C29.586 13.306 31.7879 15.4746 33.524 17.2714C35.4762 19.2918 37.6635 21.6188 39.9325 24.6404C44.4177 30.6129 49.4598 39.6208 52.7754 54.2474L64.4785 51.5945ZM38.4405 4.88629C37.0439 2.55655 35.8067 0.134894 34.7373 -2.36206L23.7063 2.36206C24.989 5.35712 26.473 8.26187 28.1483 11.0564L38.4405 4.88629ZM23.2372 -0.4289C23.1441 0.869784 23.0429 1.20565 22.9922 1.33482C22.9799 1.36618 22.9618 1.4082 22.9004 1.49195C22.8292 1.58901 22.6697 1.78194 22.3355 2.08017L30.3242 11.0345C32.0342 9.50886 33.3416 7.81033 34.1622 5.72017C34.9248 3.77757 35.1028 1.87579 35.2065 0.4289L23.2372 -0.4289ZM22.3368 2.07893C17.3904 6.48922 -4.12891 24.1275 -5.92481 61.7825L6.06156 62.3541C7.61527 29.7773 25.8977 14.9812 30.3228 11.0358L22.3368 2.07893ZM-5.92482 61.7827C-6.7861 79.8543 -0.125339 94.3819 7.03944 104.532C14.1286 114.575 21.9729 120.712 24.3765 122.193L30.6718 111.977C29.6891 111.371 23.0254 106.37 16.8431 97.612C10.7365 88.9608 5.36245 77.0233 6.06157 62.3539L-5.92482 61.7827ZM24.875 122.469C27.7792 123.898 30.7255 123.783 32.9204 123.281C35.099 122.782 37.0541 121.795 38.4772 120.713L31.2141 111.16C31.1859 111.182 31.0596 111.269 30.8485 111.369C30.6434 111.466 30.4313 111.54 30.2422 111.584C29.8139 111.682 29.8728 111.554 30.1733 111.702L24.875 122.469ZM38.2408 120.884C52.1752 111.32 70.4558 86.5415 64.5554 51.9131L52.7259 53.9288C57.7071 83.1625 42.2263 103.594 31.4505 110.989L38.2408 120.884Z" fill="url(#paint0_linear)" mask="url(#path-1-inside-1)"/>
<path d="M30.2834 99.6507C29.6382 107.755 29.176 112.463 27.5378 117.094C27.5378 117.094 28.6132 124.809 29.3682 132.982H32.0406C32.678 127.227 33.6513 121.514 34.9555 115.872C31.496 114.17 30.4161 106.762 30.2834 99.6507Z" fill="url(#paint1_linear)"/>
<defs>
<linearGradient id="paint0_linear" x1="13.4627" y1="82.5434" x2="56.4873" y2="80.5198" gradientUnits="userSpaceOnUse">
<stop stop-color="#3BC791"/>
<stop offset="1" stop-color="#21C879"/>
</linearGradient>
<linearGradient id="paint1_linear" x1="29.2108" y1="123.041" x2="34.567" y2="122.931" gradientUnits="userSpaceOnUse">
<stop stop-color="#3BC791"/>
<stop offset="1" stop-color="#21C879"/>
</linearGradient>
</defs>
</svg>
