<svg width="137" height="136" viewBox="0 0 137 136" fill="none" xmlns="http://www.w3.org/2000/svg">
<path fill-rule="evenodd" clip-rule="evenodd" d="M91.5944 0.00399713L91.9885 0.0016716C98.8632 -0.0388872 104.469 0.657339 109.412 2.2311C114.397 3.81814 118.462 6.21967 122.337 9.27897C124.09 10.6548 127.516 13.4291 129.034 17.0589L129.037 17.0664L129.04 17.0738C130.402 20.3607 130.58 24.389 130.432 27.735C130.277 31.2305 129.724 34.7019 129.145 37.2802L129.144 37.286C126.265 50.0289 122.077 61.833 116.111 72.0246L116.106 72.0339C115.73 72.673 115.454 73.2489 115.1 73.9893C114.882 74.444 114.635 74.9607 114.316 75.5921C113.868 76.4802 113.295 77.5499 112.532 78.6098V80.833C112.788 80.9316 112.98 80.9877 113.173 81.0246C114.586 81.2912 116.158 81.2357 118.053 80.9832C118.897 80.8708 119.728 80.7313 120.634 80.5792C120.749 80.5598 120.865 80.5403 120.983 80.5205C121.984 80.353 123.097 80.1711 124.201 80.0538L136.409 78.7578L128.58 88.2143C127.211 89.868 125.183 91.1723 123.292 92.1392C121.283 93.1667 118.926 94.066 116.477 94.7185C112.741 95.7136 107.94 96.3556 103.64 95.2692C103.597 95.6128 103.547 95.95 103.489 96.2756L103.488 96.283C102.905 99.4909 102.601 102.813 102.281 106.301L102.249 106.649C101.927 110.159 101.576 113.901 100.841 117.365C100.103 120.843 98.9088 124.414 96.672 127.491C94.3594 130.672 91.1236 133.059 86.8025 134.394L86.753 134.409C84.4729 135.114 79.4113 136.677 74.6808 135.34L74.6763 135.339C66.2454 132.946 63.6754 124.587 62.7554 117.843C62.0096 112.376 62.0983 106.006 62.1751 100.493C62.1887 99.5189 62.2019 98.5712 62.21 97.6601C55.9296 101.855 48.7411 101.965 41.2311 99.3395L39.316 98.6701L36.9283 93.8946C36.508 94.3721 36.0878 94.8497 35.6676 95.3275L35.5722 95.4359L35.4708 95.5386C35.4479 95.5618 35.4106 95.6039 35.359 95.6621C34.6355 96.4786 31.1198 100.446 25.7435 99.1779C23.2974 98.6004 21.3711 97.1614 19.9519 95.7465C18.5079 94.3069 17.2924 92.5964 16.2902 90.9562C14.3802 87.8304 12.8787 84.3359 11.9282 82.1238C11.8863 82.0263 11.8455 81.9314 11.8058 81.839L11.8035 81.8338C8.86485 74.9812 4.66954 63.4512 2.15573 51.3772C-0.300301 39.5808 -1.41531 26.0908 2.99914 16.0749M40.6341 89.6872L41.4796 89.4694C42.4213 89.2268 43.4136 89.0096 44.3198 88.8111L44.3497 88.8046C45.2973 88.5971 46.171 88.4055 47.0106 88.1929C48.4292 87.8337 49.4164 87.4908 50.0685 87.1631C50.623 86.5704 51.1775 85.9769 51.7323 85.3825L52.0415 84.5017C50.0556 84.222 48.2501 83.6697 46.6212 82.8996C44.6221 85.1649 42.6271 87.426 40.6341 89.6872ZM42.4058 80.1197C42.6626 79.8288 42.9195 79.5377 43.1763 79.2467C43.0062 79.0468 42.8332 78.845 42.6582 78.6407C40.0646 75.6145 37.0256 72.0685 36.2507 66.8956C36.2498 66.8894 36.2489 66.8832 36.2479 66.877C35.9923 65.1573 35.9869 63.2578 36.3311 61.1381C36.4594 59.8487 36.5844 58.5561 36.7095 57.2635L36.7097 57.2614L36.7099 57.2593C36.8026 56.3024 36.8952 55.3455 36.9891 54.3899C37.012 54.1567 37.035 53.9236 37.058 53.6906C37.0683 53.5874 37.0785 53.4842 37.0888 53.381L36.7806 39.2281C36.845 38.8101 36.909 38.4001 36.9726 37.9975C38.7739 26.5988 40.288 21.2538 44.7697 14.5055C45.67 13.15 46.6899 11.7378 47.856 10.2086C47.8673 10.1939 47.8785 10.1792 47.8897 10.1645V10.0104C47.8027 9.99559 47.7157 9.98059 47.6288 9.96537C47.332 9.91337 47.0361 9.85884 46.7408 9.80216C45.3535 9.53582 43.9805 9.22169 42.5936 8.89693C42.3606 8.84239 42.1273 8.78755 41.8935 8.73258C37.7217 7.75199 33.3817 6.73188 28.1116 6.6712C27.0538 6.79278 25.996 6.91149 24.9396 7.03004C23.7646 7.16191 22.5902 7.29369 21.4204 7.42893C15.1145 9.00862 9.97734 12.6303 7.57571 18.0886C0.101123 35.0413 10.7094 66.5964 16.3988 79.8631L16.4933 80.0829C18.4572 84.6507 22.1272 93.1867 26.8915 94.3114C29.1879 94.8531 30.6421 93.3431 31.65 92.2964L31.6511 92.2953C31.7419 92.2009 31.8292 92.1103 31.9131 92.0254C35.4072 88.0526 38.9013 84.091 42.4058 80.1197ZM2.99991 16.0731C6.18139 8.8442 12.8265 4.42728 20.2054 2.5788L20.522 2.4995L20.8462 2.46202C21.9853 2.33033 23.1991 2.19404 24.4045 2.0587C25.4759 1.93839 26.5408 1.81883 27.5406 1.70391L27.8539 1.6679L28.1691 1.67153C32.5421 1.72188 36.3 2.36457 39.6615 3.09298C40.9751 3.37762 42.1487 3.65429 43.2571 3.91556C45.147 4.36106 46.847 4.76179 48.7266 5.0809L51.9285 5.6245C52.9694 4.98253 54.062 4.4109 55.2068 3.91688L55.5198 3.7818L55.8482 3.69045C56.7373 3.4432 57.6434 3.18961 58.5554 2.93435C59.8329 2.5768 61.1221 2.21597 62.3926 1.86473L62.8301 1.74376L63.2823 1.70357C64.4402 1.60065 65.6106 1.49776 66.7781 1.39512L67.0127 1.37449L67.246 1.37578C70.7776 1.39537 74.0994 1.73722 77.2162 2.36869L84.6637 1.13479C85.8123 0.944483 87.0174 0.749221 88.2135 0.555416C89.2307 0.390595 90.2415 0.226828 91.2054 0.0680554L91.5944 0.00399713M83.3458 9.42331C81.3791 8.61133 79.2861 7.94669 77.0607 7.44759C74.0303 6.76796 70.7546 6.39532 67.2183 6.37571C66.0496 6.47845 64.8808 6.58119 63.725 6.68394C62.4557 7.03487 61.1863 7.39014 59.9195 7.7447L59.9181 7.7451C59.0066 8.00021 58.0958 8.25513 57.1879 8.50763C55.6565 9.16851 54.2223 10.0175 52.8897 11.0304C52.2563 11.5119 51.6458 12.0304 51.0589 12.5834C46.1171 17.2387 42.8385 24.3353 41.5138 32.3237C41.2562 33.8771 41.0724 35.4642 40.9647 37.0736C40.9402 37.4396 40.9197 37.8067 40.9031 38.1748L40.909 38.1719C41.3015 37.9767 41.6996 37.7788 42.1033 37.5813C42.7955 37.2426 43.5042 36.9049 44.23 36.5838C44.5166 36.457 44.8059 36.3328 45.0978 36.2122C45.4238 36.0775 45.7532 35.9472 46.086 35.8226C46.7791 35.5632 47.4871 35.3287 48.2107 35.1311C49.1413 34.8778 50.0157 34.6838 50.8378 34.5455C51.1717 34.4893 51.4969 34.4424 51.8138 34.4044C55.5256 33.9592 58.091 34.7422 59.9303 36.3688C59.9331 36.3713 59.9359 36.3738 59.9388 36.3763C61.261 37.5489 62.2074 39.1582 62.9348 41.061C62.9815 41.1833 63.0274 41.3068 63.0724 41.4315C63.9891 43.9727 64.5473 47.0015 65.0992 50.1958C65.767 54.0616 65.8826 59.5198 64.9451 63.2828C64.9025 63.4529 64.8587 63.622 64.8138 63.79L64.8129 63.7933C64.0198 66.7572 62.8629 69.4014 61.7613 71.9195L61.7472 71.9518L58.7034 80.6208H58.8575C59.1029 80.5557 59.3502 80.5194 59.5962 80.5059C59.6924 80.5006 59.7883 80.4988 59.8839 80.5001C60.7982 80.5129 61.6768 80.8116 62.3508 81.0831C62.8183 81.2648 63.2414 81.47 63.6244 81.6979C66.8733 83.631 67.2314 87.1983 67.2389 91.9628C67.2399 92.6033 67.2346 93.2654 67.2291 93.948C67.2238 94.6106 67.2183 95.2933 67.2183 95.9938C67.2183 97.5522 67.1961 99.1759 67.1736 100.833C67.0023 113.405 66.8047 127.907 76.0414 130.528C79.175 131.415 82.8738 130.374 85.3268 129.617C95.41 126.503 96.3162 116.608 97.3094 105.763L97.3096 105.762C97.6231 102.338 97.9454 98.8199 98.5679 95.3901C98.6885 94.7199 98.7613 94.005 98.8094 93.2669C98.8612 92.4726 98.8843 91.6516 98.9074 90.8311C98.9165 90.5084 98.9255 90.1856 98.9364 89.8646C99.014 87.5611 99.1814 85.3464 100.083 83.8315C100.29 83.4828 100.517 83.1871 100.76 82.9292C101.432 82.2173 102.231 81.7933 103.09 81.3368C103.425 81.1589 103.77 80.9761 104.12 80.7694C104.144 80.7548 104.169 80.7401 104.194 80.7252C104.366 80.6218 104.54 80.5124 104.714 80.3946C104.742 80.376 104.769 80.3572 104.797 80.3382C104.626 80.0726 104.455 79.8064 104.284 79.5396C104.156 79.3413 104.028 79.1427 103.9 78.9438L103.895 78.9362C103.791 78.7746 103.687 78.6127 103.583 78.4506C103.298 78.0071 103.012 77.5618 102.725 77.1147C102.661 77.0145 102.597 76.9142 102.532 76.8138C102.481 76.734 102.43 76.6541 102.379 76.5741C101.868 75.7746 101.356 74.969 100.845 74.1565C100.039 72.8727 99.2374 71.5718 98.4507 70.2506C98.3911 70.1504 98.3315 70.0501 98.272 69.9497C94.9251 64.2991 91.8658 58.2776 89.9073 51.655L89.9068 51.6532C89.8999 51.6297 89.893 51.6063 89.8861 51.5829C88.178 45.7813 88.5649 41.5219 90.646 38.6501C90.6479 38.6476 90.6497 38.6451 90.6515 38.6426C92.5602 36.0148 95.8896 34.5509 100.332 34.1321C101.697 34.0034 103.168 33.9734 104.734 34.0387C105.055 34.0521 105.38 34.0695 105.709 34.0908C105.566 33.7197 105.419 33.3503 105.27 32.9827C104.718 31.6305 104.118 30.3029 103.468 29.0068C100.544 23.1802 96.597 17.99 91.4227 14.0546C91.4208 14.0531 91.4189 14.0517 91.4171 14.0503C89.9127 12.9066 88.3046 11.8689 86.5878 10.9524C86.4795 10.8946 86.3709 10.8374 86.2618 10.7806C85.5405 10.405 84.8003 10.0506 84.0407 9.71859C83.9355 9.67257 83.8298 9.62698 83.7238 9.58183C83.5983 9.52838 83.4723 9.47554 83.3458 9.42331ZM92.31 10.0206C92.7892 10.3082 93.2552 10.6099 93.7004 10.935C100.11 15.6333 106.889 23.7494 109.529 32.6206C109.582 32.7973 109.633 32.9742 109.682 33.1515C109.85 33.757 109.999 34.3658 110.127 34.977C110.349 36.0368 110.419 37.2377 110.388 38.5012C110.381 38.7985 110.368 39.0992 110.35 39.4024C110.182 42.2742 109.574 45.3655 109.094 47.8084C108.968 48.4485 108.851 49.044 108.752 49.5794C108.738 49.6582 108.724 49.7368 108.712 49.8153C108.667 50.0885 108.63 50.3598 108.602 50.6294C108.328 53.2406 108.795 55.6951 109.269 58.1876C109.427 59.0187 109.586 59.8541 109.718 60.701C109.729 60.7679 109.739 60.835 109.749 60.9021C109.826 61.4116 109.893 61.9255 109.943 62.4453C110.092 63.9745 110.1 65.5547 109.818 67.2256C109.769 67.5155 109.696 67.8474 109.605 68.2099L109.604 68.2154C109.367 69.154 109.013 70.2972 108.656 71.4487C108.485 72.0025 108.312 72.5583 108.153 73.0941C107.904 73.9265 107.685 74.7108 107.544 75.365C107.442 75.8399 107.381 76.2462 107.379 76.5527C107.379 76.5877 107.379 76.6214 107.381 76.6538C107.383 76.7087 107.388 76.7596 107.395 76.8065C107.416 76.9498 107.461 77.0547 107.532 77.1147V76.8065C107.725 76.6154 107.907 76.4131 108.081 76.2015C108.484 75.7122 108.842 75.1722 109.173 74.6037C109.643 73.7956 110.06 72.9291 110.475 72.0657C110.898 71.1851 111.32 70.3077 111.796 69.4988C112.138 68.9153 112.473 68.3257 112.803 67.7301L112.804 67.7291C113.575 66.3368 114.314 64.9118 115.023 63.4559C119.015 55.2552 122.033 46.0712 124.267 36.1842C125.32 31.4966 126.283 23.4826 124.421 18.9875C123.47 16.7143 121.094 14.6595 119.245 13.2082C112.511 7.89004 105.671 5.15613 93.612 5.0065C93.0906 5.00003 92.5594 4.99839 92.018 5.00158C91.0081 5.16792 89.9982 5.33151 88.9896 5.49489C88.4559 5.58134 87.9225 5.66774 87.3897 5.75445C86.9154 5.83164 86.4415 5.90909 85.9682 5.98706C85.9458 5.99075 85.9234 5.99445 85.9009 5.99814C85.7609 6.02123 85.6209 6.04436 85.4809 6.06755L85.7892 6.22166C87.0571 7.18925 88.4879 7.94534 89.9105 8.69711C90.6321 9.07842 91.3516 9.45862 92.0467 9.86474C92.1236 9.90965 92.2001 9.95487 92.2763 10.0005C92.2876 10.0072 92.2988 10.0139 92.31 10.0206ZM108.643 84.5828C108.392 84.4746 108.14 84.3726 107.885 84.2822C107.73 84.2274 107.573 84.1769 107.415 84.1318C107.157 84.0584 106.893 83.9994 106.62 83.9599C106.416 84.069 106.221 84.1711 106.035 84.2686L106.032 84.2701C104.962 84.8293 104.178 85.2393 103.67 85.9596C103.669 85.9613 103.668 85.963 103.666 85.9647C103.14 86.7146 102.913 87.8008 102.973 89.7393C103.28 89.8896 103.6 90.023 103.932 90.1403C105.897 90.8354 108.27 90.9665 110.711 90.7202C110.925 90.6986 111.139 90.6741 111.354 90.6469L111.357 90.6466C117.004 89.9293 122.851 87.2947 124.729 85.0259C123.684 85.1368 122.59 85.3206 121.462 85.5102C118.629 85.986 115.578 86.4985 112.532 85.9888C112.437 85.9728 112.341 85.9558 112.246 85.9378C111.847 85.8623 111.471 85.7574 111.111 85.6347C110.501 85.4272 109.937 85.1687 109.383 84.9154C109.135 84.8018 108.889 84.6893 108.643 84.5828ZM104.795 71.039C104.879 70.684 104.967 70.325 105.056 69.9615C105.324 68.8707 105.602 67.7386 105.796 66.5472L105.796 66.5458C105.807 66.4759 105.818 66.4057 105.829 66.3354C105.851 66.1896 105.872 66.0429 105.892 65.8953C105.933 65.5861 105.967 65.2727 105.993 64.955C106.087 63.7969 106.074 62.5807 105.875 61.2922C105.627 58.8268 105.39 56.3615 105.154 53.8961L105.152 53.8759C105.034 52.6492 104.916 51.4225 104.797 50.1959C104.846 49.7592 104.896 49.3225 104.945 48.8858L104.946 48.8814C105.036 48.0844 105.126 47.2874 105.216 46.4904C105.305 45.6964 105.395 44.9023 105.484 44.1083C105.488 44.0679 105.493 44.0276 105.497 43.9872C105.534 43.6591 105.571 43.3311 105.608 43.003C105.742 41.8078 105.877 40.6127 106.012 39.4175C106.023 39.3194 106.034 39.2213 106.046 39.1231C106.047 39.1131 106.048 39.1031 106.049 39.093C106.089 38.7356 106.13 38.3782 106.171 38.0208L106.024 38.0152C105.835 38.0079 105.645 38.0006 105.455 37.9935C105.435 37.9928 105.415 37.992 105.395 37.9913C105.294 37.9875 105.193 37.9838 105.092 37.9802C103.752 37.9322 102.417 37.8987 101.147 37.9442C100.697 37.9604 100.255 37.9864 99.8246 38.0253C99.612 38.0445 99.4021 38.0668 99.1952 38.0926C97.5604 38.2962 96.1146 38.7163 95.0207 39.5233C94.6597 39.7897 94.3371 40.0981 94.0586 40.4549C93.983 40.5518 93.9106 40.6522 93.8416 40.7563C93.4663 41.3257 93.219 42.0589 93.0719 42.8793C92.9384 43.624 92.8874 44.4406 92.8984 45.2717C92.91 46.1595 92.9922 47.064 93.1198 47.9153C93.2619 48.8636 93.4601 49.7459 93.6797 50.466C93.6823 50.4743 93.6849 50.483 93.6875 50.4913C95.44 56.1842 98.0755 61.2175 100.818 65.9957C101.215 66.6872 101.614 67.3733 102.013 68.0553C102.029 68.0827 102.045 68.1101 102.061 68.1375C102.414 68.8759 102.771 69.6112 103.127 70.3465C103.257 70.6142 103.387 70.882 103.516 71.1499C103.705 71.54 103.893 71.9304 104.081 72.3216C104.118 72.3995 104.156 72.4775 104.193 72.5554L104.501 72.4013C104.586 71.9528 104.687 71.4992 104.795 71.039ZM100.457 44.0629C100.914 43.7662 101.285 43.4539 101.657 42.9304C101.806 42.7195 101.957 42.4742 102.112 42.1819C101.684 41.5775 101.333 41.2466 100.799 41.0235C100.563 40.9247 100.29 40.8471 99.9596 40.7762C99.7832 40.7384 99.5901 40.7026 99.3769 40.6664C99.3456 40.6686 99.3146 40.6709 99.2839 40.6733C98.5863 40.7277 98.0665 40.8277 97.6539 40.9485C97.1388 41.0994 96.7906 41.2828 96.4715 41.4508C96.4621 41.4558 96.4526 41.4608 96.4431 41.4658C96.2572 41.5636 96.08 41.6557 95.8836 41.7324C95.8146 41.831 95.7531 41.9102 95.6982 41.98L95.6949 41.9843C95.6893 41.9914 95.6838 41.9983 95.6784 42.0052C95.4606 42.2817 95.3505 42.4214 95.28 43.1066C95.8556 43.7397 96.3264 44.131 96.9407 44.4385C97.2222 44.5794 97.5338 44.7027 97.8994 44.8237C98.0067 44.8591 98.1186 44.8944 98.2358 44.9299C98.3624 44.9682 98.4951 45.0067 98.6346 45.0459C98.6801 45.0586 98.7263 45.0715 98.7733 45.0844C99.0991 44.8746 99.3888 44.7023 99.6509 44.5485C99.6942 44.5231 99.7366 44.4982 99.7784 44.4738C99.7823 44.4715 99.7862 44.4692 99.7901 44.4669L99.6376 44.3602L99.6091 43.9564L100.107 43.6035L100.252 43.6185C100.246 43.658 100.233 43.7281 100.21 43.8189C100.174 43.9622 100.12 44.1326 100.042 44.3186C100.189 44.2316 100.327 44.1479 100.457 44.0629ZM57.1753 72.5555C57.4397 71.9129 57.7177 71.2753 58.0005 70.6363C58.0405 70.5459 58.0805 70.4556 58.1207 70.3652C58.1815 70.2281 58.2426 70.0909 58.3037 69.9536C59.3017 67.71 60.3194 65.4221 60.9768 62.8205C61.0175 62.6599 61.0564 62.494 61.0934 62.3232L61.0941 62.32C61.7289 59.3882 61.8192 55.0057 61.3985 50.8352C61.3161 50.0186 61.2142 49.2101 61.0929 48.4223C60.9611 47.5665 60.8065 46.735 60.6295 45.9438C60.5568 45.6192 60.4804 45.3014 60.4002 44.9915C60.292 44.5732 60.1769 44.1693 60.055 43.7825C59.7821 42.9164 59.475 42.1359 59.1345 41.4716C58.6917 40.6077 58.1923 39.9402 57.6376 39.5363C56.2891 38.5602 54.2085 38.4446 51.8583 38.4703C51.8439 38.4741 51.8296 38.4778 51.8152 38.4815C51.2938 38.6171 50.7724 38.7537 50.251 38.8906C49.9359 38.9734 49.6208 39.0563 49.3056 39.1393L49.302 39.1403C49.1909 39.1695 49.0798 39.1988 48.9686 39.2281C48.874 39.253 48.7794 39.2779 48.6848 39.3028C47.8985 39.5098 47.1122 39.7166 46.326 39.9215C46.2436 39.943 46.1613 39.9644 46.079 39.9858C44.9578 40.5951 43.8366 41.2045 42.7122 41.8138C42.4244 41.9697 42.1365 42.1257 41.8482 42.2816C41.4823 42.4795 41.116 42.6775 40.7491 42.8754L41.0574 54.28C40.9807 54.8 40.8966 55.336 40.8106 55.8838C40.528 57.6843 40.2254 59.6119 40.1042 61.5136C40.0992 61.5919 40.0945 61.6702 40.0902 61.7484C40.0059 63.2607 40.0418 64.7526 40.2996 66.1469C41.058 70.355 43.0043 74.206 46.1436 76.7204C47.0416 77.4396 48.0372 78.0495 49.1305 78.5272C50.5117 79.1305 52.0489 79.5228 53.7423 79.6577C54.1169 79.6876 54.4993 79.7048 54.8892 79.709C54.9299 79.5808 54.9706 79.4526 55.0113 79.3244C55.7283 77.0651 56.4461 74.816 57.1753 72.5555ZM50.5939 43.9705C50.8669 44.7203 51.3935 45.3297 52.0438 45.7648C52.1562 45.84 52.2723 45.91 52.3914 45.9746C52.8789 46.2391 53.4172 46.4136 53.9603 46.486C54.4828 46.5556 55.0097 46.5308 55.5002 46.4009C55.5313 46.3927 55.5623 46.384 55.5931 46.3749C56.4308 46.1278 57.1523 45.566 57.5477 44.6349C57.5641 44.5037 57.5792 44.3738 57.5942 44.2443C57.6263 43.9685 57.6581 43.6945 57.7018 43.4149C57.0356 42.9236 56.3917 42.5541 55.6359 42.3017C55.6327 42.3007 55.6294 42.2996 55.6261 42.2985C55.5086 42.2595 55.3884 42.2233 55.265 42.1899C54.7559 42.0522 54.192 41.9623 53.5382 41.9191C53.2884 41.9025 53.0254 41.8928 52.7474 41.8899C52.4863 41.8871 52.2119 41.8903 51.9225 41.8994C51.9136 41.9043 51.9048 41.9092 51.8959 41.9141C51.6741 42.0373 51.4552 42.1575 51.2362 42.2778L51.2346 42.2787C51.0069 42.4038 50.7792 42.5288 50.5483 42.6571L50.3942 42.9654C50.4107 43.323 50.4804 43.6589 50.5939 43.9705ZM58.3453 85.6208C56.7493 87.3346 55.1533 89.0472 53.5573 90.7526C53.4447 90.8729 53.3321 90.9932 53.2195 91.1134C51.2105 92.4207 48.2302 93.0733 45.4365 93.6851C45.0205 93.7762 44.6086 93.8663 44.2047 93.9576C43.7985 94.0495 43.4003 94.1424 43.0141 94.2386C42.9176 94.2626 42.8218 94.2869 42.7268 94.3113L42.8809 94.6196C47.7488 96.3211 52.0656 96.5971 55.9172 95.2592C55.99 95.2339 56.0626 95.2081 56.135 95.1816C57.8426 94.5586 59.4582 93.6148 60.9895 92.3335C61.4602 91.938 61.8847 91.4159 62.2283 90.8281C62.7631 89.9133 63.1022 88.8392 63.1159 87.8344C63.116 87.8313 63.116 87.8282 63.116 87.8251C63.1321 86.438 62.5265 85.1848 60.9571 84.6681C60.9423 84.6633 60.9275 84.6585 60.9126 84.6537C60.6036 84.5559 60.2579 84.4861 59.8731 84.4489C59.7405 84.4361 59.6032 84.4272 59.4612 84.4223C59.2599 84.6384 59.0587 84.8545 58.8575 85.0706C58.8061 85.1258 58.7548 85.181 58.7034 85.2362C58.584 85.3644 58.4646 85.4926 58.3453 85.6208Z" fill="url(#paint0_linear)"/>
<defs>
<linearGradient id="paint0_linear" x1="148.345" y1="-53.1402" x2="-13.3684" y2="141.749" gradientUnits="userSpaceOnUse">
<stop stop-color="#00ADFE"/>
<stop offset="1" stop-color="#3B7DFF"/>
</linearGradient>
</defs>
</svg>
