<svg width="155" height="103" viewBox="0 0 155 103" fill="none" xmlns="http://www.w3.org/2000/svg">
<path d="M150.375 4.24059L150.434 4.29688C151.237 5.05665 151.734 6.05675 151.916 7.3761C152.07 8.49434 152.009 9.90186 151.75 11.7271V11.8353L151.719 12.0488C150.816 18.2936 146.601 21.5688 143.261 23.9033C142.932 24.1442 142.594 24.3717 142.313 24.5611C142.255 24.6003 142.199 24.6378 142.146 24.6735C139.456 26.5266 137.305 28.0507 135.925 30.1873L150.375 4.24059ZM150.375 4.24059L150.312 4.18763M150.375 4.24059L150.312 4.18763M150.312 4.18763C149.381 3.39839 148.195 2.97762 146.977 3.00092M150.312 4.18763L146.977 3.00092M146.977 3.00092C145.733 3.0092 144.544 3.4051 143.716 3.73999C142.851 4.08955 142.077 4.50051 141.582 4.77126L141.276 4.92576C140.078 5.50023 138.774 5.82625 137.445 5.88353C135.581 5.9431 133.968 6.05273 131.898 6.26287L131.894 6.26326C118.414 7.64863 112.384 18.0141 107.419 26.5489C107.354 26.6601 107.29 26.771 107.225 26.8815L107.225 26.882C104.398 31.7409 101.713 36.3156 98.1111 39.8138C97.3849 40.5113 96.6144 41.1618 95.8044 41.7612L95.8004 41.7642C92.0682 44.5355 87.2723 46.559 83.2796 48.0814C79.5261 49.508 75.4182 50.7982 71.3398 52.0773C71.3398 52.0773 71.3398 52.0773 71.3398 52.0773L71.0902 52.1555C67.4848 53.2861 63.98 54.3852 60.7414 55.5874C59.3401 56.1043 58.1467 56.5039 57.066 56.8611C54.0471 57.8389 51.5983 58.6726 48.1519 61.0393C46.9042 61.8891 45.6296 62.8218 44.7259 63.5495C42.0533 65.6731 39.6887 68.1556 37.6996 70.9262L37.671 70.9661L37.6436 71.007C36.2047 73.1566 34.5454 75.1518 32.6923 76.9603C32.6649 76.9706 32.6234 76.9846 32.5647 77.0003C32.3115 77.0683 31.8678 77.1343 31.1627 77.1343C29.4312 77.1343 27.2465 76.7723 24.5456 76.3158C24.3758 76.2871 24.2031 76.2577 24.0278 76.228C21.6091 75.8169 18.7041 75.3231 16.1887 75.3231C13.9632 75.3231 11.9 75.6758 10.163 76.6706L10.1538 76.6759L10.1446 76.6812L11.654 79.2738C10.1446 76.6812 10.1441 76.6815 10.1436 76.6818L10.1426 76.6824L10.1404 76.6837L10.1355 76.6865L10.1236 76.6935L10.0916 76.7125C10.0668 76.7274 10.0349 76.7467 9.99672 76.7703C9.92049 76.8173 9.8184 76.8818 9.69669 76.9623C9.45523 77.1218 9.1263 77.3509 8.76358 77.6377C8.09604 78.1654 7.07081 79.076 6.38811 80.2842L4.76905 83.1496L7.77174 84.497L8.43877 84.7964C9.37899 85.3145 10.251 85.9464 11.035 86.6777L11.0404 86.6827C11.7213 87.3147 12.4469 87.8954 13.2111 88.4207C12.1371 89.8382 11.1709 91.1799 10.5366 92.3578C10.1513 93.0731 9.76621 93.9438 9.62957 94.8907C9.48074 95.9222 9.62066 97.1479 10.4325 98.237L10.8426 98.7873L11.4513 99.1045C12.3349 99.565 13.3208 99.7927 14.3157 99.7673C20.9762 99.7591 24.6951 97.9679 28.8452 95.9689L28.8893 95.9477L28.894 95.9454L29.0541 95.868C30.1879 95.3192 31.2801 94.7906 32.5638 94.2537L32.5801 94.2468L32.5964 94.2398C35.1952 93.1166 37.9217 91.3728 40.5281 89.7059L40.6979 89.5973L40.6984 89.597C44.3873 87.2371 47.7604 85.1016 50.9156 84.0869C53.5835 83.2791 56.3622 82.8917 59.1507 82.9389L59.1761 82.9394H59.2015C62.796 82.9394 66.623 83.4192 70.5339 83.918C73.4136 84.2872 76.4891 84.6795 79.5281 84.8862L79.5425 84.8872L79.557 84.888C80.746 84.9574 81.858 84.9928 82.953 84.9929M146.977 3.00092L129.544 55.1275C125.946 67.2869 121.011 75.8331 114.032 80.2252L113.94 80.2827L113.845 80.3335L111.339 81.6693L107.898 83.5038C103.276 90.9819 97.0889 95.9512 89.1108 98.3521C87.5997 98.9094 85.7703 99.1378 84.5082 99.2455C83.8178 99.3043 83.2071 99.3336 82.7678 99.3482C82.5472 99.3556 82.3676 99.3594 82.2402 99.3613C82.1764 99.3622 82.1254 99.3627 82.0888 99.363L82.0447 99.3632L82.0309 99.3633L82.0262 99.3633H82.0244H82.0236C82.0232 99.3633 82.0229 99.3633 82.0229 96.3633V99.3633H74.9975L79.8559 94.2886L82.5481 91.4766C84.0769 89.3585 85.5529 87.1954 86.8189 84.8189C85.5339 84.9383 84.2438 84.9964 82.953 84.9929M82.953 84.9929C82.9521 84.9929 82.9512 84.9929 82.9503 84.9929L82.9585 81.9929V84.9929C82.9567 84.9929 82.9548 84.9929 82.953 84.9929ZM133.099 40.6502L133.098 40.6534L133.057 40.8417C132.12 45.1334 131.034 50.1061 129.544 55.1269C129.545 55.1264 129.545 55.126 129.545 55.1256L133.099 40.6502ZM133.099 40.6502C133.671 38.0161 134.185 35.6598 134.691 33.7462M133.099 40.6502L134.691 33.7462M134.691 33.7462C135.228 31.7157 135.655 30.6062 135.924 30.1887L134.691 33.7462Z" stroke="url(#paint0_linear)" stroke-width="6"/>
<defs>
<linearGradient id="paint0_linear" x1="161.25" y1="-29.5025" x2="69.3201" y2="140.694" gradientUnits="userSpaceOnUse">
<stop stop-color="#00ADFE"/>
<stop offset="1" stop-color="#3B7DFF"/>
</linearGradient>
</defs>
</svg>
