<svg width="136" height="136" viewBox="0 0 136 136" fill="none" xmlns="http://www.w3.org/2000/svg">
<path d="M33.7423 55.2943L35.3571 52.766V52.766L33.7423 55.2943ZM33.204 56.1371L31.5891 58.6653L31.5891 58.6653L33.204 56.1371ZM64.611 76.1979L66.2259 73.6696V73.6696L64.611 76.1979ZM69.9681 76.2192L71.5627 78.7603H71.5627L69.9681 76.2192ZM101.936 56.1584L103.531 58.6995L103.531 58.6995L101.936 56.1584ZM101.404 55.3114L99.8099 52.7703L99.8098 52.7703L101.404 55.3114ZM69.4365 75.3722L71.0311 77.9133L71.0311 77.9133L69.4365 75.3722ZM65.1493 75.3551L66.7642 72.8269L66.7642 72.8269L65.1493 75.3551ZM6 23C6 13.6112 13.6112 6 23 6V0C10.2975 0 0 10.2974 0 23H6ZM6 113V23H0V113H6ZM23 130C13.6112 130 6 122.389 6 113H0C0 125.703 10.2974 136 23 136V130ZM113 130H23V136H113V130ZM130 113C130 122.389 122.389 130 113 130V136C125.703 136 136 125.703 136 113H130ZM130 23V113H136V23H130ZM113 6C122.389 6 130 13.6112 130 23H136C136 10.2975 125.703 0 113 0V6ZM23 6H113V0H23V6ZM31.9735 33.8629C25.6517 33.8629 20.5 38.9591 20.5 45.2788H26.5C26.5 42.3085 28.9296 39.8629 31.9735 39.8629V33.8629ZM103.761 33.8629H31.9735V39.8629H103.761V33.8629ZM115.235 45.2788C115.235 38.9591 110.083 33.8629 103.761 33.8629V39.8629C106.805 39.8629 109.235 42.3085 109.235 45.2788H115.235ZM115.235 98.7744V45.2788H109.235V98.7744H115.235ZM103.761 110.19C110.083 110.19 115.235 105.094 115.235 98.7744H109.235C109.235 101.745 106.805 104.19 103.761 104.19V110.19ZM31.9735 110.19H103.761V104.19H31.9735V110.19ZM20.5 98.7744C20.5 105.094 25.6517 110.19 31.9735 110.19V104.19C28.9296 104.19 26.5 101.745 26.5 98.7744H20.5ZM20.5 45.2788V98.7744H26.5V45.2788H20.5ZM25.5 45.2788C25.5 41.7508 28.3828 38.8629 31.9735 38.8629V32.8629C25.1061 32.8629 19.5 38.4002 19.5 45.2788H25.5ZM25.5 98.7744V45.2788H19.5V98.7744H25.5ZM31.9735 105.19C28.3828 105.19 25.5 102.302 25.5 98.7744H19.5C19.5 105.653 25.1061 111.19 31.9735 111.19V105.19ZM103.761 105.19H31.9735V111.19H103.761V105.19ZM110.235 98.7744C110.235 102.302 107.352 105.19 103.761 105.19V111.19C110.628 111.19 116.235 105.653 116.235 98.7744H110.235ZM110.235 45.2788V98.7744H116.235V45.2788H110.235ZM103.761 38.8629C107.352 38.8629 110.235 41.7508 110.235 45.2788H116.235C116.235 38.4002 110.628 32.8629 103.761 32.8629V38.8629ZM31.9735 38.8629H103.761V32.8629H31.9735V38.8629ZM35.58 57.0614C34.8368 58.225 33.291 58.5658 32.1274 57.8226L35.3571 52.766C33.7281 51.7255 31.564 52.2026 30.5235 53.8316L35.58 57.0614ZM34.8189 53.6088C35.9824 54.352 36.3232 55.8978 35.58 57.0614L30.5235 53.8316C29.4829 55.4607 29.96 57.6248 31.5891 58.6653L34.8189 53.6088ZM66.2259 73.6696L34.8188 53.6088L31.5891 58.6653L62.9961 78.7262L66.2259 73.6696ZM68.3735 73.6781C67.7175 74.0898 66.8784 74.0864 66.2259 73.6696L62.9961 78.7262C65.6035 80.3916 68.9421 80.4048 71.5627 78.7603L68.3735 73.6781ZM100.341 53.6173L68.3734 73.6781L71.5627 78.7603L103.531 58.6995L100.341 53.6173ZM99.5526 57.0637C98.8187 55.8942 99.1719 54.3512 100.341 53.6173L103.531 58.6995C105.168 57.672 105.662 55.5118 104.635 53.8745L99.5526 57.0637ZM102.999 57.8525C101.83 58.5864 100.287 58.2332 99.5526 57.0637L104.635 53.8745C103.607 52.2372 101.447 51.7428 99.8099 52.7703L102.999 57.8525ZM71.0311 77.9133L102.999 57.8525L99.8098 52.7703L67.8419 72.8311L71.0311 77.9133ZM63.5344 77.8834C65.816 79.3407 68.738 79.3523 71.0311 77.9133L67.8419 72.8311C67.5134 73.0372 67.0908 73.0355 66.7642 72.8269L63.5344 77.8834ZM32.1274 57.8226L63.5344 77.8834L66.7642 72.8269L35.3571 52.766L32.1274 57.8226Z" fill="url(#paint0_linear)"/>
<defs>
<linearGradient id="paint0_linear" x1="144.375" y1="-47.8468" x2="-10.4721" y2="138.022" gradientUnits="userSpaceOnUse">
<stop stop-color="#00ADFE"/>
<stop offset="1" stop-color="#3B7DFF"/>
</linearGradient>
</defs>
</svg>
