<svg width="144" height="125" viewBox="0 0 144 125" fill="none" xmlns="http://www.w3.org/2000/svg">
<path d="M2.00195 30.6381V44.7918C2.00195 46.2041 3.95171 47.6987 7.66027 49.4715C15.0799 53.0171 56.2683 69.6571 62.7785 72.7673C69.2878 75.8792 73.8655 75.9212 82.1056 71.6258C90.3458 67.3287 129.051 51.4139 136.523 47.5193C140.326 45.5374 142.006 44.0025 142.005 42.605C142.005 41.2923 142.008 28.653 142.008 28.653" stroke="url(#paint0_linear)" stroke-width="3"/>
<path d="M90.3504 19.7337L78.219 20.993L75.503 27.5278L71.1163 20.2358L57.1085 18.9766L67.5609 15.2071L64.4251 9.42126L74.2109 13.2483L83.437 10.2278L80.9432 16.2112L90.3504 19.7337Z" stroke="url(#paint1_linear)" stroke-width="3" stroke-linecap="round" stroke-linejoin="round"/>
<path d="M74.7787 51.4368L52.1373 42.0461L84.5809 37.0668L74.7787 51.4368Z" stroke="url(#paint2_linear)" stroke-width="3" stroke-linecap="round" stroke-linejoin="round"/>
<path d="M43.3886 36.8091C52.9654 36.8091 60.7289 33.7997 60.7289 30.0875C60.7289 26.3752 52.9654 23.3658 43.3886 23.3658C33.8118 23.3658 26.0483 26.3752 26.0483 30.0875C26.0483 33.7997 33.8118 36.8091 43.3886 36.8091Z" stroke="url(#paint3_linear)" stroke-width="3" stroke-linecap="round" stroke-linejoin="round"/>
<path d="M82.1055 81.4025L82.7988 82.7326L82.799 82.7325L82.1055 81.4025ZM62.7783 82.544L63.4252 81.1907L63.4249 81.1906L62.7783 82.544ZM7.66008 59.2482L8.30683 57.8948L8.30683 57.8948L7.66008 59.2482ZM136.523 71.5193L135.829 70.1891L135.829 70.1891L136.523 71.5193ZM82.1056 95.6258L82.799 96.9559L82.7992 96.9558L82.1056 95.6258ZM62.7785 96.7673L63.4254 95.414L63.4251 95.4138L62.7785 96.7673ZM7.66027 73.4715L7.01334 74.8248L7.01352 74.8249L7.66027 73.4715ZM142.005 66.605L140.505 66.605L140.505 66.6059L142.005 66.605ZM82.1055 105.402L82.7988 106.733L82.799 106.732L82.1055 105.402ZM62.7783 106.544L63.4252 105.191L63.4249 105.191L62.7783 106.544ZM7.66008 83.2482L8.30683 81.8948L8.30683 81.8948L7.66008 83.2482ZM136.523 95.5193L135.829 94.1891L135.829 94.1891L136.523 95.5193ZM82.1056 119.626L82.799 120.956L82.7992 120.956L82.1056 119.626ZM62.7785 120.767L63.4254 119.414L63.4251 119.414L62.7785 120.767ZM7.66027 97.4715L7.01334 98.8248L7.01352 98.8249L7.66027 97.4715ZM142.005 90.605L140.505 90.605L140.505 90.6059L142.005 90.605ZM136.522 33.3632L135.829 32.033L135.829 32.033L136.522 33.3632ZM82.1055 57.4689L82.7988 58.799L82.7989 58.7989L82.1055 57.4689ZM7.37366 26.4736L7.92062 27.8703L7.92067 27.8703L7.37366 26.4736ZM64.2828 4.44279L64.7893 5.85468L64.7894 5.85465L64.2828 4.44279ZM83.3095 3.92429L82.7934 5.3327L82.7936 5.33277L83.3095 3.92429ZM136.432 24.6037L135.916 26.0121L135.916 26.0122L136.432 24.6037ZM105.242 21L105.794 19.605C105.439 19.4649 105.045 19.465 104.691 19.6052L105.242 21ZM124.444 28.5883L124.994 29.9835C125.567 29.7574 125.943 29.2043 125.944 28.5886C125.944 27.9728 125.568 27.4196 124.995 27.1932L124.444 28.5883ZM103.176 36.9831L102.625 38.3781C102.979 38.518 103.373 38.5181 103.727 38.3783L103.176 36.9831ZM84 29.4031L83.4482 28.0082C82.8759 28.2347 82.4999 28.7878 82.5 29.4033C82.5001 30.0188 82.8762 30.5718 83.4486 30.798L84 29.4031ZM135.829 55.9667C132.158 57.8801 120.694 62.7993 109.01 67.8206C97.409 72.8062 85.5966 77.8902 81.4119 80.0725L82.799 82.7325C86.8545 80.6177 98.5148 75.5962 110.194 70.5768C121.791 65.5932 133.415 60.6081 137.216 58.6269L135.829 55.9667ZM81.4121 80.0723C77.3794 82.1745 74.3999 83.1295 71.7239 83.2526C69.0736 83.3745 66.5566 82.6877 63.4252 81.1907L62.1313 83.8973C65.5092 85.5122 68.5358 86.4024 71.8617 86.2494C75.1619 86.0976 78.5914 84.9258 82.7988 82.7326L81.4121 80.0723ZM63.4249 81.1906C60.1229 79.6131 48.1393 74.6517 36.1348 69.6738C24.0663 64.6693 11.97 59.6453 8.30683 57.8948L7.01333 60.6016C10.7697 62.3967 22.9774 67.4655 34.9857 72.445C47.0578 77.451 58.9235 82.3648 62.1317 83.8975L63.4249 81.1906ZM8.30683 57.8948C6.48946 57.0263 5.21534 56.27 4.40979 55.6112C3.55929 54.9157 3.50175 54.552 3.5001 54.5097C3.49987 54.504 3.49384 54.4512 3.57543 54.3211C3.66716 54.175 3.8549 53.9586 4.21274 53.6843C4.93917 53.1273 6.1406 52.5004 7.92075 51.8031L6.82657 49.0098C4.96235 49.74 3.44996 50.4889 2.38746 51.3034C1.34872 52.0998 0.446258 53.194 0.502394 54.6271C0.555983 55.9951 1.47297 57.0849 2.51062 57.9335C3.59323 58.8189 5.1209 59.6973 7.01333 60.6016L8.30683 57.8948ZM135.916 49.9441C137.703 50.5991 138.944 51.1852 139.719 51.7184C140.102 51.9819 140.313 52.1937 140.422 52.3415C140.473 52.4115 140.495 52.4578 140.503 52.4805C140.508 52.4919 140.509 52.4988 140.51 52.5018C140.51 52.5047 140.511 52.5061 140.511 52.507C140.511 52.508 140.511 52.5112 140.51 52.5176C140.509 52.5242 140.507 52.5361 140.502 52.5538C140.491 52.5897 140.467 52.6522 140.412 52.7427C140.299 52.9315 140.082 53.1948 139.698 53.5304C138.922 54.2074 137.665 55.0098 135.829 55.9667L137.216 58.6269C139.116 57.6365 140.625 56.7036 141.671 55.7898C142.67 54.9175 143.556 53.7929 143.509 52.4057C143.461 50.9881 142.469 49.9687 141.419 49.2468C140.327 48.4956 138.802 47.8064 136.948 47.1272L135.916 49.9441ZM135.829 70.1891C132.159 72.1026 120.694 77.022 109.01 82.0435C97.4091 87.0293 85.5968 92.1135 81.4121 94.2957L82.7992 96.9558C86.8547 94.841 98.5151 89.8193 110.195 84.7997C121.791 79.8159 133.415 74.8306 137.216 72.8494L135.829 70.1891ZM81.4123 94.2956C77.3796 96.3978 74.4001 97.3527 71.7241 97.4758C69.0738 97.5977 66.5568 96.911 63.4254 95.414L62.1315 98.1206C65.5094 99.7355 68.536 100.626 71.8619 100.473C75.1621 100.321 78.5916 99.1491 82.799 96.9559L81.4123 94.2956ZM63.4251 95.4138C60.1231 93.8363 48.1394 88.875 36.135 83.8971C24.0665 78.8926 11.9702 73.8686 8.30702 72.1181L7.01352 74.8249C10.7699 76.62 22.9776 81.6888 34.9858 86.6683C47.058 91.6743 58.9237 96.5881 62.1318 98.1208L63.4251 95.4138ZM8.3072 72.1182C6.48627 71.2477 5.19825 70.4912 4.38563 69.8317C3.98238 69.5045 3.74621 69.2407 3.6182 69.0459C3.55668 68.9522 3.52768 68.8858 3.51427 68.8461C3.50162 68.8086 3.50195 68.7926 3.50195 68.7917H0.501954C0.501954 70.2085 1.4614 71.3222 2.49518 72.1611C3.58457 73.0452 5.12571 73.9225 7.01334 74.8248L8.3072 72.1182ZM3.50195 68.7917V54.6381H0.501954V68.7917H3.50195ZM142.008 52.653C140.508 52.6526 140.508 52.6527 140.508 52.6528C140.508 52.6529 140.508 52.653 140.508 52.6532C140.508 52.6536 140.508 52.6542 140.508 52.6549C140.508 52.6565 140.508 52.6587 140.508 52.6618C140.508 52.6679 140.508 52.6769 140.508 52.6889C140.508 52.7129 140.508 52.7484 140.508 52.7949C140.508 52.8878 140.508 53.0242 140.508 53.1983C140.508 53.5464 140.508 54.0453 140.508 54.648C140.507 55.8535 140.507 57.4744 140.506 59.1364C140.506 62.4601 140.505 65.9484 140.505 66.605H143.505C143.505 65.9489 143.506 62.4612 143.506 59.1371C143.507 57.4751 143.507 55.8542 143.508 54.6488C143.508 54.0461 143.508 53.5472 143.508 53.1991C143.508 53.025 143.508 52.8886 143.508 52.7957C143.508 52.7492 143.508 52.7137 143.508 52.6897C143.508 52.6777 143.508 52.6686 143.508 52.6626C143.508 52.6595 143.508 52.6572 143.508 52.6557C143.508 52.6549 143.508 52.6544 143.508 52.654C143.508 52.6538 143.508 52.6536 143.508 52.6535C143.508 52.6535 143.508 52.6534 142.008 52.653ZM140.505 66.6059C140.505 66.6689 140.466 67.0265 139.686 67.7283C138.932 68.4081 137.692 69.2183 135.829 70.1891L137.216 72.8495C139.156 71.8384 140.658 70.8902 141.694 69.9577C142.705 69.0472 143.506 67.9386 143.505 66.6041L140.505 66.6059ZM135.829 79.9667C132.158 81.8801 120.694 86.7993 109.01 91.8206C97.409 96.8062 85.5966 101.89 81.4119 104.072L82.799 106.732C86.8545 104.618 98.5148 99.5962 110.194 94.5768C121.791 89.5932 133.415 84.6081 137.216 82.6269L135.829 79.9667ZM81.4121 104.072C77.3794 106.174 74.3999 107.129 71.7239 107.253C69.0736 107.374 66.5566 106.688 63.4252 105.191L62.1313 107.897C65.5092 109.512 68.5358 110.402 71.8617 110.249C75.1619 110.098 78.5914 108.926 82.7988 106.733L81.4121 104.072ZM63.4249 105.191C60.1229 103.613 48.1393 98.6517 36.1348 93.6738C24.0663 88.6693 11.97 83.6453 8.30683 81.8948L7.01333 84.6016C10.7697 86.3967 22.9774 91.4655 34.9857 96.445C47.0578 101.451 58.9235 106.365 62.1317 107.898L63.4249 105.191ZM8.30683 81.8948C6.48946 81.0263 5.21534 80.27 4.40979 79.6112C3.55929 78.9157 3.50175 78.552 3.5001 78.5097C3.49987 78.504 3.49384 78.4512 3.57543 78.3211C3.66716 78.175 3.8549 77.9586 4.21274 77.6843C4.93917 77.1273 6.1406 76.5004 7.92075 75.8031L6.82657 73.0098C4.96235 73.74 3.44996 74.4889 2.38746 75.3034C1.34872 76.0998 0.446258 77.194 0.502394 78.6271C0.555983 79.9951 1.47297 81.0849 2.51062 81.9335C3.59323 82.8189 5.1209 83.6973 7.01333 84.6016L8.30683 81.8948ZM135.916 73.9441C137.703 74.5991 138.944 75.1852 139.719 75.7184C140.102 75.9819 140.313 76.1937 140.422 76.3415C140.473 76.4115 140.495 76.4578 140.503 76.4805C140.508 76.4919 140.509 76.4988 140.51 76.5018C140.51 76.5047 140.511 76.5061 140.511 76.507C140.511 76.508 140.511 76.5112 140.51 76.5176C140.509 76.5242 140.507 76.5361 140.502 76.5538C140.491 76.5897 140.467 76.6523 140.412 76.7428C140.299 76.9315 140.082 77.1948 139.698 77.5304C138.922 78.2074 137.665 79.0098 135.829 79.9667L137.216 82.6269C139.116 81.6365 140.625 80.7036 141.671 79.7898C142.67 78.9175 143.556 77.7929 143.509 76.4057C143.461 74.9881 142.469 73.9687 141.419 73.2468C140.327 72.4956 138.802 71.8064 136.948 71.1272L135.916 73.9441ZM135.829 94.1891C132.159 96.1026 120.694 101.022 109.01 106.043C97.4091 111.029 85.5968 116.114 81.4121 118.296L82.7992 120.956C86.8547 118.841 98.5151 113.819 110.195 108.8C121.791 103.816 133.415 98.8306 137.216 96.8494L135.829 94.1891ZM81.4123 118.296C77.3796 120.398 74.4001 121.353 71.7241 121.476C69.0738 121.598 66.5568 120.911 63.4254 119.414L62.1315 122.121C65.5094 123.735 68.536 124.626 71.8619 124.473C75.1621 124.321 78.5916 123.149 82.799 120.956L81.4123 118.296ZM63.4251 119.414C60.1231 117.836 48.1394 112.875 36.135 107.897C24.0665 102.893 11.9702 97.8686 8.30702 96.1181L7.01352 98.8249C10.7699 100.62 22.9776 105.689 34.9858 110.668C47.058 115.674 58.9237 120.588 62.1318 122.121L63.4251 119.414ZM8.3072 96.1182C6.48627 95.2477 5.19825 94.4912 4.38563 93.8317C3.98238 93.5045 3.74621 93.2407 3.6182 93.0459C3.55668 92.9522 3.52768 92.8858 3.51427 92.8461C3.50162 92.8086 3.50195 92.7926 3.50195 92.7917H0.501954C0.501954 94.2085 1.4614 95.3222 2.49518 96.1611C3.58457 97.0452 5.12571 97.9225 7.01334 98.8248L8.3072 96.1182ZM3.50195 92.7917V78.6381H0.501954V92.7917H3.50195ZM142.008 76.653C140.508 76.6526 140.508 76.6527 140.508 76.6528C140.508 76.6529 140.508 76.653 140.508 76.6532C140.508 76.6536 140.508 76.6542 140.508 76.6549C140.508 76.6565 140.508 76.6587 140.508 76.6618C140.508 76.6679 140.508 76.6769 140.508 76.6889C140.508 76.7129 140.508 76.7484 140.508 76.7949C140.508 76.8878 140.508 77.0242 140.508 77.1983C140.508 77.5464 140.508 78.0453 140.508 78.648C140.507 79.8535 140.507 81.4744 140.506 83.1363C140.506 86.4601 140.505 89.9484 140.505 90.605H143.505C143.505 89.9489 143.506 86.4612 143.506 83.1371C143.507 81.4751 143.507 79.8542 143.508 78.6488C143.508 78.0461 143.508 77.5472 143.508 77.1991C143.508 77.025 143.508 76.8886 143.508 76.7957C143.508 76.7492 143.508 76.7137 143.508 76.6897C143.508 76.6777 143.508 76.6686 143.508 76.6626C143.508 76.6595 143.508 76.6572 143.508 76.6557C143.508 76.6549 143.508 76.6544 143.508 76.654C143.508 76.6538 143.508 76.6536 143.508 76.6535C143.508 76.6534 143.508 76.6534 142.008 76.653ZM140.505 90.6059C140.505 90.6689 140.466 91.0265 139.686 91.7283C138.932 92.4081 137.692 93.2183 135.829 94.1891L137.216 96.8495C139.156 95.8384 140.658 94.8902 141.694 93.9577C142.705 93.0472 143.506 91.9386 143.505 90.6041L140.505 90.6059ZM135.829 32.033C132.158 33.9464 120.694 38.8659 109.01 43.8873C97.4089 48.873 85.5966 53.957 81.412 56.1388L82.7989 58.7989C86.8544 56.6845 98.5149 51.663 110.194 46.6435C121.791 41.6598 133.415 36.6745 137.216 34.6933L135.829 32.033ZM81.4121 56.1387C77.3794 58.2409 74.3999 59.1958 71.7238 59.319C69.0735 59.441 66.5565 58.7545 63.4251 57.2578L62.1315 59.9646C65.5094 61.579 68.5359 62.469 71.8618 62.3159C75.162 62.1639 78.5914 60.9922 82.7988 58.799L81.4121 56.1387ZM63.4251 57.2578C60.1234 55.6798 48.1396 50.7185 36.1351 45.7407C24.0665 40.7363 11.97 35.7125 8.30683 33.962L7.01333 36.6688C10.7697 38.4639 22.9777 43.5325 34.986 48.5119C47.0584 53.5178 58.9238 58.4315 62.1315 59.9646L63.4251 57.2578ZM8.30683 33.962C6.48949 33.0935 5.21538 32.3372 4.40984 31.6783C3.55937 30.9828 3.50176 30.619 3.5001 30.5765C3.49987 30.5708 3.49385 30.518 3.57544 30.388C3.66717 30.2418 3.8549 30.0254 4.21271 29.7511C4.9391 29.1943 6.14049 28.5674 7.92062 27.8703L6.82671 25.0769C4.96246 25.8069 3.45003 26.5557 2.38749 27.3702C1.34868 28.1666 0.446262 29.2609 0.502395 30.694C0.555979 32.062 1.47289 33.1519 2.51057 34.0006C3.59319 34.886 5.12087 35.7645 7.01333 36.6688L8.30683 33.962ZM7.92067 27.8703C15.2281 25.0084 56.1579 8.95115 64.7893 5.85468L63.7763 3.03089C55.0911 6.14664 14.095 22.2303 6.82665 25.0769L7.92067 27.8703ZM64.7894 5.85465C69.1029 4.30691 71.8249 3.57729 74.3227 3.50581C76.7888 3.43523 79.1665 4.00366 82.7934 5.3327L83.8256 2.51587C80.0856 1.14538 77.2782 0.420003 74.2369 0.507035C71.2272 0.593162 68.1193 1.47255 63.7762 3.03092L64.7894 5.85465ZM82.7936 5.33277C86.456 6.67426 97.8916 11.1673 109.355 15.6718C120.791 20.1654 132.254 24.6706 135.916 26.0121L136.948 23.1952C133.329 21.8694 121.915 17.3842 110.452 12.8796C99.0162 8.38593 87.5308 3.87302 83.8254 2.5158L82.7936 5.33277ZM135.916 26.0122C137.704 26.6668 138.944 27.2527 139.719 27.7857C140.102 28.0491 140.313 28.2608 140.422 28.4086C140.473 28.4785 140.495 28.5249 140.503 28.5475C140.508 28.5588 140.509 28.5657 140.51 28.5687C140.51 28.5716 140.511 28.573 140.511 28.5739C140.511 28.5748 140.511 28.5781 140.51 28.5845C140.509 28.5911 140.507 28.6029 140.502 28.6207C140.491 28.6565 140.467 28.7191 140.412 28.8095C140.299 28.9982 140.082 29.2615 139.698 29.5971C138.922 30.2741 137.665 31.0763 135.829 32.033L137.216 34.6934C139.116 33.7031 140.625 32.7704 141.671 31.8566C142.67 30.9843 143.556 29.8598 143.509 28.4726C143.461 27.0549 142.468 26.0356 141.419 25.3138C140.327 24.5629 138.801 23.8739 136.948 23.1952L135.916 26.0122ZM104.691 22.395L123.892 29.9833L124.995 27.1932L105.794 19.605L104.691 22.395ZM123.893 27.193L102.626 35.5879L103.727 38.3783L124.994 29.9835L123.893 27.193ZM84.5518 30.7979L105.794 22.3948L104.691 19.6052L83.4482 28.0082L84.5518 30.7979ZM103.728 35.5881L84.5514 28.0081L83.4486 30.798L102.625 38.3781L103.728 35.5881Z" fill="url(#paint4_linear)"/>
<defs>
<linearGradient id="paint0_linear" x1="11.5262" y1="71.5144" x2="57.0687" y2="-4.26532" gradientUnits="userSpaceOnUse">
<stop stop-color="#FF6767"/>
<stop offset="1" stop-color="#E14BB8"/>
</linearGradient>
<linearGradient id="paint1_linear" x1="30.4226" y1="48.2856" x2="76.5124" y2="9.44077" gradientUnits="userSpaceOnUse">
<stop stop-color="#FF6767"/>
<stop offset="1" stop-color="#E14BB8"/>
</linearGradient>
<linearGradient id="paint2_linear" x1="30.4226" y1="48.2856" x2="76.5124" y2="9.44077" gradientUnits="userSpaceOnUse">
<stop stop-color="#FF6767"/>
<stop offset="1" stop-color="#E14BB8"/>
</linearGradient>
<linearGradient id="paint3_linear" x1="30.4226" y1="48.2856" x2="76.5124" y2="9.44077" gradientUnits="userSpaceOnUse">
<stop stop-color="#FF6767"/>
<stop offset="1" stop-color="#E14BB8"/>
</linearGradient>
<linearGradient id="paint4_linear" x1="11.5246" y1="113.915" x2="133.591" y2="36.1254" gradientUnits="userSpaceOnUse">
<stop stop-color="#FF6767"/>
<stop offset="1" stop-color="#E14BB8"/>
</linearGradient>
</defs>
</svg>
