<svg width="125" height="112" viewBox="0 0 125 112" fill="none" xmlns="http://www.w3.org/2000/svg">
<path d="M104.084 109.5C104.119 107.932 104.116 106.365 104.079 104.801H113.392C114.167 104.81 114.93 104.613 115.604 104.232C116.285 103.847 116.851 103.288 117.244 102.613L115.085 101.354L117.244 102.613C117.637 101.939 117.845 101.173 117.847 100.393C117.848 99.6138 117.644 98.8475 117.255 98.172C117.254 98.1713 117.254 98.1706 117.253 98.17L66.302 9.40885L66.301 9.40714C65.9156 8.73698 65.3607 8.17878 64.6905 7.78997L63.436 9.9524L64.6905 7.78996C64.0202 7.4011 63.2589 7.19584 62.4832 7.19584C61.7074 7.19584 60.9462 7.40111 60.2759 7.78996L61.5304 9.9524L60.2759 7.78997C59.6058 8.17875 59.0508 8.73694 58.6654 9.40716L58.6636 9.41026L46.9791 29.7962L45.8083 31.8388L47.7772 33.1299C60.0145 41.1548 70.0716 52.1218 77.0381 65.0403C84.0047 77.9589 87.6604 92.4211 87.674 107.119V109.458H61.8878V107.108V107.106C61.8792 97.0256 59.4427 87.0964 54.7861 78.1679C50.1295 69.2394 43.3909 61.5767 35.1456 55.8365L32.9067 54.2778L31.5489 56.6439L25.7697 66.7143L24.6509 68.6638L26.4708 69.9829C32.3238 74.2254 37.0916 79.8075 40.3798 86.2698C43.668 92.7322 45.382 99.889 45.3797 107.15V107.151V109.492H11.5496C11.5496 109.492 11.5495 109.492 11.5495 109.492C9.96403 109.491 8.40571 109.072 7.03092 108.274C5.656 107.475 4.51239 106.326 3.71641 104.94C2.92036 103.554 2.50048 101.98 2.5 100.378C2.49952 98.7751 2.91846 97.2014 3.71368 95.8148L3.71751 95.808L9.92196 84.9112C11.3454 85.555 12.704 86.3357 13.9788 87.2422L7.70465 98.1699C7.7039 98.1712 7.70316 98.1725 7.70241 98.1738C7.31339 98.8489 7.10981 99.6145 7.11142 100.393C7.11302 101.173 7.32053 101.939 7.71381 102.613L9.87343 101.354L7.71383 102.613C8.10717 103.288 8.67268 103.847 9.35395 104.232L10.5841 102.056L9.35395 104.232C10.0282 104.613 10.7912 104.81 11.5661 104.801H37.9508H40.8078L40.4287 101.97C39.5909 95.7118 37.3492 89.7268 33.8721 84.4672C30.395 79.2076 25.7734 74.8108 20.3559 71.6103L20.3451 71.6039L20.3342 71.5976L18.2904 70.4177L31.1488 47.9314L33.1676 49.0928C33.1691 49.0936 33.1707 49.0945 33.1722 49.0954C42.6209 54.5819 50.589 62.3164 56.3772 71.6221C62.1663 80.9294 65.5976 91.524 66.3692 102.477L66.533 104.801H68.863H80.4215H83.0769L82.917 102.151C82.0845 88.3525 77.8673 74.9756 70.641 63.2145C63.4146 51.4533 53.4037 41.6736 41.5011 34.75L41.494 34.7458L39.4537 33.568L54.6758 7.04961C54.676 7.04929 54.6761 7.04898 54.6763 7.04866C55.4725 5.66348 56.6159 4.51507 57.9904 3.71732C59.3651 2.91946 60.9232 2.5 62.5084 2.5C64.0936 2.5 65.6517 2.91946 67.0264 3.71732C68.4012 4.51525 69.5448 5.66399 70.341 7.04961L121.286 95.8232C122.082 97.2098 122.5 98.7836 122.5 100.386C122.5 101.989 122.08 103.562 121.284 104.949C120.488 106.335 119.344 107.484 117.969 108.282C116.594 109.08 115.036 109.5 113.451 109.5C113.45 109.5 113.45 109.5 113.45 109.5H104.084Z" stroke="url(#paint0_linear)" stroke-width="5"/>
<defs>
<linearGradient id="paint0_linear" x1="135.938" y1="-43.8065" x2="5.89982" y2="130.4" gradientUnits="userSpaceOnUse">
<stop stop-color="#00ADFE"/>
<stop offset="1" stop-color="#3B7DFF"/>
</linearGradient>
</defs>
</svg>
