<svg width="125" height="112" viewBox="0 0 125 112" fill="none" xmlns="http://www.w3.org/2000/svg">
<path d="M104.084 109.5C104.119 107.932 104.116 106.365 104.079 104.801H113.393C114.167 104.81 114.93 104.613 115.604 104.232C116.285 103.847 116.851 103.288 117.244 102.613C117.637 101.939 117.845 101.173 117.847 100.393C117.848 99.6146 117.645 98.8491 117.256 98.1741L117.257 98.1758L104.084 109.5ZM104.084 109.5H113.45C113.45 109.5 113.45 109.5 113.451 109.5C115.036 109.5 116.594 109.08 117.969 108.282C119.344 107.484 120.488 106.335 121.284 104.949C122.08 103.562 122.5 101.989 122.5 100.386C122.5 98.7838 122.082 97.2103 121.287 95.8238C121.287 95.8236 121.286 95.8234 121.286 95.8232L70.341 7.04961C69.5448 5.66399 68.4012 4.51525 67.0264 3.71732C65.6517 2.91946 64.0936 2.5 62.5084 2.5C60.9232 2.5 59.3651 2.91946 57.9904 3.71732C56.6159 4.51507 55.4725 5.66348 54.6763 7.04866C54.6761 7.04898 54.676 7.04929 54.6758 7.04961L39.4537 33.568L41.494 34.7458L41.5011 34.75C53.4037 41.6736 63.4146 51.4533 70.641 63.2145C77.8673 74.9756 82.0845 88.3525 82.917 102.151L83.0769 104.801H80.4215H68.863H66.533L66.3692 102.477C65.5976 91.524 62.1663 80.9294 56.3772 71.6221C50.589 62.3164 42.6209 54.5819 33.1722 49.0954C33.1707 49.0945 33.1691 49.0936 33.1676 49.0928L31.1488 47.9314L18.2904 70.4177L20.3342 71.5976L20.3451 71.6039L20.3559 71.6103C25.7734 74.8108 30.395 79.2076 33.8721 84.4672C37.3492 89.7268 39.5909 95.7118 40.4287 101.97L40.8078 104.801H37.9508H11.5655C10.7908 104.81 10.028 104.613 9.35394 104.232C8.67269 103.847 8.10716 103.288 7.71382 102.613C7.32053 101.939 7.11302 101.173 7.11141 100.393C7.10981 99.6139 7.31372 98.8476 7.70336 98.1722C7.70379 98.1714 7.70422 98.1707 7.70465 98.1699L13.9788 87.2422C12.704 86.3357 11.3454 85.5551 9.92196 84.9112L3.71751 95.808L3.71368 95.8148C2.91846 97.2014 2.49952 98.7751 2.5 100.378C2.50048 101.98 2.92036 103.554 3.7164 104.94C4.51239 106.326 5.656 107.475 7.03092 108.274C8.40571 109.072 9.96403 109.491 11.5495 109.492C11.5495 109.492 11.5496 109.492 11.5496 109.492H45.3797V107.151V107.15C45.382 99.889 43.668 92.7322 40.3798 86.2698C37.0916 79.8075 32.3238 74.2254 26.4708 69.9829L24.6509 68.6638L25.7697 66.7143L31.5489 56.6439L32.9067 54.2778L35.1456 55.8365C43.3909 61.5767 50.1295 69.2394 54.7861 78.1679C59.4427 87.0964 61.8792 97.0256 61.8878 107.106L61.8878 107.108L61.8878 109.458H87.674V107.119C87.6604 92.4211 84.0047 77.9589 77.0381 65.0403C70.0716 52.1218 60.0145 41.1548 47.7772 33.1299L45.8083 31.8388L46.9791 29.7962L58.6636 9.41026L58.6654 9.40714C59.0508 8.73695 59.6057 8.17875 60.2759 7.78996C60.9462 7.4011 61.7074 7.19584 62.4832 7.19584C63.2589 7.19584 64.0202 7.40109 64.6905 7.78996C65.3607 8.17877 65.9156 8.73699 66.301 9.40714L66.302 9.40885L117.253 98.1699L104.084 109.5Z" stroke="url(#paint0_linear)" stroke-width="5"/>
<defs>
<linearGradient id="paint0_linear" x1="135.938" y1="-43.8065" x2="5.89982" y2="130.4" gradientUnits="userSpaceOnUse">
<stop stop-color="#00ADFE"/>
<stop offset="1" stop-color="#3B7DFF"/>
</linearGradient>
</defs>
</svg>
