<svg width="128" height="122" viewBox="0 0 128 122" fill="none" xmlns="http://www.w3.org/2000/svg">
<path fill-rule="evenodd" clip-rule="evenodd" d="M3.00004 46.3737C3.00004 22.4091 22.4536 3 46.4286 3H81.2733C105.248 3 124.702 22.4091 124.702 46.3737C124.702 70.3383 105.248 89.7474 81.2733 89.7474H80.3541V111.214C80.3541 113.722 79.0124 116.038 76.8368 117.286C74.6613 118.534 71.9845 118.522 69.8196 117.256L26.8128 92.0986L26.7074 92.0318C15.2242 84.7532 9.08395 76.1657 5.97807 67.6215C2.99822 59.4239 2.99931 51.6981 3.00002 46.6066C3.00003 46.5284 3.00004 46.4507 3.00004 46.3737ZM46.4286 17C30.1657 17 17 30.161 17 46.3737C17 51.5413 17.0477 57.0943 19.1357 62.8386C21.1359 68.3412 25.1997 74.4734 34.1002 80.1421L66.3541 99.0094V75.7474H81.2733C97.5362 75.7474 110.702 62.5864 110.702 46.3737C110.702 30.161 97.5362 17 81.2733 17H46.4286Z" stroke="url(#paint0_linear)" stroke-width="6"/>
<defs>
<linearGradient id="paint0_linear" x1="135.351" y1="-42.0635" x2="-0.337078" y2="129.98" gradientUnits="userSpaceOnUse">
<stop stop-color="#00ADFE"/>
<stop offset="1" stop-color="#3B7DFF"/>
</linearGradient>
</defs>
</svg>
