<svg width="102" height="30" viewBox="0 0 102 30" fill="none" xmlns="http://www.w3.org/2000/svg">
<path d="M61.3335 5.33333C59.1025 5.33333 57.0608 6.09337 55.3954 7.33335L47.3335 7.33335C42.9223 7.33335 39.3335 10.9212 39.3335 15.3333C39.3335 19.7454 42.9223 23.3333 47.3335 23.3333L55.3954 23.3333C57.0608 24.5733 59.1025 25.3333 61.3335 25.3333C66.8472 25.3333 71.3335 20.847 71.3335 15.3334C71.3335 9.8197 66.8472 5.33333 61.3335 5.33333V5.33333ZM41.3335 15.3333C41.3335 12.0247 44.0249 9.33331 47.3335 9.33331L53.3846 9.33331C52.1154 11.0098 51.3335 13.0734 51.3335 15.3333C51.3335 17.5932 52.1155 19.6568 53.3846 21.3333H47.3335C44.0249 21.3333 41.3335 18.6419 41.3335 15.3333V15.3333ZM61.3335 23.3333C56.9224 23.3333 53.3335 19.7454 53.3335 15.3333C53.3335 10.9212 56.9223 7.33329 61.3335 7.33329C65.7447 7.33329 69.3335 10.9212 69.3335 15.3333C69.3335 19.7454 65.7446 23.3333 61.3335 23.3333V23.3333Z" fill="url(#paint0_linear)"/>
<path d="M99.4606 15.9334L99.4522 15.9393L99.4444 15.9459C98.8008 16.4905 98.0594 16.935 97.2457 17.2309L97.2457 17.2309L97.2409 17.2327C96.48 17.5272 95.6419 17.6759 94.7496 17.6759C92.748 17.6759 90.9195 16.8605 89.6101 15.5511C88.3006 14.2416 87.4852 12.4131 87.4852 10.4115C87.4852 9.57204 87.6334 8.75565 87.881 8.01245C88.1529 7.22174 88.5472 6.50836 89.0624 5.89498L89.0625 5.89499L89.0645 5.89249C89.3865 5.49897 89.3095 4.93345 88.9271 4.62056L88.9207 4.61538L88.9141 4.61062C88.6862 4.44787 88.4076 4.37188 88.1203 4.44372L88.1203 4.44367L88.1156 4.44493C85.8884 5.04759 83.9516 6.38322 82.5652 8.16198L82.5652 8.16197L82.5634 8.16424C81.229 9.91732 80.4165 12.0913 80.4165 14.4754C80.4165 17.3301 81.5692 19.9234 83.4546 21.8088C85.34 23.6942 87.9333 24.8469 90.788 24.8469C93.1985 24.8469 95.4244 24.0083 97.2037 22.6215L97.204 22.6212C99.0095 21.2082 100.318 19.195 100.869 16.8949C101.033 16.3853 100.758 15.8766 100.25 15.7654C99.9644 15.6953 99.6873 15.7714 99.4606 15.9334ZM96.1294 21.1538L96.1278 21.155C94.6879 22.297 92.8508 22.9922 90.8391 22.9922C88.4807 22.9922 86.3452 22.0243 84.805 20.484C83.2647 18.9437 82.2967 16.8083 82.2967 14.4499C82.2967 12.4871 82.9422 10.7005 84.0589 9.26125L84.059 9.26114C84.6797 8.46028 85.4285 7.77328 86.2791 7.23828C86.254 7.30475 86.2297 7.37238 86.2067 7.44132C85.8642 8.39098 85.7073 9.3904 85.7073 10.4371C85.7073 12.9342 86.7323 15.2207 88.362 16.8503C89.9916 18.4799 92.2781 19.505 94.7752 19.505C95.8766 19.505 96.9292 19.3214 97.9052 18.9521L97.9065 18.9516L97.9123 18.9494C98.0066 18.9131 98.102 18.8764 98.1977 18.8387C97.6459 19.7231 96.9517 20.5119 96.1294 21.1538Z" fill="url(#paint1_linear)" stroke="url(#paint2_linear)" stroke-width="0.5"/>
<path fill-rule="evenodd" clip-rule="evenodd" d="M13.9681 1.03175C13.9681 0.47619 14.4443 0 14.9998 0C15.5554 0 16.0316 0.47619 16.0316 1.03175V4.0873C16.0316 4.64286 15.5554 5.11905 14.9998 5.11905C14.4443 5.11905 13.9681 4.64286 13.9681 4.0873V1.03175ZM20.3174 9.68254C18.9682 8.33334 17.0635 7.46032 15 7.46032C12.9365 7.46032 11.0317 8.29365 9.68251 9.68254C8.3333 11.0317 7.46029 12.9365 7.46029 15C7.46029 17.0635 8.3333 18.9683 9.68251 20.3175C11.0317 21.6667 12.9365 22.5397 15 22.5397C17.0635 22.5397 18.9682 21.7064 20.3174 20.3175C21.6666 18.9683 22.5397 17.0635 22.5397 15C22.5397 12.9365 21.7063 11.0317 20.3174 9.68254ZM18.8889 18.8889C17.8968 19.881 16.5079 20.4762 15 20.4762C13.492 20.4762 12.1031 19.881 11.1111 18.8889C10.119 17.8968 9.52378 16.5079 9.52378 15C9.52378 13.4921 10.119 12.1032 11.1111 11.1111C12.1031 10.1191 13.492 9.52381 15 9.52381C16.5079 9.52381 17.8968 10.1191 18.8889 11.1111C19.8809 12.1032 20.4762 13.4921 20.4762 15C20.4762 16.5079 19.8809 17.8968 18.8889 18.8889ZM28.9682 13.9683H25.9126C25.357 13.9683 24.8809 14.4444 24.8809 15C24.8809 15.5556 25.357 16.0317 25.9126 16.0317H28.9682C29.5237 16.0317 29.9999 15.5556 29.9999 15C29.9999 14.4444 29.5237 13.9683 28.9682 13.9683ZM13.9681 25.9127C13.9681 25.3571 14.4443 24.881 14.9998 24.881C15.5554 24.881 16.0316 25.3571 16.0316 25.9127V28.9683C16.0316 29.5238 15.5554 30 14.9998 30C14.4443 30 13.9681 29.5238 13.9681 28.9683V25.9127ZM25.5953 24.1667L23.4127 21.9841C23.0556 21.5873 22.381 21.5873 21.9841 21.9841C21.5873 22.381 21.5873 23.0159 21.9841 23.4127L24.1667 25.5952C24.5635 25.9921 25.1984 25.9921 25.5953 25.5952C25.9921 25.1984 25.9921 24.5635 25.5953 24.1667ZM25.6346 4.40476C25.2378 4.00794 24.6029 4.00794 24.2061 4.40476L22.0235 6.5873C21.6267 6.98413 21.6267 7.61905 22.0235 8.01588C22.3807 8.4127 23.0553 8.4127 23.4521 8.01588L25.6346 5.83334C26.0315 5.43651 26.0315 4.80159 25.6346 4.40476ZM1.03175 13.9683H4.0873C4.64286 13.9683 5.11905 14.4444 5.11905 15C5.11905 15.5556 4.64286 16.0317 4.0873 16.0317H1.03175C0.436508 16.0317 0 15.5556 0 15C0 14.4444 0.47619 13.9683 1.03175 13.9683ZM7.97611 21.9841C7.61897 21.5873 6.94437 21.5873 6.54754 21.9841L4.365 24.1667C3.96818 24.5635 3.96818 25.1984 4.365 25.5952C4.76183 25.9921 5.39675 25.9921 5.79357 25.5952L7.97611 23.4127C8.37294 23.0159 8.37294 22.381 7.97611 21.9841ZM5.79357 4.40476L7.97611 6.5873C8.37294 6.98413 8.37294 7.61905 7.97611 8.01588C7.57929 8.4127 6.94437 8.4127 6.54754 8.01588L4.365 5.83334C3.96818 5.43651 3.96818 4.80159 4.365 4.40476C4.76183 4.00794 5.39675 4.00794 5.79357 4.40476Z" fill="url(#paint3_linear)"/>
<defs>
<linearGradient id="paint0_linear" x1="44.3762" y1="179.407" x2="132.817" y2="151.167" gradientUnits="userSpaceOnUse">
<stop stop-color="#33D9EB"/>
<stop offset="1" stop-color="#2CD9CB"/>
</linearGradient>
<linearGradient id="paint1_linear" x1="83.8182" y1="178.133" x2="142.381" y2="166.405" gradientUnits="userSpaceOnUse">
<stop stop-color="#33D9EB"/>
<stop offset="1" stop-color="#2CD9CB"/>
</linearGradient>
<linearGradient id="paint2_linear" x1="83.8182" y1="178.133" x2="142.381" y2="166.405" gradientUnits="userSpaceOnUse">
<stop stop-color="#33D9EB"/>
<stop offset="1" stop-color="#2CD9CB"/>
</linearGradient>
<linearGradient id="paint3_linear" x1="4.72755" y1="261.11" x2="92.5947" y2="243.575" gradientUnits="userSpaceOnUse">
<stop stop-color="#33D9EB"/>
<stop offset="1" stop-color="#2CD9CB"/>
</linearGradient>
</defs>
</svg>
