<svg width="152" height="106" viewBox="0 0 152 106" fill="none" xmlns="http://www.w3.org/2000/svg">
<path d="M12.7748 90.6381L11.0843 92.4177C4.48777 86.1515 1.67828 77.939 2.77819 68.5363C4.03444 57.7967 9.23109 49.9706 18.3753 45.449C25.2503 42.0495 32.0662 40.8137 42.7117 40.8111L12.7748 90.6381ZM12.7748 90.6381L11.0843 92.4178C17.4952 98.5074 26.188 101.853 37.1807 102.801C38.122 102.882 40.1555 102.856 42.0395 102.793C43.9442 102.729 46.0112 102.615 47.0542 102.473L47.0544 102.473C53.3878 101.613 59.7345 99.4466 64.2681 96.4989C66.8203 94.8394 69.4187 92.6041 71.4376 90.3418M12.7748 90.6381L71.4376 90.3418M71.7926 33.1238L69.3497 33.3633C69.1272 31.0942 68.8714 30.1886 68.067 28.5433C66.1672 24.6569 61.4187 21.767 52.3045 20.5921C49.8218 20.272 43.8384 20.2253 41.3512 20.5063L71.7926 33.1238ZM71.7926 33.1238L69.3497 33.3634C69.5291 35.1922 69.4372 36.7818 68.6583 42.183C68.5858 42.6861 68.5223 43.116 68.4662 43.483C67.8002 43.3711 67.0292 43.2393 66.2192 43.0983C56.6505 41.4336 50.297 40.8079 42.7121 40.8111L71.7926 33.1238ZM80.7062 15.0481C87.8218 6.93587 98.9895 2.53926 111.641 2.54546L80.7062 15.0481ZM80.7062 15.0481C79.7278 13.8808 78.5549 12.6527 77.6466 11.871C72.9541 7.83245 66.8471 5.25315 59.1069 3.81405C54.461 2.95015 51.0861 2.66002 45.9118 2.64652L45.9105 2.64652L45.9092 2.64651C40.9149 2.63884 38.9237 2.80383 35.0241 3.58914L35.5082 5.99331L35.0241 3.58914C28.9159 4.81926 22.7379 7.69323 18.925 11.2601C18.0902 12.041 17.3466 12.8598 16.8526 13.8667C16.3339 14.924 16.1942 15.9711 16.1942 17.0333V17.0334C16.1942 17.6091 16.2083 18.1901 16.332 18.7835C16.4629 19.4114 16.6874 19.9202 16.9199 20.3952M80.7062 15.0481L16.9198 20.3951C16.9198 20.3952 16.9199 20.3952 16.9199 20.3952M16.9199 20.3952C17.5645 21.7127 18.4578 22.8372 19.6745 23.6441C20.8904 24.4505 22.2745 24.8372 23.7401 24.9231C23.7402 24.9231 23.7403 24.9231 23.7404 24.9231L23.7833 24.9256C24.4481 24.9648 25.0945 25.0029 26.0408 24.7652C26.7567 24.5854 27.6989 24.2323 29.1473 23.6894C29.2101 23.6658 29.2739 23.642 29.3387 23.6177C34.8007 21.5711 37.1082 20.986 41.3511 20.5064L16.9199 20.3952ZM149.454 32.9091L149.454 32.9094C149.459 35.4588 149.395 37.4365 149.205 38.5028C147.643 47.2547 143.842 53.5647 137.157 58.0349L135.792 55.9945L137.157 58.0349C131.85 61.5835 125.307 63.5709 117.052 64.3476C112.856 64.7423 105.346 64.7025 100.457 64.2703C96.3844 63.9104 91.3107 63.2721 89.0586 62.8226L89.0585 62.8226C88.2148 62.6541 86.2887 62.3178 84.5388 62.0257C84.2406 61.9759 83.9493 61.9277 83.6716 61.8821C83.595 62.3776 83.5115 62.9255 83.4249 63.5003C82.9094 66.9234 82.848 67.6777 82.8375 70.3358V70.3362C82.8315 71.7827 82.8406 72.5145 82.8826 73.0392C82.9185 73.4882 82.9781 73.7896 83.1303 74.3715C84.0321 77.8213 85.9332 80.1226 89.8089 82.0401C93.7296 83.9799 97.9007 84.874 104.571 85.013L104.572 85.013C107.57 85.0761 109.018 85.0303 110.782 84.8436C115.145 84.381 117.048 83.908 123.075 81.6923C123.865 81.4018 124.666 81.1234 125.326 80.9072C125.892 80.7214 126.576 80.5059 126.99 80.4369C127.803 80.3014 128.707 80.3905 129.417 80.5215C130.156 80.6581 130.998 80.8989 131.713 81.2618M149.454 32.9091L133.522 88.1595M149.454 32.9091C149.45 30.8264 149.414 29.372 149.237 28.0489C149.055 26.6842 148.732 25.5361 148.249 24.0503C146.428 18.4535 142.015 12.9528 136.659 9.39531C129.932 4.92616 121.05 2.54567 111.643 2.54546L149.454 32.9091ZM131.713 81.2618L130.601 83.4501L131.712 81.2617C131.712 81.2617 131.712 81.2618 131.713 81.2618ZM131.713 81.2618C133.006 81.9186 134.043 83.0241 134.747 84.16C135.45 85.2922 135.983 86.716 135.977 88.1704M135.977 88.1704L133.522 88.1595M135.977 88.1704C135.971 89.4871 135.739 90.7388 135.063 91.9543C134.414 93.1204 133.457 94.066 132.336 94.958C127.083 99.1374 120.461 101.628 112.741 102.484C109.944 102.794 103.795 102.836 100.759 102.573L100.971 100.127L100.759 102.573C92.4266 101.849 86.4454 100.406 80.914 97.6532C77.0317 95.7211 73.8937 93.3274 71.4376 90.3418M135.977 88.1704C135.977 88.1707 135.977 88.1709 135.977 88.1712L133.522 88.1595M133.522 88.1595L71.4376 90.3418M58.5301 79.9932L58.5301 79.9931C61.1081 77.1976 63.3394 72.8563 64.5808 67.9332C64.9206 66.5855 65.4002 63.9022 65.7659 61.4745C65.8824 60.7006 65.9845 59.9717 66.0647 59.3404C65.112 59.2338 63.7507 59.0691 62.5366 58.9121L62.5365 58.9121C52.3392 57.5932 46.3277 57.1181 43.0957 57.2993L43.0956 57.2993C36.6239 57.6618 34.2658 58.2051 30.6722 59.9213L30.6722 59.9213C28.876 60.7791 27.7925 61.6303 26.9609 62.6707C25.596 64.3786 24.7774 66.045 24.1825 68.4141L21.8018 67.8163L24.1824 68.4141C24.0126 69.0906 23.8758 70.6099 23.8591 72.3107C23.8421 74.0518 23.9576 75.4224 24.0825 75.8744C24.7362 78.2407 25.4315 79.4449 27.1888 81.2307C29.5951 83.6759 32.8252 85.3768 37.0148 86.2453L36.5166 88.6488L37.0149 86.2453C38.2243 86.496 38.6217 86.5765 39.1889 86.6151C39.8258 86.6585 40.6572 86.6468 42.6755 86.6164L58.5301 79.9932ZM58.5301 79.9932C55.6973 83.0649 51.7492 85.2976 47.2578 86.2932M58.5301 79.9932L47.2578 86.2932M86.0833 46.0508L86.3405 44.2799C87.0075 39.6866 87.1909 38.7723 87.9051 36.2288C89.7009 29.8332 92.8584 25.2638 97.2996 22.2598C99.6926 20.6413 102.437 19.5475 105.779 18.9376C106.504 18.8054 108.035 18.7054 109.722 18.6871C111.413 18.6687 112.924 18.7361 113.617 18.8504M86.0833 46.0508L101.438 47.873C104.298 48.0975 109.529 48.0759 112.327 47.8291L112.651 47.8006C116.357 47.4524 118.562 46.8654 121.299 45.5796C123.549 44.5221 124.696 43.5458 125.847 41.8493C127.629 39.2224 128.344 36.7919 128.325 32.8442C128.318 31.3392 128.249 30.4302 128.096 29.6782C127.949 28.9565 127.703 28.2766 127.217 27.265C125.282 23.241 120.517 19.9884 113.617 18.8504M86.0833 46.0508C88.9429 46.3837 93.2183 46.9053 95.9109 47.2524C97.9731 47.5182 100.465 47.7966 101.438 47.873L86.0833 46.0508ZM113.617 18.8504L114.017 16.4286L113.617 18.8504ZM47.2578 86.2932C46.3617 86.4915 45.5206 86.5732 42.6758 86.6164L47.2578 86.2932ZM62.8513 56.4778C52.6884 55.1634 46.4536 54.6526 42.9583 54.8486L66.9609 68.5333C67.7031 65.5896 68.9369 57.3967 68.6634 57.2278C68.5555 57.161 67.9034 57.0556 67.2146 56.9932C66.5258 56.9303 64.5623 56.699 62.8513 56.4778ZM70.528 43.8144C70.5451 43.8161 70.5554 43.8174 70.5568 43.8177C70.5584 43.818 70.5496 43.8171 70.528 43.8144Z" stroke="url(#paint0_linear)" stroke-width="30"/>
<defs>
<linearGradient id="paint0_linear" x1="34.9235" y1="100.398" x2="150.99" y2="10.364" gradientUnits="userSpaceOnUse">
<stop stop-color="#00A7FE"/>
<stop offset="1" stop-color="#00E1FD"/>
</linearGradient>
</defs>
</svg>
