<svg width="180" height="117" viewBox="0 0 180 117" fill="none" xmlns="http://www.w3.org/2000/svg">
<path d="M164.532 31.0504C166.814 34.2658 170.936 38.7457 175.634 40C174.966 38.969 174.13 37.5432 173.219 35.8069M14.6762 31.0504C12.3938 34.2658 8.2725 38.7457 3.57373 40C4.24199 38.969 5.07846 37.5432 5.98906 35.8069M58.0595 59.4569C67.4655 56.65 64.464 20.6494 61.7875 3C71.1445 5.82814 80.8847 6.6711 89.604 6.5016C98.3232 6.6711 108.064 5.82814 117.421 3C114.744 20.6494 111.743 56.65 121.149 59.4569L134.627 10.3362H167.605C167.701 15.6523 169.555 28.1983 176.208 35.8534C174.105 36.3851 168.81 35.7259 164.451 28.8362L165.024 44.4655L156.134 33.9397V51.4828L151.259 46.6983C146.097 58.0747 136.634 87.2069 140.075 112.724L103.943 114C102.604 104.537 97.8629 85.1017 89.604 83.0603C81.3451 85.1017 76.6038 104.537 75.2656 114L39.1328 112.724C42.574 87.2069 33.1107 58.0747 27.9488 46.6983L23.0738 51.4828V33.9397L14.184 44.4655L14.7575 28.8362C10.3986 35.7259 5.10297 36.3851 3 35.8534C9.65302 28.1983 11.5074 15.6523 11.603 10.3362H44.5814L58.0595 59.4569Z" stroke="url(#paint0_linear)" stroke-width="6" stroke-linecap="round" stroke-linejoin="round"/>
<path fill-rule="evenodd" clip-rule="evenodd" d="M80.3896 16.4469C77.8299 17.6437 77.6771 28.6893 80.1769 31.8225L80.8409 32.6551L81.4372 32.3075C82.0585 31.9449 82.443 31.4093 82.5972 30.6898C82.6474 30.4569 82.7291 30.2027 82.7792 30.1253C83.0142 29.7606 83.3931 26.8046 83.4479 24.9038C83.4712 24.0996 83.1596 21.0914 82.9803 20.3879C82.4393 18.2651 82.3037 17.8002 82.1723 17.621C81.1507 16.2305 81.0267 16.1489 80.3896 16.4469ZM101.882 19.9076C101.353 20.1937 100.797 20.7082 100.797 20.9106C100.797 20.9773 100.565 21.4871 100.281 22.0434C99.9978 22.6002 99.6565 23.5345 99.5228 24.1208C99.0366 26.253 98.8847 26.8903 98.7319 27.444C98.1821 29.4378 98.6237 34.2594 99.4438 35.2098C100.009 35.8658 101.141 35.5611 101.557 34.6411C101.662 34.4087 101.791 34.1969 101.843 34.1711C101.896 34.1453 101.938 34.0678 101.938 33.9996C101.938 33.9309 102.107 33.5802 102.312 33.2197C102.518 32.8592 102.721 32.3649 102.764 32.1211C102.806 31.8773 102.892 31.5508 102.954 31.3954C104.098 28.521 104.331 21.9891 103.344 20.5026C102.84 19.7449 102.465 19.5925 101.882 19.9076ZM83.8459 41.5919C82.991 42.1352 83.0783 41.8506 82.5313 45.8758C82.3984 46.8546 82.2048 47.9657 82.1012 48.3453C81.9977 48.7254 81.733 50.1154 81.5124 51.4351C81.0578 54.1597 80.9194 54.5166 80.5015 54.0517C80.0287 53.5265 79.8486 52.7636 79.4873 49.7611C79.2518 47.8081 78.833 45.7891 78.6115 45.5427C78.4536 45.3671 78.2256 46.4802 78.0858 48.1124C77.9479 49.7254 77.5843 52.5337 77.5016 52.6256C77.346 52.7982 77.0451 52.1055 76.5255 50.3768C76.0411 48.7642 75.782 47.5163 75.3404 44.661C75.1941 43.7122 75.1514 43.661 74.9415 44.1791C74.7799 44.5794 74.7297 45.8226 74.648 51.5058C74.5342 59.3868 74.5101 59.6967 73.6269 64.6687C73.4583 65.6165 73.5642 67.2998 73.827 67.8535L74.0049 68.229L74.1386 67.8411C74.2124 67.6283 74.3861 66.946 74.525 66.3257C74.6638 65.7048 74.8872 65.022 75.0218 64.8076C75.156 64.5938 75.4258 63.9105 75.6213 63.2896C76.252 61.2829 76.5176 61.2545 76.9527 63.1486C77.4315 65.2332 77.6024 64.961 78.1448 61.2509C78.1838 60.9834 78.2725 60.5299 78.3421 60.2432L78.4684 59.7215L79.1246 59.8837C79.875 60.0691 79.889 60.0991 80.1207 62.0195C80.2893 63.4187 80.6204 64.6377 80.859 64.74C81.179 64.8763 81.8681 63.851 81.9578 63.1062C82.0014 62.7411 82.0892 62.284 82.1528 62.0897C82.2169 61.896 82.358 60.9116 82.4672 59.9023C82.711 57.6493 82.9362 56.9783 83.4057 57.1043C84.0409 57.2748 84.2815 57.4199 84.3488 57.672C84.4357 57.9979 84.8884 60.173 85.0041 60.8196C85.3677 62.8537 86.2026 64.5489 86.6145 64.0912C86.7046 63.9905 87.4745 60.9973 87.4745 60.7468C87.4745 60.7091 87.7295 60.6786 88.0411 60.6786C88.7799 60.6786 88.87 60.8785 88.87 62.5112C88.87 64.9476 89.9148 65.6258 90.395 63.5014C91.0084 60.7871 91.8081 61.5598 92.2938 65.336C92.5664 67.4543 93.0164 68.7708 93.3591 68.4542C93.6331 68.2016 94.5265 65.7715 94.8172 64.4889C94.9315 63.9843 95.0624 63.5076 95.1079 63.4296C95.1535 63.3516 95.2305 63.0541 95.2784 62.769C95.3699 62.2266 95.8054 61.6068 96.3757 61.2075C96.8726 60.8599 97.1117 61.5092 97.238 63.5499C97.3095 64.7121 97.3992 65.241 97.5794 65.57L97.8241 66.0163L98.0795 65.7115C98.6632 65.0148 99.0454 64.0086 99.481 62.02C100.005 59.6285 101.042 60.4126 101.488 63.537C101.809 65.788 102.131 67.1707 102.334 67.1707C102.99 67.1707 103.607 66.0034 103.9 64.21C104.235 62.161 104.525 61.7525 105.229 62.3371C105.796 62.8077 106.124 63.2596 106.241 63.7343C106.307 63.9967 106.524 64.5117 106.725 64.8794C107.088 65.5432 107.648 66.8102 107.648 66.9672C107.648 67.0121 107.865 67.3463 108.13 67.7094C108.396 68.073 108.709 68.6082 108.826 68.8989C109.195 69.8121 109.678 69.4568 109.678 68.2734C109.678 67.7001 109.459 66.1991 109.168 64.7715C108.663 62.2917 108.368 57.2464 108.39 51.4351C108.407 46.6837 108.243 43.0381 108.012 43.0381C107.951 43.0381 107.902 43.0645 107.902 43.0965C107.902 43.5588 107.461 45.4611 107.215 46.0582C106.877 46.8815 106.769 47.4481 106.376 50.4816C105.924 53.9603 105.14 53.9009 104.545 50.3432C104.167 48.0783 103.683 46.6961 103.384 47.0287C103.314 47.1062 103.115 48.2539 102.707 50.9201C102.42 52.8007 102.439 52.7651 102.011 52.2558C101.472 51.6148 101.371 51.074 100.863 46.1429C100.684 44.4007 100.152 42.1192 100.056 42.6853C100.029 42.8408 99.963 43.0314 99.9082 43.1089C99.7861 43.2814 99.5738 44.8309 99.4643 46.3547C99.39 47.3841 99.2409 48.6015 99.0746 49.5395C99.012 49.8938 98.9962 49.899 98.3939 49.7616L97.7772 49.6211L97.5835 48.7642C97.4772 48.2926 97.3021 47.3804 97.1944 46.7374C96.7449 44.0577 95.8078 45.1517 95.3466 48.8949C95.2004 50.0818 95.1154 50.5513 94.7657 52.1055C94.2762 54.28 93.5472 52.6995 92.9913 48.2596C92.5074 44.3955 92.1169 43.8119 91.5903 46.1672C91.4807 46.6584 91.3391 47.2885 91.2759 47.5679C91.1561 48.0979 90.8798 49.6903 90.5886 51.526C90.4363 52.4852 90.0783 53.6225 89.9278 53.6225C89.7133 53.6225 89.2294 52.7408 88.9406 51.823C88.7516 51.2212 88.5157 50.4754 88.4168 50.165C87.7699 48.1392 87.4806 48.3494 86.9605 51.2233C86.6103 53.1571 86.5481 53.2532 86.0313 52.653C85.5701 52.1179 85.2748 50.7636 85.011 47.9775C84.8973 46.7746 84.7514 45.3139 84.6874 44.7318C84.6228 44.1497 84.5313 43.2607 84.484 42.7561C84.3516 41.3548 84.3172 41.2923 83.8459 41.5919Z" fill="url(#paint1_linear)"/>
<defs>
<linearGradient id="paint0_linear" x1="39.5" y1="114" x2="176" y2="2.99997" gradientUnits="userSpaceOnUse">
<stop stop-color="#00A7FE"/>
<stop offset="1" stop-color="#00E1FD"/>
</linearGradient>
<linearGradient id="paint1_linear" x1="81.1596" y1="69.4147" x2="123.182" y2="54.5156" gradientUnits="userSpaceOnUse">
<stop stop-color="#00A7FE"/>
<stop offset="1" stop-color="#00E1FD"/>
</linearGradient>
</defs>
</svg>
