<svg width="198" height="217" viewBox="0 0 198 217" fill="none" xmlns="http://www.w3.org/2000/svg">
<path d="M63.2451 161.173L102.251 200.179C106.156 204.084 112.488 204.084 116.393 200.179L160.941 155.631C164.846 151.726 164.846 145.394 160.941 141.489L82.4517 63" stroke="url(#paint0_linear)" stroke-width="13" stroke-linecap="round" stroke-linejoin="round"/>
<path d="M124.344 46.416L94.9993 17.0711C91.094 13.1658 84.7624 13.1658 80.8572 17.0711L38.0772 59.851C34.172 63.7563 34.172 70.0879 38.0772 73.9932L114.445 150.361" stroke="url(#paint1_linear)" stroke-width="13" stroke-linecap="round" stroke-linejoin="round"/>
<circle cx="137.262" cy="59.5" r="16.5" stroke="url(#paint2_linear)" stroke-width="13"/>
<circle cx="48.2617" cy="146.5" r="16.5" stroke="url(#paint3_linear)" stroke-width="13"/>
<defs>
<linearGradient id="paint0_linear" x1="125.232" y1="105.78" x2="66.5418" y2="164.47" gradientUnits="userSpaceOnUse">
<stop stop-color="#616892"/>
<stop offset="1" stop-color="#707FA6"/>
</linearGradient>
<linearGradient id="paint1_linear" x1="129.648" y1="51.7193" x2="72.7254" y2="108.641" gradientUnits="userSpaceOnUse">
<stop stop-color="#616892"/>
<stop offset="1" stop-color="#707FA6"/>
</linearGradient>
<linearGradient id="paint2_linear" x1="137.262" y1="43" x2="137.262" y2="76" gradientUnits="userSpaceOnUse">
<stop stop-color="#616892"/>
<stop offset="1" stop-color="#707FA6"/>
</linearGradient>
<linearGradient id="paint3_linear" x1="48.2617" y1="130" x2="48.2617" y2="163" gradientUnits="userSpaceOnUse">
<stop stop-color="#616892"/>
<stop offset="1" stop-color="#707FA6"/>
</linearGradient>
</defs>
</svg>
