<svg width="131" height="131" viewBox="0 0 131 131" fill="none" xmlns="http://www.w3.org/2000/svg">
<path fill-rule="evenodd" clip-rule="evenodd" d="M110.531 131C121.836 131 131 121.836 131 110.531V20.4688C131 9.16437 121.836 0 110.531 0H20.4688C9.16424 0 0 9.16437 0 20.4688V110.531C0 121.836 9.16424 131 20.4688 131H110.531ZM94.849 28.4945V70.3415C94.849 78.0132 89.7276 85.8594 79.4843 93.8804C75.3863 97.1061 70.7439 100.092 65.5574 102.838V28.4945H94.849ZM107.403 70.3414V20.125C107.403 18.9916 106.99 18.0107 106.162 17.1827C105.334 16.3543 104.352 15.9398 103.219 15.9398H27.8942C26.7613 15.9398 25.7806 16.3543 24.9518 17.1827C24.124 18.0107 23.7096 18.9916 23.7096 20.125V70.3414C23.7096 74.0897 24.4396 77.8058 25.9002 81.4898C27.3602 85.1733 29.1694 88.4428 31.327 91.2978C33.4851 94.1522 36.0568 96.9313 39.0429 99.6346C42.028 102.337 44.7861 104.582 47.3142 106.37C49.8422 108.156 52.4796 109.845 55.2256 111.437C57.9721 113.028 59.9231 114.106 61.0778 114.673C62.2331 115.239 63.1593 115.676 63.8569 115.981C64.3805 116.242 64.947 116.373 65.5574 116.373C66.1668 116.373 66.7339 116.242 67.2568 115.981C67.9546 115.676 68.8805 115.239 70.0363 114.673C71.1909 114.106 73.1419 113.028 75.8876 111.437C78.6341 109.845 81.2711 108.157 83.7994 106.37C86.327 104.582 89.0857 102.337 92.0705 99.6346C95.0572 96.9313 97.6287 94.1522 99.7864 91.2978C101.944 88.4428 103.753 85.1733 105.213 81.4898C106.674 77.8058 107.403 74.0897 107.403 70.3414Z" fill="url(#paint0_linear)"/>
<defs>
<linearGradient id="paint0_linear" x1="65.5" y1="0" x2="65.5" y2="131" gradientUnits="userSpaceOnUse">
<stop stop-color="#8598EB"/>
<stop offset="1" stop-color="#A5C8FF"/>
</linearGradient>
</defs>
</svg>
