<svg width="135" height="122" viewBox="0 0 135 122" fill="none" xmlns="http://www.w3.org/2000/svg">
<path d="M67.1381 121.618C92.501 121.618 113.062 97.0102 113.062 66.6546C113.062 36.299 92.501 11.691 67.1381 11.691C41.7753 11.691 21.2146 36.299 21.2146 66.6546C21.2146 97.0102 41.7753 121.618 67.1381 121.618Z" fill="url(#paint0_linear)"/>
<path d="M106.363 48.3839C103.538 51.2082 106.515 58.7637 113.011 65.2596C119.506 71.7554 127.062 74.7318 129.886 71.9075C132.71 69.0832 129.734 61.5278 123.238 55.0319C116.742 48.536 109.187 45.5596 106.363 48.3839Z" fill="url(#paint1_linear)"/>
<path d="M28.6375 48.3839C31.4618 51.2082 28.4854 58.7637 21.9895 65.2596C15.4936 71.7554 7.93813 74.7318 5.11383 71.9075C2.28954 69.0832 5.26594 61.5278 11.7618 55.0319C18.2577 48.536 25.8132 45.5596 28.6375 48.3839Z" fill="url(#paint2_linear)"/>
<path d="M72.261 9.24857C74.9668 6.85424 78.5352 5.39911 82.4462 5.39911C90.9005 5.39911 97.7541 12.1987 97.7541 20.5864C106.208 20.5864 113.062 27.386 113.062 35.7737C113.062 44.1615 106.208 50.9611 97.7541 50.9611H36.5227C28.0684 50.9611 21.2148 44.1615 21.2148 35.7737C21.2148 27.386 28.0684 20.5864 36.5227 20.5864H37.8293C40.9814 11.7384 49.4868 5.39911 59.4845 5.39911C64.2134 5.39911 68.6084 6.81738 72.261 9.24857Z" fill="black"/>
<path fill-rule="evenodd" clip-rule="evenodd" d="M72.0266 5.14784C75.0694 3.11666 78.6738 2 82.4464 2C91.6962 2 99.3857 8.67294 100.888 17.447C109.723 18.9278 116.461 26.5647 116.461 35.7737C116.461 46.0447 108.08 54.3601 97.7542 54.3601H36.5228C26.1973 54.3601 17.8159 46.0447 17.8159 35.7737C17.8159 25.8301 25.6714 17.7195 35.5414 17.2125C39.7875 8.06906 49.0574 2 59.4846 2C63.9298 2 68.2168 3.0974 72.0266 5.14784Z" fill="url(#paint3_linear)" stroke="white" stroke-width="3.69004"/>
<path d="M53.036 81.8419C57.0302 81.8419 60.2681 77.9564 60.2681 73.1635C60.2681 68.3705 57.0302 64.485 53.036 64.485C49.0419 64.485 45.804 68.3705 45.804 73.1635C45.804 77.9564 49.0419 81.8419 53.036 81.8419Z" fill="white"/>
<path d="M85.5802 81.8419C89.5744 81.8419 92.8123 77.9564 92.8123 73.1635C92.8123 68.3705 89.5744 64.485 85.5802 64.485C81.586 64.485 78.3481 68.3705 78.3481 73.1635C78.3481 77.9564 81.586 81.8419 85.5802 81.8419Z" fill="white"/>
<defs>
<linearGradient id="paint0_linear" x1="67.1381" y1="11.691" x2="67.1381" y2="121.618" gradientUnits="userSpaceOnUse">
<stop stop-color="#616892"/>
<stop offset="1" stop-color="#707FA6"/>
</linearGradient>
<linearGradient id="paint1_linear" x1="129.886" y1="71.9075" x2="106.363" y2="48.3839" gradientUnits="userSpaceOnUse">
<stop stop-color="#616892"/>
<stop offset="1" stop-color="#707FA6"/>
</linearGradient>
<linearGradient id="paint2_linear" x1="5.11383" y1="71.9075" x2="28.6375" y2="48.3839" gradientUnits="userSpaceOnUse">
<stop stop-color="#616892"/>
<stop offset="1" stop-color="#707FA6"/>
</linearGradient>
<linearGradient id="paint3_linear" x1="67.1385" y1="2" x2="67.1385" y2="54.3601" gradientUnits="userSpaceOnUse">
<stop stop-color="#616892"/>
<stop offset="1" stop-color="#707FA6"/>
</linearGradient>
</defs>
</svg>
