<svg width="131" height="118" viewBox="0 0 131 118" fill="none" xmlns="http://www.w3.org/2000/svg">
<path d="M27.6771 108.447L27.6828 108.457L27.6886 108.467C30.5668 113.264 35.7071 116.497 41.5294 116.497H89.0415C94.771 116.497 100.285 113.634 102.912 108.416L126.644 67.1807C129.546 62.335 129.546 55.9124 126.644 51.0667L102.894 9.80024L102.888 9.79039L102.882 9.78065C100.004 4.9837 94.8637 1.75 89.0415 1.75H41.5294C35.7071 1.75 30.5668 4.9837 27.6886 9.78065L27.6828 9.79039L27.6771 9.80024L3.92659 51.0667C1.02447 55.9124 1.02447 62.335 3.92658 67.1806L27.6771 108.447ZM34.892 14.0168L34.8967 14.0086L34.9013 14.0003C36.1621 11.731 38.7095 10.189 41.5294 10.189H89.0415C91.8613 10.189 94.4087 11.731 95.6695 14.0003L95.6741 14.0086L95.6788 14.0168L119.43 55.2844C120.699 57.576 120.699 60.6714 119.43 62.963L95.6788 104.231L95.6741 104.239L95.6695 104.247C94.4087 106.516 91.8613 108.058 89.0415 108.058H41.5294C38.7095 108.058 36.1621 106.516 34.9013 104.247L34.8967 104.239L34.892 104.231L11.1409 62.9629C9.87171 60.6713 9.87173 57.5759 11.1409 55.2843L34.892 14.0168Z" fill="url(#paint0_linear)" stroke="url(#paint1_linear)" stroke-width="2.5"/>
<path d="M40.0445 61.9992H40.4718L40.5384 61.5772L41.4293 55.9352L41.5205 55.3572H40.9354H30.818L31.5725 49.8243H44.2019H44.6254L44.6951 49.4065L45.5859 44.0614L45.6829 43.4792H45.0927H24.9001H24.4676L24.4053 43.9071L19.951 74.493L19.8677 75.0651H20.4458H40.3415H40.7651L40.8347 74.6473L41.7255 69.3022L41.8226 68.72H41.2324H28.7493L29.7833 61.9992H40.0445ZM63.6539 74.7887L72.0375 58.0216L69.5422 74.4902L69.4551 75.0651H70.0366H77.1634H77.5958L77.6582 74.6371L82.1124 44.0512L82.1957 43.4792H81.6176H72.1152H71.8023L71.6655 43.7606L61.9575 63.7314L58.6517 43.897L58.5821 43.4792H58.1585H48.9531H48.5206L48.4583 43.9071L44.004 74.493L43.9207 75.0651H44.4988H51.6256H52.0546L52.1198 74.6411L54.6594 58.134L57.9652 74.6631L58.0456 75.0651H58.4555H63.2067H63.5157L63.6539 74.7887ZM106.087 70.1706C107.12 69.2388 107.681 68.0639 108.214 66.7331C108.825 65.2057 109.129 63.683 109.424 62.2099L109.427 62.1912L110.615 56.2522L110.617 56.2443L110.618 56.2363C111.234 52.5406 110.313 49.119 108.126 46.6194C105.935 44.1159 102.817 42.8853 99.1377 42.8853C94.8739 42.8853 91.4846 44.108 88.7092 46.575C85.9461 49.0311 84.1101 52.4043 83.4992 56.3743C83.4991 56.3745 83.4991 56.3748 83.4991 56.3751L82.6092 62.0109C82.6091 62.0116 82.609 62.0122 82.6089 62.0129C81.9936 65.7079 82.915 69.1287 85.1017 71.6279L85.1127 71.6404L85.1245 71.6522C87.5956 74.1233 90.396 75.362 94.3865 75.362H94.4044C95.5652 75.362 96.4977 75.362 97.7171 75.0643C98.2379 75.0511 98.802 74.8819 99.3059 74.7019C99.547 74.6158 99.7876 74.5221 100.014 74.434L100.089 74.4047C100.216 74.3552 100.338 74.3082 100.455 74.2647L103.795 78.4408L104.09 78.8085L104.474 78.537L109.522 74.9736L109.974 74.655L109.612 74.2376L106.087 70.1706ZM91.3171 56.5291L91.3181 56.5218C91.6073 54.4974 92.1747 52.8371 93.5523 51.4595C94.9496 50.0622 96.3095 49.5273 97.9499 49.5273C99.8963 49.5273 101.174 50.3569 101.66 51.3296C102.195 52.3998 102.492 54.0679 102.208 56.3686L101.024 61.9901L101.021 62.0062L101.018 62.0224C100.736 63.9986 99.8889 65.6989 98.7473 67.1259C97.6657 68.4779 96.3324 69.0169 94.6835 69.0169C93.6879 69.0169 92.9567 68.874 92.383 68.5872C91.822 68.3067 91.3699 67.8676 90.9649 67.1975C90.4342 66.1247 90.1417 64.458 90.4274 62.1631L91.3171 56.5291Z" fill="url(#paint2_linear)" stroke="url(#paint3_linear)"/>
<defs>
<linearGradient id="paint0_linear" x1="65.2854" y1="3" x2="65" y2="170" gradientUnits="userSpaceOnUse">
<stop stop-color="#A4DCA1"/>
<stop offset="1" stop-color="#D1EDAC"/>
</linearGradient>
<linearGradient id="paint1_linear" x1="65.2854" y1="3" x2="65" y2="170" gradientUnits="userSpaceOnUse">
<stop stop-color="#A4DCA1"/>
<stop offset="1" stop-color="#D1EDAC"/>
</linearGradient>
<linearGradient id="paint2_linear" x1="65.3757" y1="43.3853" x2="65.3378" y2="95.0759" gradientUnits="userSpaceOnUse">
<stop stop-color="#A4DCA1"/>
<stop offset="1" stop-color="#D1EDAC"/>
</linearGradient>
<linearGradient id="paint3_linear" x1="65.3757" y1="43.3853" x2="65.3378" y2="95.0759" gradientUnits="userSpaceOnUse">
<stop stop-color="#A4DCA1"/>
<stop offset="1" stop-color="#D1EDAC"/>
</linearGradient>
</defs>
</svg>
