<svg width="117" height="128" viewBox="0 0 117 128" fill="none" xmlns="http://www.w3.org/2000/svg">
<path d="M23.4261 0H104.801C106.242 0 107.21 1.47893 106.634 2.80013L97.3343 24.1036C97.0162 24.8324 96.2966 25.3034 95.5014 25.3034H42.6384C41.2101 25.3034 40.2421 26.7576 40.7934 28.0753L60.5614 75.331C60.8725 76.0749 61.6 76.5592 62.4064 76.5592H78.8828C80.3056 76.5592 81.2734 75.1153 80.7327 73.7991L72.6048 54.0157C72.0641 52.6996 73.0319 51.2557 74.4548 51.2557H103.844C104.691 51.2557 105.446 51.789 105.729 52.5872L116.039 81.6548C116.208 82.1326 116.19 82.657 115.988 83.1218L97.3337 125.964C97.016 126.694 96.2959 127.166 95.5 127.166H94.2214C93.4262 127.166 92.7065 126.695 92.3884 125.966L82.3904 103.062C82.0723 102.334 81.3526 101.863 80.5574 101.863H19.5801C18.7456 101.863 17.9989 101.345 17.7067 100.563L0.276234 53.941C0.0987314 53.4662 0.108117 52.9417 0.302493 52.4736L21.579 1.23303C21.889 0.486536 22.6178 0 23.4261 0Z" fill="url(#paint0_linear)"/>
<defs>
<linearGradient id="paint0_linear" x1="58.1513" y1="0" x2="58.1513" y2="127.166" gradientUnits="userSpaceOnUse">
<stop stop-color="#6E7DA4"/>
<stop offset="1" stop-color="#F7BAC5"/>
</linearGradient>
</defs>
</svg>
