<svg width="130" height="142" viewBox="0 0 130 142" fill="none" xmlns="http://www.w3.org/2000/svg">
<path d="M129.792 62.3468C129.558 59.9728 129.169 57.2485 128.391 54.2129C127.612 51.2162 126.445 47.9082 124.732 44.4834C123.02 41.0586 120.802 37.517 117.922 34.0533C116.793 32.6912 115.548 31.368 114.225 30.0837C116.209 22.1833 111.812 15.3337 111.812 15.3337C104.223 14.8667 99.3968 17.7077 97.6066 18.992C97.2952 18.8753 97.0228 18.7196 96.7115 18.6028C95.4272 18.0969 94.104 17.591 92.7029 17.1629C91.3408 16.7348 89.9397 16.3456 88.4997 15.9953C87.0598 15.6451 85.6198 15.3726 84.1409 15.1391C83.8685 15.1002 83.635 15.0613 83.3626 15.0224C80.0545 4.43666 70.5585 0 70.5585 0C59.9339 6.73283 57.949 16.151 57.949 16.151C57.949 16.151 57.9101 16.3456 57.8323 16.6959C57.2485 16.8515 56.6647 17.0461 56.081 17.2018C55.2637 17.4353 54.4464 17.7467 53.6681 18.058C52.8508 18.3693 52.0724 18.6807 51.2551 19.0309C49.6595 19.7315 48.0638 20.5098 46.5071 21.366C44.9893 22.2222 43.5104 23.1563 42.0705 24.1292C41.8759 24.0514 41.6813 23.9735 41.6813 23.9735C26.9702 18.3693 13.9327 25.1022 13.9327 25.1022C12.7262 40.7472 19.8093 50.5935 21.2104 52.3838C20.8601 53.3567 20.5488 54.3297 20.2374 55.3026C19.1477 58.8442 18.3304 62.4635 17.8245 66.2386C17.7467 66.7835 17.6688 67.3283 17.6299 67.8732C4.00856 74.606 0 88.3441 0 88.3441C11.3252 101.382 24.5573 102.199 24.5573 102.199L24.5962 102.16C26.2697 105.157 28.2156 107.998 30.395 110.683C31.3291 111.812 32.2631 112.862 33.275 113.913C29.1497 125.744 33.8587 135.552 33.8587 135.552C46.4682 136.019 54.7578 130.025 56.5091 128.663C57.7545 129.091 59.0387 129.48 60.323 129.792C64.2149 130.804 68.1845 131.387 72.1541 131.543C73.1271 131.582 74.139 131.621 75.1119 131.582H75.5789H75.8903H76.513L77.1357 131.543V131.582C83.0901 140.066 93.5202 141.273 93.5202 141.273C100.954 133.45 101.382 125.667 101.382 123.993C101.382 123.993 101.382 123.954 101.382 123.876C101.382 123.721 101.382 123.643 101.382 123.643C101.382 123.526 101.382 123.409 101.382 123.293C102.938 122.203 104.417 121.035 105.818 119.751C108.776 117.066 111.384 113.991 113.563 110.683C113.758 110.372 113.952 110.06 114.147 109.749C122.553 110.216 128.508 104.534 128.508 104.534C127.106 95.7774 122.125 91.4964 121.074 90.6792C121.074 90.6792 121.035 90.6402 120.957 90.6013C120.88 90.5624 120.88 90.5235 120.88 90.5235C120.841 90.4846 120.763 90.4457 120.685 90.4067C120.724 89.8619 120.763 89.3559 120.802 88.8111C120.88 87.8771 120.88 86.9041 120.88 85.9701V85.2695V84.9193V84.7247C120.88 84.4912 120.88 84.569 120.88 84.4912L120.841 83.9074L120.802 83.1291C120.802 82.8566 120.763 82.6231 120.724 82.3896C120.685 82.1561 120.685 81.8837 120.646 81.6502L120.568 80.9107L120.452 80.1713C120.296 79.1983 120.14 78.2643 119.907 77.2913C119.012 73.5163 117.533 69.9358 115.626 66.7056C113.68 63.4754 111.267 60.6344 108.504 58.2215C105.779 55.8085 102.705 53.8626 99.5136 52.4227C96.2834 50.9827 92.9364 50.0487 89.5895 49.6206C87.916 49.3871 86.2425 49.3092 84.569 49.3481H83.9463H83.7907C83.7517 49.3481 83.5572 49.3481 83.5961 49.3481H83.3236L82.701 49.3871C82.4674 49.3871 82.2339 49.426 82.0393 49.426C81.1831 49.5038 80.327 49.6206 79.5097 49.7762C76.1627 50.3989 73.0103 51.6054 70.2472 53.2789C67.484 54.9524 65.0711 57.015 63.1252 59.3501C61.1792 61.6852 59.6614 64.2927 58.6107 66.978C57.5599 69.6634 56.9761 72.4655 56.8204 75.1508C56.7815 75.8124 56.7815 76.513 56.7815 77.1746C56.7815 77.3303 56.7815 77.5248 56.7815 77.6805L56.8204 78.2254C56.8593 78.5367 56.8593 78.887 56.8983 79.1983C57.015 80.5605 57.2874 81.8837 57.6377 83.1291C58.3771 85.6587 59.5447 87.9549 60.9847 89.9008C62.4246 91.8467 64.1759 93.4423 66.0051 94.7266C67.8342 95.972 69.8191 96.8671 71.765 97.4509C73.7109 98.0347 75.6568 98.2682 77.4859 98.2682C77.7194 98.2682 77.9529 98.2682 78.1475 98.2682C78.2643 98.2682 78.381 98.2682 78.4978 98.2682C78.6145 98.2682 78.7313 98.2682 78.8481 98.2293C79.0427 98.2293 79.2372 98.1904 79.4318 98.1904C79.4707 98.1904 79.5486 98.1904 79.5875 98.1514L79.7821 98.1125C79.8988 98.1125 80.0156 98.0736 80.1324 98.0736C80.3659 98.0347 80.5605 97.9958 80.794 97.9568C81.0275 97.9179 81.2221 97.879 81.4167 97.8012C81.8448 97.7233 82.2339 97.5677 82.6231 97.4509C83.4015 97.1785 84.1798 96.8671 84.8414 96.5169C85.542 96.1666 86.1647 95.7385 86.7874 95.3493C86.943 95.2326 87.1376 95.1158 87.2933 94.9602C87.916 94.4542 88.0327 93.5202 87.5268 92.8975C87.0987 92.3526 86.3203 92.197 85.6976 92.5472C85.542 92.6251 85.3863 92.7029 85.2306 92.7807C84.6858 93.0532 84.1409 93.2867 83.5571 93.4813C82.9734 93.6759 82.3507 93.8315 81.728 93.9483C81.4167 93.9872 81.1053 94.0261 80.7551 94.065C80.5994 94.065 80.4437 94.104 80.2491 94.104C80.0934 94.104 79.8988 94.104 79.7821 94.104C79.6264 94.104 79.4708 94.104 79.3151 94.104C79.1205 94.104 78.9259 94.104 78.7313 94.065C78.7313 94.065 78.6145 94.065 78.6924 94.065H78.6146H78.4978C78.42 94.065 78.3032 94.065 78.2254 94.0261C78.0308 93.9872 77.8751 93.9872 77.6805 93.9483C76.2405 93.7537 74.8006 93.3256 73.4384 92.7029C72.0374 92.0802 70.7142 91.224 69.5077 90.1343C68.3013 89.0446 67.2505 87.7603 66.4332 86.2814C65.6159 84.8025 65.0321 83.168 64.7597 81.4556C64.643 80.5994 64.5651 79.7043 64.604 78.8481C64.604 78.6146 64.643 78.381 64.643 78.1475C64.643 78.2254 64.643 78.1086 64.643 78.1086V78.0308V77.8362C64.643 77.7194 64.6819 77.6027 64.6819 77.4859C64.7208 77.0189 64.7986 76.5519 64.8765 76.0849C65.5381 72.3487 67.4061 68.6904 70.2861 65.9273C71.0255 65.2267 71.8039 64.604 72.6212 64.0203C73.4384 63.4365 74.3336 62.9306 75.2676 62.5025C76.2016 62.0744 77.1357 61.7241 78.1475 61.4517C79.1205 61.1792 80.1324 61.0236 81.1831 60.9068C81.6891 60.8679 82.195 60.829 82.7399 60.829C82.8955 60.829 82.9734 60.829 83.0901 60.829H83.5182H83.7907C83.9074 60.829 83.7907 60.829 83.8296 60.829H83.9463L84.3744 60.8679C85.5031 60.9457 86.5928 61.1014 87.6825 61.3738C89.8619 61.8409 92.0024 62.6581 93.9872 63.7478C97.9568 65.9662 101.343 69.391 103.405 73.5163C104.456 75.5789 105.196 77.7973 105.546 80.0934C105.624 80.6772 105.702 81.261 105.74 81.8447L105.779 82.2729L105.818 82.701C105.818 82.8566 105.818 83.0123 105.818 83.1291C105.818 83.2847 105.818 83.4404 105.818 83.5571V83.9463V84.3744C105.818 84.6469 105.779 85.1139 105.779 85.3863C105.74 86.009 105.663 86.6706 105.585 87.2933C105.507 87.916 105.39 88.5387 105.273 89.1614C105.157 89.784 105.001 90.4067 104.845 90.9905C104.534 92.197 104.145 93.4034 103.678 94.6099C102.744 96.945 101.498 99.2022 100.02 101.265C97.0228 105.39 92.9364 108.737 88.2662 110.878C85.9312 111.928 83.4793 112.707 80.9496 113.096C79.7043 113.329 78.42 113.446 77.1357 113.485H76.9022H76.7076H76.2795H75.6568H75.3454C75.5011 113.485 75.3065 113.485 75.3065 113.485H75.1898C74.4892 113.485 73.8276 113.446 73.1271 113.368C70.4028 113.174 67.7175 112.668 65.0711 111.928C62.4635 111.189 59.9339 110.138 57.5209 108.893C52.734 106.324 48.4141 102.822 45.0672 98.5795C43.3937 96.478 41.9148 94.1818 40.7083 91.8078C39.5019 89.4338 38.5289 86.9041 37.8284 84.3744C37.1279 81.8058 36.6998 79.1983 36.5052 76.5519L36.4663 76.046V75.9292V75.8124V75.5789V75.1508V75.0341V74.8784V74.5671V73.9444V73.8276C36.4663 73.8276 36.4663 73.8665 36.4663 73.7887V73.5552C36.4663 73.2439 36.4663 72.8936 36.4663 72.5823C36.5052 71.298 36.6219 69.9358 36.7776 68.6126C36.9333 67.2894 37.1668 65.9273 37.4392 64.604C37.7116 63.2808 38.023 61.9576 38.4122 60.6344C39.1516 58.0269 40.0856 55.4972 41.1753 53.1232C43.3937 48.3752 46.2736 44.1331 49.7373 40.7472C50.5935 39.891 51.4886 39.1127 52.4227 38.3343C53.3567 37.5949 54.3297 36.8944 55.3415 36.2327C56.3145 35.5711 57.3653 34.9874 58.4161 34.4425C58.922 34.1701 59.4669 33.8977 60.0117 33.6642C60.2841 33.5474 60.5566 33.4306 60.829 33.3139C61.1014 33.1971 61.3738 33.0804 61.6463 32.9636C62.736 32.4966 63.8646 32.1074 65.0321 31.7572C65.3046 31.6793 65.6159 31.6015 65.8883 31.4847C66.1608 31.4069 66.4721 31.3291 66.7445 31.2512C67.3283 31.0956 67.9121 30.9399 68.4958 30.8231C68.7683 30.7453 69.0796 30.7064 69.391 30.6285C69.7023 30.5507 69.9747 30.5118 70.2861 30.434C70.5974 30.395 70.8699 30.3172 71.1812 30.2783L71.6093 30.2004L72.0763 30.1226C72.3877 30.0837 72.6601 30.0448 72.9714 30.0059C73.3217 29.9669 73.633 29.928 73.9833 29.8891C74.2557 29.8502 74.7227 29.8113 74.9952 29.7723C75.1898 29.7334 75.4233 29.7334 75.6179 29.6945L76.046 29.6556L76.2405 29.6167H76.4741C76.8243 29.5778 77.1357 29.5778 77.4859 29.5388L77.9919 29.4999C77.9919 29.4999 78.1865 29.4999 78.0308 29.4999H78.1475H78.381C78.6535 29.4999 78.9648 29.461 79.2372 29.461C80.3659 29.4221 81.5334 29.4221 82.662 29.461C84.9193 29.5388 87.1376 29.8113 89.2781 30.2004C93.598 31.0177 97.6455 32.3799 101.343 34.209C105.04 35.9992 108.309 38.2176 111.189 40.6305C111.384 40.7862 111.539 40.9418 111.734 41.0975C111.89 41.2532 112.084 41.4089 112.24 41.5645C112.59 41.8759 112.901 42.1872 113.252 42.4986C113.602 42.8099 113.913 43.1213 114.225 43.4326C114.536 43.7439 114.847 44.0553 115.159 44.4055C116.365 45.6898 117.494 46.9741 118.506 48.2974C120.529 50.9049 122.164 53.5513 123.448 56.0421C123.526 56.1977 123.604 56.3534 123.682 56.5091C123.76 56.6647 123.837 56.8204 123.915 56.9761C124.071 57.2874 124.227 57.5988 124.343 57.9101C124.499 58.2215 124.616 58.4939 124.771 58.8052C124.888 59.1166 125.044 59.389 125.161 59.7004C125.628 60.8679 126.095 61.9965 126.445 63.0473C127.029 64.7597 127.457 66.2775 127.807 67.6007C127.924 68.1456 128.43 68.4958 128.975 68.418C129.558 68.3791 129.986 67.9121 129.986 67.3283C130.025 65.9273 129.986 64.2538 129.792 62.3468Z" fill="url(#paint0_linear)"/>
<defs>
<linearGradient id="paint0_linear" x1="65" y1="0" x2="65" y2="141.273" gradientUnits="userSpaceOnUse">
<stop stop-color="#FF8F58"/>
<stop offset="1" stop-color="#FFC97C"/>
</linearGradient>
</defs>
</svg>
