<svg width="108" height="125" viewBox="0 0 108 125" fill="none" xmlns="http://www.w3.org/2000/svg">
<path d="M104.516 41.0308C108.062 32.4372 108.062 14.977 103.425 1.60907C102.197 -0.846267 98.5139 -0.0278228 98.3775 2.56392V3.51877C97.5591 16.3411 92.9212 23.2979 85.9644 26.708C84.8732 27.2537 83.0999 27.2537 81.8722 26.4352C73.6877 21.2517 63.8664 18.2508 53.363 18.2508C42.8597 18.2508 33.1747 21.3882 24.8539 26.4352C23.7626 27.1173 22.3985 27.2537 21.3073 26.708C14.2141 24.1163 9.30342 16.3411 8.48497 3.38236V2.42751C8.48497 -0.16423 4.66557 -0.982675 3.57431 1.47266C-1.06355 15.1134 -0.927141 32.5736 2.48305 41.0308C4.25634 45.2595 4.25634 50.0337 2.75586 54.3988C0.846156 59.8551 -0.108696 65.9934 0.0277111 72.1317C0.709748 100.232 24.5811 124.239 52.8174 124.649C82.5542 125.194 106.698 101.323 106.698 71.4497C106.698 65.4478 105.743 59.8551 103.97 54.5352C102.606 50.1701 102.743 45.2595 104.516 41.0308ZM52.681 112.099C31.1286 111.553 13.2592 93.9569 12.9864 72.2681C12.4408 49.2153 31.265 30.391 54.1815 30.9367C75.8703 31.2095 93.6032 49.0789 94.0125 70.7677C94.4217 93.6841 75.7339 112.372 52.681 112.099Z" fill="url(#paint0_linear)"/>
<path d="M59.6377 67.0847L50.0892 52.3526C48.5887 49.8973 45.4513 49.2153 42.996 50.7158C41.4955 51.6706 40.5407 53.3075 40.5407 55.0808C40.5407 56.0356 40.8135 56.9905 41.3591 57.8089L47.7703 67.9031C48.3159 68.7215 48.0431 69.6764 47.6339 70.3584L37.5397 81.4074C35.63 83.4536 35.7664 86.7273 37.8125 88.637C38.7674 89.4555 40.1315 89.8647 41.3591 89.8647C42.8596 89.8647 44.0873 89.1827 45.0421 88.2278L52.5445 79.4977C53.2266 78.8157 54.1814 78.8157 54.5906 79.6341L59.9105 87.273C60.1834 87.955 60.729 88.3642 61.411 88.7734C63.1843 90.0011 65.5032 90.0011 67.2765 88.9099C68.777 87.955 69.7319 86.3181 69.7319 84.5448C69.7319 83.59 69.4591 82.6351 68.9134 81.8167L59.6377 67.0847Z" fill="url(#paint1_linear)"/>
<defs>
<linearGradient id="paint0_linear" x1="53.5265" y1="0" x2="53.5265" y2="124.658" gradientUnits="userSpaceOnUse">
<stop stop-color="#616892"/>
<stop offset="1" stop-color="#707FA6"/>
</linearGradient>
<linearGradient id="paint1_linear" x1="52.9603" y1="49.9246" x2="52.9603" y2="89.8647" gradientUnits="userSpaceOnUse">
<stop stop-color="#616892"/>
<stop offset="1" stop-color="#707FA6"/>
</linearGradient>
</defs>
</svg>
