<svg width="89" height="144" viewBox="0 0 89 144" fill="none" xmlns="http://www.w3.org/2000/svg">
<path d="M70.1626 79.758C64.5354 79.758 59.4906 82.2424 56.0359 86.1538L47.1836 79.9087C48.1233 77.3305 48.6628 74.562 48.6628 71.6643C48.6628 68.8168 48.142 66.0948 47.2333 63.5546L56.0658 57.3757C59.5201 61.2674 64.5518 63.7382 70.1626 63.7382C80.5488 63.7382 89 55.3178 89 44.9663C89 34.6147 80.5488 26.1943 70.1626 26.1943C59.7764 26.1943 51.3252 34.6147 51.3252 44.9663C51.3252 46.8191 51.6061 48.6057 52.1102 50.2978L43.2717 56.4798C39.5796 51.9153 34.2636 48.7284 28.2067 47.7555V37.1403C36.7396 35.3544 43.1688 27.7994 43.1688 18.772C43.1688 8.42043 34.7176 0 24.3314 0C13.9452 0 5.49401 8.42043 5.49401 18.772C5.49401 27.6785 11.7567 35.1403 20.1189 37.0537V47.8068C8.7067 49.803 0 59.7281 0 71.6643C0 83.6587 8.79292 93.6201 20.2875 95.5485V106.903C11.8398 108.753 5.49401 116.261 5.49401 125.228C5.49401 135.58 13.9452 144 24.3314 144C34.7176 144 43.1688 135.58 43.1688 125.228C43.1688 116.261 36.8231 108.753 28.3754 106.903V95.5481C34.1933 94.5715 39.4568 91.5209 43.1855 86.9645L52.097 93.2501C51.6023 94.9269 51.3252 96.6959 51.3252 98.53C51.3252 108.882 59.7764 117.302 70.1626 117.302C80.5488 117.302 89 108.882 89 98.53C89 88.1785 80.5488 79.758 70.1626 79.758ZM70.1626 35.8647C75.1991 35.8647 79.2955 39.9487 79.2955 44.9663C79.2955 49.9839 75.1991 54.0675 70.1626 54.0675C65.1261 54.0675 61.0297 49.9839 61.0297 44.9663C61.0297 39.9487 65.1261 35.8647 70.1626 35.8647ZM15.1981 18.772C15.1981 13.7544 19.2949 9.67077 24.3314 9.67077C29.3679 9.67077 33.4643 13.7544 33.4643 18.772C33.4643 23.7896 29.3679 27.8732 24.3314 27.8732C19.2949 27.8732 15.1981 23.7896 15.1981 18.772ZM33.4643 125.228C33.4643 130.246 29.3679 134.329 24.3314 134.329C19.2949 134.329 15.1981 130.246 15.1981 125.228C15.1981 120.21 19.2949 116.127 24.3314 116.127C29.3679 116.127 33.4643 120.21 33.4643 125.228ZM24.3307 84.3575C17.3063 84.3575 11.5919 78.6639 11.5919 71.6643C11.5919 64.6643 17.3063 58.9697 24.3307 58.9697C31.3548 58.9697 37.0692 64.6643 37.0692 71.6643C37.0692 78.6639 31.3548 84.3575 24.3307 84.3575ZM70.1626 107.632C65.1261 107.632 61.0297 103.548 61.0297 98.53C61.0297 93.5124 65.1261 89.4288 70.1626 89.4288C75.1991 89.4288 79.2955 93.5124 79.2955 98.53C79.2955 103.548 75.1991 107.632 70.1626 107.632Z" fill="url(#paint0_linear)"/>
<defs>
<linearGradient id="paint0_linear" x1="44.5" y1="0" x2="44.5" y2="144" gradientUnits="userSpaceOnUse">
<stop stop-color="#616892"/>
<stop offset="1" stop-color="#707FA6"/>
</linearGradient>
</defs>
</svg>
