<svg width="128" height="107" viewBox="0 0 128 107" fill="none" xmlns="http://www.w3.org/2000/svg">
<path d="M127.229 26.8975C127.013 26.6819 126.744 26.5741 126.42 26.5741H107.967C107.589 26.5741 107.319 26.4124 107.103 26.089L92.3194 0.485125C92.1575 0.161707 91.8338 0 91.4561 0H31.1328C30.7551 0 30.4314 0.161707 30.2695 0.485125L14.9459 27.0592L14.4064 28.0295L0.161867 52.717C0.0539545 52.8787 0.0539551 53.0404 0.0539551 53.2021C0.0539551 53.3099 0.0539543 53.4716 0.107911 53.5794C0.107911 53.6334 0.161867 53.6873 0.161867 53.6873L1.78056 56.4902L14.9459 79.2911L14.9999 79.345L30.3235 105.919C30.4854 106.243 30.8091 106.404 31.1868 106.404H91.564C91.9417 106.404 92.2654 106.243 92.4273 105.919L107.211 80.3153C107.373 79.9919 107.697 79.8301 108.075 79.8301H126.474H126.528H126.582C126.852 79.8301 127.067 79.6684 127.229 79.5067C127.283 79.4528 127.337 79.3989 127.337 79.345C127.391 79.2911 127.391 79.2372 127.445 79.1833C127.499 79.0755 127.553 78.9138 127.553 78.7521V27.7061C127.553 27.3827 127.445 27.1131 127.229 26.8975ZM55.8988 80.3153L51.2586 88.2929C51.2046 88.4007 51.0967 88.5085 50.9348 88.5624C50.8269 88.6163 50.6651 88.6702 50.5032 88.6702H41.2766C40.9529 88.6702 40.6831 88.5085 40.5213 88.239L35.6112 79.7762L26.8163 64.4678L25.4674 62.0961L20.5574 53.6333C20.5034 53.5255 20.4495 53.3638 20.4495 53.2021C20.4495 53.0404 20.5034 52.8787 20.5574 52.7709L25.5214 44.2003L35.7191 26.5741L40.5752 18.1653C40.7371 17.8958 41.0069 17.734 41.3306 17.734H50.5572C50.719 17.734 50.8809 17.7879 50.9888 17.8418C51.0967 17.8958 51.2046 18.0036 51.3125 18.1114L51.3665 18.1653L56.0067 26.1968C56.0607 26.3046 56.1147 26.4663 56.1147 26.5741C56.1147 26.7358 56.0607 26.8975 56.0067 27.0053L41.1148 52.7709C41.0608 52.8787 41.0069 53.0404 41.0069 53.2021C41.0069 53.3638 41.0069 53.4716 41.1148 53.6333C41.1148 53.6333 41.1148 53.6334 41.1148 53.6873L55.9528 79.3989C56.0067 79.5067 56.0607 79.6684 56.0607 79.7762C56.0607 79.9919 56.0067 80.1536 55.8988 80.3153ZM82.0677 88.2929C81.9058 88.5624 81.636 88.7241 81.3123 88.7241H72.0858C71.9239 88.7241 71.762 88.6702 71.6541 88.6163C71.5462 88.5624 71.4383 88.4546 71.3304 88.3468L66.6901 80.3153C66.6362 80.1536 66.5822 80.0458 66.5822 79.884C66.5822 79.7762 66.6362 79.6145 66.6901 79.5067L81.5281 53.7412C81.636 53.6334 81.636 53.4716 81.636 53.3099C81.636 53.1482 81.5821 52.9865 81.5281 52.8787L66.6901 27.167C66.5822 27.0053 66.5822 26.8436 66.5822 26.6819C66.5822 26.5202 66.6362 26.4124 66.6901 26.2507L71.3304 18.2192C71.3843 18.1114 71.4922 18.0036 71.6541 17.9497C71.762 17.8957 71.9239 17.8418 72.0858 17.8418H81.3123C81.636 17.8418 81.9058 18.0036 82.0677 18.2731L86.9238 26.6819L97.1755 44.4699L102.032 52.8787C102.139 52.9865 102.139 53.1482 102.139 53.3099C102.139 53.4716 102.086 53.6334 102.032 53.7412L86.9238 79.884L82.0677 88.2929Z" fill="url(#paint0_linear)"/>
<path d="M25.4135 62.0961L20.5034 53.6333C20.4495 53.5255 20.3955 53.3638 20.3955 53.2021C20.3955 53.0404 20.4495 52.8787 20.5034 52.7709L25.4674 44.2003L35.6652 26.5741H15.7553C15.3776 26.5741 15.1078 26.7358 14.892 27.0592L14.3524 28.0295L7.60785 39.7803L0.107912 52.717C-6.1909e-07 52.8787 0 53.0404 0 53.2021C0 53.3099 2.05023e-07 53.4716 0.0539566 53.5794C0.0539566 53.6333 0.107912 53.6872 0.107912 53.6872L1.7266 56.4902L14.892 79.2911C14.892 79.2911 14.892 79.345 14.9459 79.345C15.1078 79.6145 15.4315 79.7762 15.7553 79.7762H35.6652L26.8163 64.4678L25.4135 62.0961ZM127.229 26.8975C127.013 26.6819 126.744 26.5741 126.42 26.5741H86.8698L97.1215 44.362L101.978 52.7709C102.086 52.8787 102.085 53.0404 102.085 53.2021C102.085 53.3638 102.032 53.5255 101.978 53.6333L86.8698 79.7762H126.42H126.474C126.744 79.7762 126.959 79.6145 127.121 79.4528C127.175 79.3989 127.229 79.345 127.229 79.2911C127.283 79.2372 127.283 79.1833 127.337 79.1294C127.391 79.0216 127.445 78.8599 127.445 78.6982V27.7061C127.553 27.3826 127.445 27.1131 127.229 26.8975ZM66.6901 27.0592C66.5822 26.8975 66.5822 26.7358 66.5822 26.5741H56.0607C56.0607 26.7358 56.0067 26.8975 55.9528 27.0053L41.0608 52.7709C41.0069 52.8787 40.9529 53.0404 40.9529 53.2021C40.9529 53.3638 40.9529 53.4716 41.0608 53.6333C41.0608 53.6333 41.0608 53.6333 41.0608 53.6872L55.8988 79.3989C55.9528 79.5067 56.0067 79.6684 56.0067 79.7762H66.5822C66.5822 79.6684 66.6361 79.5067 66.6901 79.3989L81.5281 53.6333C81.636 53.5255 81.636 53.3638 81.636 53.2021C81.636 53.0404 81.5821 52.8787 81.5281 52.7709L66.6901 27.0592Z" fill="url(#paint1_linear)"/>
<defs>
<linearGradient id="paint0_linear" x1="63.8034" y1="0" x2="63.8034" y2="106.404" gradientUnits="userSpaceOnUse">
<stop stop-color="#616892"/>
<stop offset="1" stop-color="#707FA6"/>
</linearGradient>
<linearGradient id="paint1_linear" x1="63.7437" y1="26.5741" x2="63.7437" y2="79.7762" gradientUnits="userSpaceOnUse">
<stop stop-color="#92C3EB"/>
<stop offset="1" stop-color="#B6E2D2"/>
</linearGradient>
</defs>
</svg>
