<svg width="146" height="130" viewBox="0 0 146 130" fill="none" xmlns="http://www.w3.org/2000/svg">
<path fill-rule="evenodd" clip-rule="evenodd" d="M47.4092 107.327L43.8342 111.792L51.9105 124.239L51.0655 130H85.3042L87.6686 124.239L73.9089 107.327H47.4092Z" fill="url(#paint0_linear)"/>
<path fill-rule="evenodd" clip-rule="evenodd" d="M66.7065 30.2535L54.4175 51.6101L114.36 122.034L112.645 128.489H140.136L145.121 105.58L80.974 30.2332L66.7065 30.2535Z" fill="url(#paint1_linear)"/>
<path fill-rule="evenodd" clip-rule="evenodd" d="M91.2721 0L73.8847 14.1213L68.0225 24.8666H82.5784L107.575 54.4172L122.444 42.2947V34.5922L117.272 27.3894L121.091 23.4487L91.2721 0Z" fill="url(#paint2_linear)"/>
<path fill-rule="evenodd" clip-rule="evenodd" d="M29.6644 73.6979H21.5028L0 100.616V128.485H23.0709L27.1334 123.264L44.9434 100.547H70.6794L78.6012 88.587L50.6919 55.9285L29.6644 73.6979Z" fill="url(#paint3_linear)"/>
<defs>
<linearGradient id="paint0_linear" x1="74.8771" y1="107.382" x2="68.3691" y2="119.023" gradientUnits="userSpaceOnUse">
<stop stop-color="#BDECF4"/>
<stop offset="1" stop-color="#98CCF9"/>
</linearGradient>
<linearGradient id="paint1_linear" x1="99.7692" y1="30.2332" x2="99.7692" y2="128.489" gradientUnits="userSpaceOnUse">
<stop stop-color="#92C3EB"/>
<stop offset="1" stop-color="#B6E2D2"/>
</linearGradient>
<linearGradient id="paint2_linear" x1="95.2331" y1="-4.57638e-09" x2="95.0795" y2="80.961" gradientUnits="userSpaceOnUse">
<stop stop-color="#A4DCA1"/>
<stop offset="1" stop-color="#D1EDAC"/>
</linearGradient>
<linearGradient id="paint3_linear" x1="39.3006" y1="55.9285" x2="39.3006" y2="128.485" gradientUnits="userSpaceOnUse">
<stop stop-color="#92C3EB"/>
<stop offset="1" stop-color="#B6E2D2"/>
</linearGradient>
</defs>
</svg>
