<svg width="124" height="157" viewBox="0 0 124 157" fill="none" xmlns="http://www.w3.org/2000/svg">
<path opacity="0.7" fill-rule="evenodd" clip-rule="evenodd" d="M16.1766 18.1983C15.9561 17.1159 16.6549 16.0598 17.7372 15.8394L24.5964 14.4424C25.6787 14.222 26.7349 14.9207 26.9553 16.003L47.3112 115.951C47.5317 117.034 46.8329 118.09 45.7506 118.31L38.8914 119.707C37.8091 119.928 36.7529 119.229 36.5325 118.146L16.1766 18.1983ZM4.85301 32.7509C3.77066 32.9713 3.07194 34.0274 3.29238 35.1098L20.8544 121.34C21.0748 122.422 22.1309 123.121 23.2133 122.9L30.0725 121.503C31.1548 121.283 31.8535 120.227 31.6331 119.144L14.0711 32.9145C13.8507 31.8322 12.7945 31.1334 11.7122 31.3539L4.85301 32.7509ZM71.6655 120.791C71.5543 120.25 71.9028 119.721 72.4437 119.61L116.938 110.465C117.479 110.353 118.008 110.702 118.119 111.243L119.931 120.058C120.042 120.599 119.694 121.128 119.153 121.239L74.6584 130.385C74.1174 130.496 73.5887 130.148 73.4775 129.607L71.6655 120.791ZM55.7918 123.033C55.2509 123.144 54.9025 123.672 55.0136 124.213L56.8256 133.029C56.9368 133.57 57.4655 133.919 58.0065 133.807L66.8222 131.995C67.3632 131.884 67.7116 131.355 67.6004 130.815L65.7884 121.999C65.6772 121.458 65.1485 121.109 64.6075 121.221L55.7918 123.033ZM38.8357 127.539C38.7245 126.998 39.0729 126.469 39.6139 126.358L48.4296 124.546C48.9706 124.435 49.4993 124.783 49.6105 125.324L51.4225 134.14C51.5337 134.681 51.1853 135.209 50.6443 135.321L41.8286 137.133C41.2876 137.244 40.7589 136.895 40.6477 136.354L38.8357 127.539ZM23.4676 129.677C22.9266 129.788 22.5782 130.316 22.6894 130.857L24.5014 139.673C24.6126 140.214 25.1413 140.563 25.6822 140.451L34.7835 138.581C35.3245 138.469 35.6729 137.941 35.5617 137.4L33.7497 128.584C33.6386 128.043 33.1099 127.695 32.5689 127.806L23.4676 129.677ZM74.8869 136.463C74.7757 135.922 75.1241 135.394 75.665 135.282L120.159 126.137C120.7 126.026 121.229 126.374 121.34 126.915L123.152 135.731C123.264 136.272 122.915 136.8 122.374 136.912L77.8797 146.057C77.3387 146.168 76.81 145.82 76.6988 145.279L74.8869 136.463ZM59.0132 138.705C58.4722 138.816 58.1238 139.345 58.235 139.886L60.047 148.702C60.1581 149.243 60.6868 149.591 61.2278 149.48L70.0435 147.668C70.5845 147.557 70.9329 147.028 70.8217 146.487L69.0097 137.671C68.8985 137.13 68.3698 136.782 67.8289 136.893L59.0132 138.705ZM42.057 143.211C41.9459 142.67 42.2943 142.141 42.8352 142.03L51.6509 140.218C52.1919 140.107 52.7206 140.455 52.8318 140.996L54.6438 149.812C54.755 150.353 54.4066 150.882 53.8656 150.993L45.0499 152.805C44.5089 152.916 43.9802 152.568 43.869 152.027L42.057 143.211ZM25.9107 146.53C25.7995 145.989 26.1479 145.46 26.6889 145.349L35.7902 143.478C36.3312 143.367 36.8599 143.715 36.9711 144.256L38.783 153.072C38.8942 153.613 38.5458 154.142 38.0049 154.253L28.9035 156.124C28.3626 156.235 27.8339 155.886 27.7227 155.346L25.9107 146.53ZM38.9853 34.9841C37.9029 35.2045 37.2042 36.2606 37.4247 37.343L53.3901 115.734C53.6105 116.816 54.6667 117.515 55.749 117.294L62.6082 115.897C63.6905 115.677 64.3893 114.621 64.1688 113.538L48.2034 35.1477C47.9829 34.0654 46.9268 33.3667 45.8445 33.5871L38.9853 34.9841Z" fill="url(#paint0_linear)"/>
<defs>
<linearGradient id="paint0_linear" x1="47.7544" y1="9.72589" x2="75.6322" y2="146.607" gradientUnits="userSpaceOnUse">
<stop stop-color="#FFA77B"/>
<stop offset="1" stop-color="#FFC57B"/>
</linearGradient>
</defs>
</svg>
