<svg width="117" height="122" viewBox="0 0 117 122" fill="none" xmlns="http://www.w3.org/2000/svg">
<path d="M16.9102 115.39V113.39H14.9102H9.02566V8.60962H14.9102H16.9102V6.60963V4V2H14.9102H4H2V4V118V120H4H14.9102H16.9102V118V115.39Z" fill="url(#paint0_linear)" stroke="url(#paint1_linear)" stroke-width="4"/>
<path d="M37.5362 81.2515L27.2905 81.2519V41.5949H36.9025V46.5998V47.0998H37.4025H37.5603H37.8194L37.9688 46.8881C39.4076 44.8492 41.1334 43.2754 43.1486 42.1613C45.1507 41.0557 47.4558 40.4941 50.0744 40.4941C52.5949 40.4941 54.8852 40.9802 56.9511 41.9417C58.9622 42.879 60.5078 44.5339 61.5763 46.9591L61.9397 47.784L62.4471 47.0389C63.6183 45.3191 65.2175 43.7903 67.2572 42.4578L67.2573 42.4578C69.25 41.1558 71.6202 40.4941 74.3891 40.4941C76.5134 40.4941 78.4723 40.7518 80.2725 41.2621C82.0552 41.7682 83.5719 42.5738 84.8313 43.6739C86.0824 44.7688 87.0691 46.2068 87.7847 48.0032C88.4941 49.7925 88.8582 51.9664 88.8582 54.5434V81.2519L78.6115 81.2515V58.7103C78.6115 57.3353 78.5585 56.036 78.4511 54.8131L78.451 54.8127C78.3396 53.5544 78.0358 52.439 77.5234 51.4764L77.5231 51.4759C77.0006 50.4975 76.2307 49.7219 75.2304 49.1531L75.2292 49.1525C74.2025 48.5722 72.8524 48.3019 71.2209 48.3019C69.5777 48.3019 68.1974 48.616 67.1176 49.28L67.1168 49.2805C66.0701 49.927 65.2454 50.7742 64.649 51.8172L64.6488 51.8176C64.0608 52.8478 63.6727 54.0081 63.4801 55.295C63.2905 56.5517 63.197 57.8222 63.197 59.1047V81.2519H52.951V58.9473C52.951 57.734 52.9232 56.5337 52.8721 55.3481L52.8721 55.3468C52.816 54.117 52.5824 52.974 52.1629 51.9201C51.7275 50.8263 50.999 49.9458 49.9917 49.2874L49.9907 49.2867C48.9496 48.6099 47.4772 48.3019 45.6395 48.3019C45.0462 48.3019 44.2975 48.4328 43.4099 48.6741C42.4625 48.9307 41.5567 49.4128 40.6943 50.1028L40.6942 50.1029C39.8001 50.8186 39.0592 51.8307 38.4553 53.1105L38.4552 53.1106C37.8315 54.4336 37.5362 56.1254 37.5362 58.1596V81.2515Z" fill="url(#paint2_linear)" stroke="url(#paint3_linear)"/>
<path d="M99.9226 6.60963V8.60962H101.923H107.807V113.39H101.923H99.9226V115.39V118V120H101.923H112.834H114.834V118V4V2H112.834H101.923H99.9226V4V6.60963Z" fill="url(#paint4_linear)" stroke="url(#paint5_linear)" stroke-width="4"/>
<defs>
<linearGradient id="paint0_linear" x1="9.45512" y1="4" x2="9.45512" y2="118" gradientUnits="userSpaceOnUse">
<stop stop-color="#616892"/>
<stop offset="1" stop-color="#707FA6"/>
</linearGradient>
<linearGradient id="paint1_linear" x1="9.45512" y1="4" x2="9.45512" y2="118" gradientUnits="userSpaceOnUse">
<stop stop-color="#616892"/>
<stop offset="1" stop-color="#707FA6"/>
</linearGradient>
<linearGradient id="paint2_linear" x1="58.0744" y1="39.9941" x2="58.0744" y2="81.7519" gradientUnits="userSpaceOnUse">
<stop stop-color="#616892"/>
<stop offset="1" stop-color="#707FA6"/>
</linearGradient>
<linearGradient id="paint3_linear" x1="58.0744" y1="39.9941" x2="58.0744" y2="81.7519" gradientUnits="userSpaceOnUse">
<stop stop-color="#616892"/>
<stop offset="1" stop-color="#707FA6"/>
</linearGradient>
<linearGradient id="paint4_linear" x1="107.378" y1="4" x2="107.378" y2="118" gradientUnits="userSpaceOnUse">
<stop stop-color="#616892"/>
<stop offset="1" stop-color="#707FA6"/>
</linearGradient>
<linearGradient id="paint5_linear" x1="107.378" y1="4" x2="107.378" y2="118" gradientUnits="userSpaceOnUse">
<stop stop-color="#616892"/>
<stop offset="1" stop-color="#707FA6"/>
</linearGradient>
</defs>
</svg>
