<svg width="91" height="146" viewBox="0 0 91 146" fill="none" xmlns="http://www.w3.org/2000/svg">
<path d="M89.8715 44.7625C85.247 37.1182 80.61 29.4816 75.9605 21.8525C73.5438 17.9228 71.0484 13.9931 68.6415 10.0635C68.337 9.57227 67.9538 9.14 67.6591 8.68809C63.2087 1.90941 54.4554 -2.61953 45.8985 1.68345C42.2076 3.46256 39.3847 6.6481 38.0624 10.5262C36.7402 14.4044 37.0291 18.6509 38.8644 22.3142C40.3479 25.2025 42.7941 27.6389 45.093 30.0557C52.0878 37.4827 59.3085 44.7035 66.2542 52.1895C71.1344 57.4339 73.1338 64.7375 71.605 71.7362C70.0808 78.7145 65.2423 84.5057 58.6497 87.2475C58.6111 87.2636 58.5703 87.2743 58.5286 87.2777C58.3018 87.2961 58.1296 87.0995 58.1296 86.872V55.9403C58.1296 54.4432 56.5469 53.4807 55.2363 54.2043C44.0765 60.3667 34.0346 68.3799 25.5428 77.9092C12.3628 92.6055 4.10737 110.653 0.806384 124.846C0.432264 126.454 2.10723 127.701 3.57753 126.949L23.5289 116.744C30.445 113.243 37.2851 109.818 44.3705 106.207C45.7027 105.529 47.2838 106.495 47.2838 107.991V135.072C47.2838 135.528 47.4393 135.97 47.7247 136.325L54.5313 144.796C55.7141 146.268 58.0903 145.432 58.0903 143.543V100.27C58.0903 99.537 58.5067 98.86 59.1514 98.5105C62.4209 96.9513 65.5933 95.1962 68.6513 93.2546C76.3369 87.8706 81.2832 79.3946 82.19 70.0547C83.0968 60.7149 79.8733 51.4457 73.3669 44.6839C65.3111 36.2547 57.2062 27.8649 49.1602 19.4259C46.822 16.9699 46.8711 13.8654 49.1602 11.6845C51.4492 9.5035 54.5733 9.71963 56.9311 12.1266L60.291 15.5159C62.9631 18.3649 65.6058 21.2434 68.2977 24.0629C75.1006 31.1933 81.9186 38.3093 88.7516 45.4109C89.0375 45.7049 89.3709 45.9582 89.6897 46.2272C89.8049 46.3244 89.9694 46.34 90.0984 46.262C90.2217 46.1875 90.2861 46.0435 90.2531 45.9033C90.1612 45.5123 90.0335 45.1304 89.8715 44.7625ZM47.256 92.09C47.2549 92.2242 47.2434 92.359 47.2022 92.4867C47.0481 92.9635 46.7164 93.3663 46.2719 93.6083C41.959 95.8973 37.6069 98.1274 33.2647 100.357L22.7123 105.768C21.0086 106.641 19.2242 104.879 20.1489 103.202C26.8118 91.123 35.8577 80.4978 46.7579 71.9816C46.9383 71.8407 47.3034 71.8743 47.3034 72.1031C47.2937 78.7654 47.3128 85.4277 47.256 92.09Z" fill="url(#paint0_linear)"/>
<defs>
<linearGradient id="paint0_linear" x1="45.5075" y1="0" x2="45.5075" y2="145.547" gradientUnits="userSpaceOnUse">
<stop stop-color="#F7BAC5"/>
<stop offset="1" stop-color="#EC98BC"/>
</linearGradient>
</defs>
</svg>
