<svg width="121" height="126" viewBox="0 0 121 126" fill="none" xmlns="http://www.w3.org/2000/svg">
<path d="M87.0181 0.00158338C84.8348 0.361186 82.6515 0.707945 80.4811 1.06755C80.5838 1.11892 80.6866 1.17029 80.7893 1.22166C83.2295 3.08389 86.2732 4.1627 88.7006 5.93502C95.6743 11.0465 103.085 20.2035 105.127 29.977C106.026 34.2665 104.433 40.8678 103.752 44.5794C102.648 50.6413 105.91 55.7528 104.818 62.2256C104.356 64.9612 101.723 71.434 102.532 72.1147C102.532 72.0119 102.532 71.9092 102.532 71.8065C104.446 69.9057 105.384 66.9005 106.796 64.4988C112.434 54.8666 116.467 43.5777 119.267 31.1842C120.32 26.4966 121.283 18.4826 119.421 13.9875C118.471 11.7143 116.095 9.65947 114.245 8.20822C107.22 2.66007 100.079 -0.0754743 87.0181 0.00158338Z" fill="url(#paint0_linear)"/>
<path d="M62.2184 1.3757C61.0497 1.47845 59.881 1.58119 58.7251 1.68393C56.5418 2.28755 54.3585 2.90401 52.188 3.50763C42.3375 7.75864 36.5068 19.7925 35.9032 33.1748C38.1507 32.0575 40.578 30.8503 43.2108 30.1311C56.5161 26.5093 58.3398 35.0114 60.0993 45.1958C60.7671 49.0615 60.8827 54.5198 59.9452 58.2828C59.1489 61.4678 57.916 64.2804 56.7473 66.9518C55.7327 69.8414 54.7181 72.7311 53.7035 75.6208C53.7549 75.6208 53.8063 75.6208 53.8576 75.6208C55.1162 75.2868 56.4262 75.7107 57.3509 76.0831C62.8348 78.215 62.2184 83.5705 62.2184 90.9938C62.2184 104.376 60.5873 122.562 71.0415 125.528C74.1752 126.415 77.8739 125.374 80.3269 124.617C93.5937 120.52 90.9737 104.684 93.568 90.3901C94.2358 86.6785 93.4396 81.5927 95.0835 78.8315C96.2265 76.905 97.9731 76.5968 99.7968 75.3382C94.2487 66.6949 88.0841 57.448 84.8862 46.5829C81.0333 33.4959 87.84 28.256 100.709 29.0908C94.8523 13.8719 83.0625 1.49129 62.2184 1.3757Z" fill="url(#paint1_linear)"/>
<path d="M23.1117 1.6712C20.877 1.92806 18.6423 2.17208 16.4205 2.42894C10.1146 4.00862 4.97745 7.63033 2.57582 13.0886C-4.89877 30.0413 5.7095 61.5964 11.3989 74.8631C13.3382 79.371 17.0498 88.1684 21.8916 89.3114C24.396 89.9022 25.8986 88.0528 26.9132 87.0254C30.6633 82.7615 34.4135 78.5105 38.1765 74.2467C34.6446 70.0984 29.8799 65.0768 31.3312 56.1381C31.588 53.5567 31.832 50.9624 32.0889 48.381C31.9862 43.6676 31.8834 38.9414 31.7807 34.2281C34.041 19.5743 35.6849 14.604 42.8898 5.16448C42.8898 5.11311 42.8898 5.06174 42.8898 5.01037C36.6867 3.95725 30.9202 1.7611 23.1117 1.6712Z" fill="url(#paint2_linear)"/>
<path d="M107.246 80.9378C105.075 80.5268 103.573 79.2425 101.62 78.9599C99.0262 80.347 97.8446 80.6038 97.9731 84.7393C104.446 87.9115 116.826 83.532 119.729 80.0259C115.979 80.424 111.599 81.7597 107.246 80.9378Z" fill="url(#paint3_linear)"/>
<path d="M54.4613 79.4223C52.3807 81.6569 50.3002 83.8916 48.2196 86.1134C45.5354 87.8601 41.1175 88.438 37.7269 89.3113C37.7783 89.4141 37.8297 89.5168 37.881 89.6196C45.0089 92.1111 50.9552 91.546 55.9896 87.3335C58.4811 85.2401 59.6755 79.6021 54.4613 79.4223Z" fill="url(#paint4_linear)"/>
<path d="M99.7967 45.1959C100.259 41.1375 100.709 37.0792 101.171 33.0208C96.1365 32.8281 90.9351 32.597 88.8417 35.7563C87.3519 38.0167 87.8784 42.8585 88.6875 45.4913C90.7039 52.0412 93.8889 57.7178 97.0611 63.1375C97.7675 64.6144 98.4867 66.0785 99.1931 67.5555C99.2958 67.5041 99.3986 67.4527 99.5013 67.4013C100.118 64.1521 101.543 60.6331 100.875 56.2922C100.503 52.5934 100.156 48.8947 99.7967 45.1959ZM93.7733 40.0844C92.001 39.5964 91.3075 39.2368 90.2801 38.1066C90.37 37.2333 90.5241 37.2461 90.8837 36.7324C91.7056 36.4113 92.1937 35.8205 94.377 35.6664C95.8924 35.9233 96.3933 36.1673 97.1125 37.1819C96.1878 38.9157 95.4686 38.9928 93.7733 40.0844Z" fill="url(#paint5_linear)"/>
<path d="M52.6377 34.5363C51.2892 33.5602 49.2086 33.4446 46.8584 33.4703C44.9319 33.9712 43.0055 34.4849 41.0791 34.9858C39.3067 35.949 37.5344 36.9122 35.7492 37.8754C35.852 41.677 35.9547 45.4785 36.0575 49.28C35.5181 52.9402 34.6062 57.3967 35.2997 61.1469C36.6097 68.416 41.4643 74.6191 49.8893 74.709C50.6471 72.3202 51.4048 69.9443 52.1754 67.5555C53.4597 64.4346 55.065 61.4294 55.9769 57.8205C57.5694 51.5403 56.3236 37.2205 52.6377 34.5363ZM52.5478 39.6349C51.1351 42.9613 45.5612 41.5742 45.3943 37.9653C45.4457 37.8626 45.497 37.7599 45.5484 37.6571C46.0108 37.4003 46.4603 37.1562 46.9226 36.8994C49.7866 36.8095 51.1865 37.2975 52.7019 38.4148C52.6377 38.8258 52.5992 39.224 52.5478 39.6349Z" fill="url(#paint6_linear)"/>
<defs>
<linearGradient id="paint0_linear" x1="108.804" y1="0.175622" x2="89.0655" y2="10.3034" gradientUnits="userSpaceOnUse">
<stop stop-color="#BDECF4"/>
<stop offset="1" stop-color="#98CCF9"/>
</linearGradient>
<linearGradient id="paint1_linear" x1="81.7975" y1="1.67888" x2="49.0001" y2="17.4742" gradientUnits="userSpaceOnUse">
<stop stop-color="#BDECF4"/>
<stop offset="1" stop-color="#98CCF9"/>
</linearGradient>
<linearGradient id="paint2_linear" x1="30.374" y1="1.88491" x2="8.17264" y2="11.9238" gradientUnits="userSpaceOnUse">
<stop stop-color="#BDECF4"/>
<stop offset="1" stop-color="#98CCF9"/>
</linearGradient>
<linearGradient id="paint3_linear" x1="113.378" y1="78.9767" x2="111.961" y2="83.1261" gradientUnits="userSpaceOnUse">
<stop stop-color="#BDECF4"/>
<stop offset="1" stop-color="#98CCF9"/>
</linearGradient>
<linearGradient id="paint4_linear" x1="52.1665" y1="79.4507" x2="48.6423" y2="85.1411" gradientUnits="userSpaceOnUse">
<stop stop-color="#BDECF4"/>
<stop offset="1" stop-color="#98CCF9"/>
</linearGradient>
<linearGradient id="paint5_linear" x1="97.2974" y1="33.007" x2="89.9458" y2="35.6138" gradientUnits="userSpaceOnUse">
<stop stop-color="#BDECF4"/>
<stop offset="1" stop-color="#98CCF9"/>
</linearGradient>
<linearGradient id="paint6_linear" x1="50.351" y1="33.5677" x2="39.4426" y2="38.8549" gradientUnits="userSpaceOnUse">
<stop stop-color="#BDECF4"/>
<stop offset="1" stop-color="#98CCF9"/>
</linearGradient>
</defs>
</svg>
