<svg width="140" height="91" viewBox="0 0 140 91" fill="none" xmlns="http://www.w3.org/2000/svg">
<path d="M139.373 0.476153C138.995 0.156295 138.512 -0.0130514 138.017 0.000785678C136.661 0.000785678 134.914 0.91349 133.979 1.42689L133.602 1.61703C132.025 2.37813 130.307 2.80851 128.556 2.88151C126.761 2.93855 125.215 3.04313 123.201 3.24754C111.267 4.47399 105.945 13.582 100.818 22.3906C98.0306 27.1823 95.1474 32.1356 91.1951 35.9718C90.3746 36.7603 89.5041 37.4955 88.5888 38.1727C84.4981 41.2103 79.3619 43.3542 75.3475 44.8849C71.4954 46.3491 67.2996 47.6658 63.2375 48.9398C59.5238 50.1045 56.0106 51.2026 52.7839 52.4005C51.328 52.9376 50.0917 53.3512 48.9986 53.7125C46.063 54.6632 43.9388 55.3905 40.8457 57.5154C39.638 58.3378 38.4256 59.2267 37.5998 59.8923C35.1409 61.845 32.9658 64.1279 31.1366 66.6757C29.5617 69.0285 27.7426 71.2098 25.7093 73.1835C25.0602 73.8205 23.8955 74.1343 22.1627 74.1343C20.1245 74.1343 17.6614 73.7159 15.0456 73.2738C12.4298 72.8318 9.57537 72.3231 7.18869 72.3231C5.24593 72.3231 3.76618 72.6369 2.65399 73.2738C2.65399 73.2738 0.792378 74.3577 0 75.76L0.773284 76.107C1.97313 76.7557 3.08478 77.5544 4.08123 78.4839C5.11308 79.4416 6.267 80.2599 7.51327 80.9177C7.91455 81.0698 8.27896 81.3047 8.58251 81.607C8.25314 82.0824 7.77581 82.6956 7.2746 83.3516C4.52037 86.9406 2.91653 89.2081 3.83778 90.4441C4.2788 90.6739 4.77236 90.7854 5.26979 90.7673C11.2795 90.7673 14.5015 89.2129 18.5875 87.2449C19.7665 86.6744 20.9742 86.085 22.4062 85.486C24.7928 84.4545 27.3609 82.8097 30.0817 81.0699C33.6856 78.7643 37.4136 76.378 41.0223 75.2228C43.9958 74.3198 47.0932 73.8868 50.2015 73.9394C54.0202 73.9394 58.0393 74.448 61.9153 74.9424C64.8079 75.3132 67.7961 75.6935 70.7317 75.8931C71.8725 75.9597 72.9274 75.9929 73.9585 75.9929C75.3313 75.9967 76.7034 75.9253 78.0684 75.779L78.3929 75.6649C80.455 74.4052 81.4193 71.7004 82.3501 69.0859C82.9515 67.4031 83.4575 65.8914 84.2594 64.9312C84.3073 64.8831 84.3601 64.84 84.4169 64.8028C84.4545 64.782 84.4981 64.7744 84.5405 64.7813C84.583 64.7882 84.6218 64.8092 84.6508 64.8408C84.6592 64.8655 84.6592 64.8922 84.6508 64.9169C84.1735 75.142 80.035 81.6308 75.8583 87.4017L73.0229 90.3633C73.0229 90.3633 76.9275 90.3633 79.1519 89.5076C87.2666 87.0928 93.3956 81.7686 97.8539 73.2786C98.9528 71.0996 99.9344 68.8637 100.794 66.5807C100.871 66.3905 101.577 66.0388 101.506 67.0228C101.506 67.3127 101.467 67.636 101.444 67.9735C101.444 68.1732 101.415 68.3776 101.405 68.582C101.286 70.0081 100.928 73.0219 100.928 73.0219L103.434 71.6861C109.477 67.8832 114.136 60.2108 117.668 48.2743C119.143 43.302 120.217 38.3629 121.167 34.0133C122.303 28.7843 123.282 24.3015 124.403 22.5617C126.165 19.8331 128.852 17.9887 131.454 16.1965C131.812 15.9541 132.165 15.7212 132.513 15.4645C135.788 13.178 139.039 10.5397 139.75 5.61962V5.51029C140.294 1.84046 139.85 0.927751 139.373 0.476153Z" fill="url(#paint0_linear)"/>
<defs>
<linearGradient id="paint0_linear" x1="70" y1="0" x2="70" y2="90.7692" gradientUnits="userSpaceOnUse">
<stop stop-color="#616892"/>
<stop offset="1" stop-color="#707FA6"/>
</linearGradient>
</defs>
</svg>
