<svg width="130" height="130" viewBox="0 0 130 130" fill="none" xmlns="http://www.w3.org/2000/svg">
<path fill-rule="evenodd" clip-rule="evenodd" d="M20 0C8.95431 0 0 8.9543 0 20V110C0 121.046 8.9543 130 20 130H110C121.046 130 130 121.046 130 110V20C130 8.95431 121.046 0 110 0H20ZM21.8584 42.2788C21.8584 37.3546 25.876 33.3628 30.8319 33.3628H102.619C107.575 33.3628 111.593 37.3546 111.593 42.2788V95.7743C111.593 100.698 107.575 104.69 102.619 104.69H30.8319C25.876 104.69 21.8584 100.698 21.8584 95.7743V42.2788ZM101.926 46.5852C103.249 48.6668 102.624 51.4201 100.529 52.7349L68.5607 72.7957C67.0862 73.721 65.2056 73.7135 63.7386 72.7765L32.3315 52.7156C30.2471 51.3843 29.6436 48.6261 30.9836 46.555C32.3236 44.484 35.0996 43.8844 37.184 45.2158L66.1862 63.7405L95.7369 45.1965C97.8319 43.8818 100.603 44.5035 101.926 46.5852Z" fill="url(#paint0_linear)"/>
<defs>
<linearGradient id="paint0_linear" x1="92.0642" y1="0.316591" x2="48.3927" y2="40.7201" gradientUnits="userSpaceOnUse">
<stop stop-color="#BDECF4"/>
<stop offset="1" stop-color="#98CCF9"/>
</linearGradient>
</defs>
</svg>
