<svg width="141" height="120" viewBox="0 0 141 120" fill="none" xmlns="http://www.w3.org/2000/svg">
<path d="M134.523 92.5306C127.051 96.4252 88.3458 112.339 80.1056 116.635C71.8655 120.932 67.2878 120.89 60.7785 117.778C54.2691 114.666 13.0799 98.0285 5.66027 94.482C1.95171 92.7092 0.00195312 91.2138 0.00195312 89.8006V75.6487C0.00195312 75.6487 53.6247 63.9749 62.2821 60.8696C70.9387 57.7635 73.942 57.6515 81.3089 60.3502C88.6767 63.0489 132.727 70.9969 140.008 73.6635C140.008 73.6635 140.005 86.3028 140.005 87.6147C140.006 89.0138 138.326 90.5488 134.523 92.5306Z" fill="#DA87A2"/>
<path d="M134.522 78.3746C127.051 82.2675 88.3456 98.1832 80.1055 102.479C71.8653 106.776 67.2876 106.734 60.7783 103.622C54.2681 100.512 13.0797 83.8708 5.66008 80.326C-1.75952 76.7795 -1.91508 74.3384 5.37366 71.485C12.6616 68.6299 53.6245 52.5586 62.2828 49.4525C70.9394 46.3481 73.9426 46.2345 81.3095 48.934C88.6773 51.6327 127.151 66.9468 134.432 69.6134C141.714 72.2825 141.994 74.48 134.522 78.3746Z" fill="url(#paint0_linear)"/>
<path d="M134.523 69.4529C127.051 73.3474 88.3458 89.2615 80.1056 93.5585C71.8655 97.8539 67.2878 97.812 60.7785 94.7001C54.2683 91.5899 13.0799 74.9507 5.66027 71.4043C1.95171 69.6315 0.00195312 68.1377 0.00195312 66.7245V52.5709C0.00195312 52.5709 53.6247 40.8979 62.2821 37.7918C70.9387 34.6865 73.942 34.5738 81.3089 37.2725C88.6767 39.9712 132.727 47.9175 140.008 50.585C140.008 50.585 140.005 63.2242 140.005 64.5378C140.006 65.9361 138.326 67.471 134.523 69.4529Z" fill="#DA87A2"/>
<path d="M134.522 55.2968C127.051 59.1914 88.3456 75.1054 80.1055 79.4025C71.8653 83.6979 67.2876 83.6559 60.7783 80.544C54.2681 77.4338 13.0797 60.7938 5.66008 57.2482C-1.75952 53.7026 -1.91508 51.2615 5.37366 48.4064C12.6616 45.553 53.6245 29.4809 62.2828 26.3756C70.9394 23.2703 73.9426 23.1576 81.3095 25.8563C88.6773 28.555 127.151 43.8682 134.432 46.5357C141.714 49.2039 141.994 51.4022 134.522 55.2968Z" fill="url(#paint1_linear)"/>
<path d="M134.523 45.5193C127.051 49.4138 88.3458 65.3287 80.1056 69.6258C71.8655 73.9211 67.2878 73.8792 60.7785 70.7673C54.2683 67.6571 13.0799 51.0171 5.66027 47.4715C1.95171 45.6987 0.00195312 44.2041 0.00195312 42.7917V28.6381C0.00195312 28.6381 53.6247 16.9651 62.2821 13.8598C70.9387 10.7537 73.942 10.6418 81.3089 13.3405C88.6767 16.0392 132.727 23.9856 140.008 26.653C140.008 26.653 140.005 39.2922 140.005 40.605C140.006 42.0025 138.326 43.5374 134.523 45.5193Z" fill="#DA87A2"/>
<path d="M134.522 31.3632C127.051 35.2577 88.3456 51.1726 80.1055 55.4689C71.8653 59.7642 67.2876 59.7223 60.7783 56.6112C54.2689 53.5002 13.0797 36.861 5.66008 33.3154C-1.75952 29.7698 -1.91508 27.3279 5.37366 24.4736C12.6616 21.6193 53.6245 5.54889 62.2828 2.44279C70.9394 -0.663322 73.9426 -0.775245 81.3095 1.92429C88.6773 4.623 127.151 19.9363 134.432 22.6037C141.714 25.2703 141.994 27.4694 134.522 31.3632Z" fill="url(#paint2_linear)"/>
<path d="M88.3503 17.7337L76.2189 18.993L73.503 25.5278L69.1163 18.2358L55.1084 16.9766L65.5608 13.2071L62.4251 7.42126L72.2108 11.2483L81.4369 8.22782L78.9431 14.2112L88.3503 17.7337Z" fill="white"/>
<path d="M72.7786 49.4368L50.1372 40.0461L82.5808 35.0668L72.7786 49.4368Z" fill="white"/>
<path d="M41.3886 34.8091C50.9654 34.8091 58.7289 31.7997 58.7289 28.0875C58.7289 24.3752 50.9654 21.3658 41.3886 21.3658C31.8118 21.3658 24.0483 24.3752 24.0483 28.0875C24.0483 31.7997 31.8118 34.8091 41.3886 34.8091Z" fill="white"/>
<path d="M102.688 19.5198L121.889 27.1081L102.704 34.6881L102.688 19.5198Z" fill="#DA87A2"/>
<path d="M81.4453 27.9229L102.688 19.5198L102.704 34.6881L100.622 35.5029L81.4453 27.9229Z" fill="#E29EB5"/>
<defs>
<linearGradient id="paint0_linear" x1="70.0053" y1="47.0103" x2="70.0053" y2="105.844" gradientUnits="userSpaceOnUse">
<stop stop-color="#F7BAC5"/>
<stop offset="1" stop-color="#EC98BC"/>
</linearGradient>
<linearGradient id="paint1_linear" x1="70.0053" y1="23.933" x2="70.0053" y2="82.7664" gradientUnits="userSpaceOnUse">
<stop stop-color="#F7BAC5"/>
<stop offset="1" stop-color="#EC98BC"/>
</linearGradient>
<linearGradient id="paint2_linear" x1="70.0053" y1="0" x2="70.0053" y2="58.8328" gradientUnits="userSpaceOnUse">
<stop stop-color="#F7BAC5"/>
<stop offset="1" stop-color="#EC98BC"/>
</linearGradient>
</defs>
</svg>
