<svg width="125" height="112" viewBox="0 0 125 112" fill="none" xmlns="http://www.w3.org/2000/svg">
<path d="M72.5087 5.80408C71.4946 4.03928 70.0367 2.5739 68.2814 1.55511C66.526 0.536327 64.535 0 62.5084 0C60.4817 0 58.4908 0.536327 56.7354 1.55511C54.9801 2.5739 53.5222 4.03928 52.5081 5.80408L36.044 34.4863L40.244 36.911C51.7887 43.6264 61.5001 53.1129 68.5109 64.5233C75.5217 75.9336 79.6138 88.9127 80.4215 102.301H68.863C68.0628 90.9429 64.5045 79.9553 58.5 70.3017C52.4955 60.6481 44.2282 52.6233 34.4228 46.9307L30.2228 44.5145L14.8843 71.338L19.0843 73.7627C24.1745 76.7698 28.5181 80.9017 31.7866 85.8459C35.0552 90.7901 37.163 96.4171 37.9508 102.301H11.5495C11.2117 102.307 10.8785 102.222 10.5841 102.056C10.2896 101.889 10.0443 101.647 9.87343 101.354C9.70253 101.061 9.61211 100.727 9.61141 100.388C9.61071 100.048 9.69976 99.7142 9.86945 99.4204L17.2279 86.6042C14.7423 84.4966 11.8959 82.8619 8.82784 81.7802L1.54499 94.571C0.53223 96.337 -0.000610659 98.3399 5.25192e-07 100.379C0.000611709 102.417 0.534655 104.42 1.54848 106.185C2.5623 107.95 4.02019 109.416 5.77569 110.436C7.53118 111.455 9.52246 111.991 11.5495 111.992H47.8797V107.151C47.8821 99.4959 46.0752 91.9503 42.6079 85.1361C39.1407 78.3218 34.1125 72.4342 27.938 67.9587L33.7172 57.8882C41.6304 63.3973 48.099 70.7523 52.5695 79.324C57.04 87.8957 59.3795 97.429 59.3878 107.108V111.958H90.174V107.117C90.16 92.0059 86.4016 77.1367 79.2386 63.8537C72.0755 50.5707 61.7337 39.2926 49.1481 31.0393L60.8326 10.6534C61 10.3622 61.2407 10.1205 61.5304 9.9524C61.8202 9.78432 62.1487 9.69584 62.4832 9.69584C62.8177 9.69584 63.1462 9.78432 63.436 9.9524C63.7257 10.1205 63.9663 10.3622 64.1338 10.6534L115.089 99.4204C115.258 99.7142 115.347 100.048 115.347 100.388C115.346 100.727 115.255 101.061 115.085 101.354C114.914 101.647 114.668 101.889 114.374 102.056C114.079 102.222 113.746 102.307 113.409 102.301H101.489C101.64 105.537 101.657 108.773 101.489 112H113.451C115.478 112 117.469 111.463 119.224 110.444C120.98 109.425 122.438 107.959 123.452 106.194C124.465 104.428 124.999 102.426 125 100.387C125.001 98.3483 124.468 96.3454 123.455 94.5795L72.5087 5.80408Z" fill="url(#paint0_linear)"/>
<defs>
<linearGradient id="paint0_linear" x1="62.5" y1="0" x2="62.5" y2="112" gradientUnits="userSpaceOnUse">
<stop stop-color="#616892"/>
<stop offset="1" stop-color="#707FA6"/>
</linearGradient>
</defs>
</svg>
