<svg width="122" height="116" viewBox="0 0 122 116" fill="none" xmlns="http://www.w3.org/2000/svg">
<path d="M27.4549 83.1195L23.7073 89.0318L23.8127 89.0986L23.9205 89.1616L27.4549 83.1195ZM70.354 108.214L66.8196 114.256C68.9844 115.522 71.6612 115.534 73.8368 114.286C76.0123 113.038 77.354 110.722 77.354 108.214H70.354ZM70.354 79.7474V72.7474H63.354V79.7474H70.354ZM43.4286 14H78.2733V0H43.4286V14ZM107.702 43.3737C107.702 59.5864 94.5362 72.7474 78.2733 72.7474V86.7474C102.248 86.7474 121.702 67.3383 121.702 43.3737H107.702ZM78.2733 14C94.5362 14 107.702 27.161 107.702 43.3737H121.702C121.702 19.4091 102.248 0 78.2733 0V14ZM43.4286 0C19.4536 0 0 19.4091 0 43.3737H14C14 27.161 27.1657 14 43.4286 14V0ZM31.2025 77.2071C22.2307 71.5204 18.1435 65.3622 16.1357 59.8386C14.0476 54.0943 14 48.5413 14 43.3737H0C0 48.4607 -0.0476255 56.2979 2.97803 64.6215C6.0839 73.1657 12.2242 81.7532 23.7073 89.0318L31.2025 77.2071ZM23.9205 89.1616L66.8196 114.256L73.8885 102.172L30.9893 77.0773L23.9205 89.1616ZM78.2733 72.7474H70.354V86.7474H78.2733V72.7474ZM77.354 108.214V79.7474H63.354V108.214H77.354Z" fill="url(#paint0_linear)"/>
<defs>
<linearGradient id="paint0_linear" x1="60.8509" y1="7" x2="60.8509" y2="108.214" gradientUnits="userSpaceOnUse">
<stop stop-color="#616892"/>
<stop offset="1" stop-color="#707FA6"/>
</linearGradient>
</defs>
</svg>
