<svg width="101" height="30" viewBox="0 0 101 30" fill="none" xmlns="http://www.w3.org/2000/svg">
<path d="M49 25C51.231 25 53.2727 24.24 54.9381 23L63 23C67.4112 23 71 19.4121 71 15C71 10.5879 67.4112 7.00002 63 7.00002L54.9381 7.00002C53.2727 5.76003 51.231 5 49 5C43.4863 5 39 9.4863 39 15C39 20.5136 43.4863 25 49 25ZM69 15C69 18.3086 66.3086 21 63 21L56.9489 21C58.2181 19.3235 59 17.2599 59 15C59 12.7401 58.218 10.6765 56.9489 9.00003L63 9.00003C66.3086 9.00003 69 11.6915 69 15ZM49 7.00002C53.4111 7.00002 57 10.5879 57 15C57 19.4121 53.4112 23 49 23C44.5888 23 41 19.4121 41 15C41 10.5879 44.5889 7.00001 49 7.00002Z" fill="url(#paint0_linear)"/>
<path d="M98.8813 16.3887L98.8811 16.3885L98.8748 16.3938C98.2186 16.949 97.462 17.4028 96.6304 17.7052L96.6304 17.7052L96.6285 17.7059C95.8488 18.0078 94.9921 18.1593 94.0831 18.1593C92.0403 18.1593 90.1741 17.327 88.8375 15.9905C87.501 14.6539 86.6687 12.7877 86.6687 10.7449C86.6687 9.88766 86.82 9.05503 87.0724 8.29769C87.3499 7.49066 87.7529 6.76058 88.2811 6.13184L88.2819 6.13084C88.5487 5.80474 88.4873 5.33317 88.1656 5.06999L88.1657 5.06982L88.1604 5.06601C87.9619 4.92424 87.7278 4.86317 87.4902 4.92257L87.4902 4.92256L87.4883 4.92306C85.2939 5.51684 83.3843 6.8332 82.017 8.58752L82.017 8.58752L82.0163 8.58843C80.7004 10.3171 79.9 12.4596 79.9 14.8088C79.9 17.6222 81.0358 20.1777 82.8942 22.0361C84.7525 23.8944 87.308 25.0302 90.1215 25.0302C92.4965 25.0302 94.6904 24.204 96.4449 22.8366L96.4451 22.8364C98.2254 21.4432 99.5155 19.4571 100.058 17.1876C100.2 16.7538 99.9676 16.3354 99.5499 16.2449C99.3128 16.1862 99.0793 16.2473 98.8813 16.3887ZM95.5552 21.6054L95.5545 21.6059C94.0891 22.7681 92.2194 23.4756 90.1726 23.4756C87.7723 23.4756 85.5993 22.4903 84.0324 20.9234C82.4655 19.3565 81.4802 17.1834 81.4802 14.7832C81.4802 12.7866 82.1371 10.9678 83.2739 9.50263L83.2739 9.50259C83.998 8.56827 84.8944 7.78554 85.9228 7.21375C85.8364 7.40923 85.7531 7.61032 85.6819 7.82386C85.3455 8.75581 85.1908 9.73832 85.1908 10.7704C85.1908 13.2261 86.1989 15.4749 87.8015 17.0776C89.4042 18.6802 91.653 19.6883 94.1087 19.6883C95.1934 19.6883 96.2278 19.5075 97.1856 19.1451L97.1861 19.1449L97.1886 19.144C97.423 19.0538 97.6602 18.9626 97.8892 18.8617C97.2964 19.918 96.5116 20.8589 95.5552 21.6054Z" fill="url(#paint1_linear)" stroke="url(#paint2_linear)" stroke-width="0.2"/>
<path d="M13.9683 1.03175C13.9683 0.47619 14.4445 0 15 0C15.5556 0 16.0318 0.47619 16.0318 1.03175V4.0873C16.0318 4.64286 15.5556 5.11905 15 5.11905C14.4445 5.11905 13.9683 4.64286 13.9683 4.0873V1.03175Z" fill="url(#paint3_linear)"/>
<path fill-rule="evenodd" clip-rule="evenodd" d="M20.3174 9.68254C18.9682 8.33334 17.0635 7.46032 15 7.46032C12.9365 7.46032 11.0317 8.29365 9.68251 9.68254C8.3333 11.0317 7.46029 12.9365 7.46029 15C7.46029 17.0635 8.3333 18.9683 9.68251 20.3175C11.0317 21.6667 12.9365 22.5397 15 22.5397C17.0635 22.5397 18.9682 21.7064 20.3174 20.3175C21.6666 18.9683 22.5397 17.0635 22.5397 15C22.5397 12.9365 21.7063 11.0317 20.3174 9.68254ZM18.8889 18.8889C17.8968 19.881 16.5079 20.4762 15 20.4762C13.492 20.4762 12.1031 19.881 11.1111 18.8889C10.119 17.8968 9.52378 16.5079 9.52378 15C9.52378 13.4921 10.119 12.1032 11.1111 11.1111C12.1031 10.1191 13.492 9.52381 15 9.52381C16.5079 9.52381 17.8968 10.1191 18.8889 11.1111C19.8809 12.1032 20.4762 13.4921 20.4762 15C20.4762 16.5079 19.8809 17.8968 18.8889 18.8889Z" fill="url(#paint4_linear)"/>
<path d="M28.9682 13.9683H25.9126C25.357 13.9683 24.8809 14.4444 24.8809 15C24.8809 15.5556 25.357 16.0317 25.9126 16.0317H28.9682C29.5237 16.0317 29.9999 15.5556 29.9999 15C29.9999 14.4444 29.5237 13.9683 28.9682 13.9683Z" fill="url(#paint5_linear)"/>
<path d="M13.9683 25.9127C13.9683 25.3571 14.4445 24.881 15 24.881C15.5556 24.881 16.0318 25.3571 16.0318 25.9127V28.9683C16.0318 29.5238 15.5556 30 15 30C14.4445 30 13.9683 29.5238 13.9683 28.9683V25.9127Z" fill="url(#paint6_linear)"/>
<path d="M25.5953 24.1667L23.4127 21.9841C23.0556 21.5873 22.381 21.5873 21.9841 21.9841C21.5873 22.381 21.5873 23.0159 21.9841 23.4127L24.1667 25.5952C24.5635 25.9921 25.1984 25.9921 25.5953 25.5952C25.9921 25.1984 25.9921 24.5635 25.5953 24.1667Z" fill="url(#paint7_linear)"/>
<path d="M25.6348 4.40476C25.238 4.00794 24.6031 4.00794 24.2062 4.40476L22.0237 6.5873C21.6269 6.98413 21.6269 7.61905 22.0237 8.01588C22.3808 8.4127 23.0554 8.4127 23.4523 8.01588L25.6348 5.83334C26.0316 5.43651 26.0316 4.80159 25.6348 4.40476Z" fill="url(#paint8_linear)"/>
<path d="M1.03175 13.9683H4.0873C4.64286 13.9683 5.11905 14.4444 5.11905 15C5.11905 15.5556 4.64286 16.0317 4.0873 16.0317H1.03175C0.436508 16.0317 0 15.5556 0 15C0 14.4444 0.47619 13.9683 1.03175 13.9683Z" fill="url(#paint9_linear)"/>
<path d="M7.97611 21.9841C7.61897 21.5873 6.94437 21.5873 6.54754 21.9841L4.365 24.1667C3.96818 24.5635 3.96818 25.1984 4.365 25.5952C4.76183 25.9921 5.39675 25.9921 5.79357 25.5952L7.97611 23.4127C8.37294 23.0159 8.37294 22.381 7.97611 21.9841Z" fill="url(#paint10_linear)"/>
<path d="M5.79357 4.40476L7.97611 6.5873C8.37294 6.98413 8.37294 7.61905 7.97611 8.01588C7.57929 8.4127 6.94437 8.4127 6.54754 8.01588L4.365 5.83334C3.96818 5.43651 3.96818 4.80159 4.365 4.40476C4.76183 4.00794 5.39675 4.00794 5.79357 4.40476Z" fill="url(#paint11_linear)"/>
<defs>
<linearGradient id="paint0_linear" x1="55" y1="25" x2="55" y2="5" gradientUnits="userSpaceOnUse">
<stop stop-color="#616892"/>
<stop offset="1" stop-color="#707FA6"/>
</linearGradient>
<linearGradient id="paint1_linear" x1="90" y1="5" x2="90" y2="24.9302" gradientUnits="userSpaceOnUse">
<stop stop-color="#616892"/>
<stop offset="1" stop-color="#707FA6"/>
</linearGradient>
<linearGradient id="paint2_linear" x1="90" y1="5" x2="90" y2="24.9302" gradientUnits="userSpaceOnUse">
<stop stop-color="#616892"/>
<stop offset="1" stop-color="#707FA6"/>
</linearGradient>
<linearGradient id="paint3_linear" x1="15" y1="0" x2="15" y2="30" gradientUnits="userSpaceOnUse">
<stop stop-color="#616892"/>
<stop offset="1" stop-color="#707FA6"/>
</linearGradient>
<linearGradient id="paint4_linear" x1="15" y1="0" x2="15" y2="30" gradientUnits="userSpaceOnUse">
<stop stop-color="#616892"/>
<stop offset="1" stop-color="#707FA6"/>
</linearGradient>
<linearGradient id="paint5_linear" x1="15" y1="0" x2="15" y2="30" gradientUnits="userSpaceOnUse">
<stop stop-color="#616892"/>
<stop offset="1" stop-color="#707FA6"/>
</linearGradient>
<linearGradient id="paint6_linear" x1="15" y1="0" x2="15" y2="30" gradientUnits="userSpaceOnUse">
<stop stop-color="#616892"/>
<stop offset="1" stop-color="#707FA6"/>
</linearGradient>
<linearGradient id="paint7_linear" x1="15" y1="0" x2="15" y2="30" gradientUnits="userSpaceOnUse">
<stop stop-color="#616892"/>
<stop offset="1" stop-color="#707FA6"/>
</linearGradient>
<linearGradient id="paint8_linear" x1="15" y1="0" x2="15" y2="30" gradientUnits="userSpaceOnUse">
<stop stop-color="#616892"/>
<stop offset="1" stop-color="#707FA6"/>
</linearGradient>
<linearGradient id="paint9_linear" x1="15" y1="0" x2="15" y2="30" gradientUnits="userSpaceOnUse">
<stop stop-color="#616892"/>
<stop offset="1" stop-color="#707FA6"/>
</linearGradient>
<linearGradient id="paint10_linear" x1="15" y1="0" x2="15" y2="30" gradientUnits="userSpaceOnUse">
<stop stop-color="#616892"/>
<stop offset="1" stop-color="#707FA6"/>
</linearGradient>
<linearGradient id="paint11_linear" x1="15" y1="0" x2="15" y2="30" gradientUnits="userSpaceOnUse">
<stop stop-color="#616892"/>
<stop offset="1" stop-color="#707FA6"/>
</linearGradient>
</defs>
</svg>
