<svg width="146" height="100" viewBox="0 0 146 100" fill="none" xmlns="http://www.w3.org/2000/svg">
<path d="M9.7748 87.6381L9.2113 88.2313C3.01235 82.3428 0.359459 74.6513 1.40347 65.7264C2.60171 55.4828 7.50057 48.1684 16.1006 43.9159C22.6713 40.6668 29.2121 39.45 39.7125 39.4475M9.7748 87.6381L77.8895 14.3885C77.8895 14.3885 77.8895 14.3885 77.8895 14.3885C77.8111 14.4883 77.7342 14.5842 77.6607 14.6738C76.7655 13.342 74.8654 11.2183 73.5792 10.1113C69.1689 6.31557 63.3587 3.82676 55.8078 2.42284C51.2706 1.57916 47.9953 1.29615 42.9076 1.28288L42.9067 1.28288C37.9919 1.27533 36.1138 1.43475 32.3471 2.1933L32.5083 2.99388L32.3471 2.1933C26.4585 3.3792 20.5821 6.14423 17.0428 9.45512C16.2588 10.1885 15.6854 10.8461 15.3217 11.5874C14.9498 12.3456 14.8306 13.1215 14.8306 14.0333C14.8306 14.5968 14.8471 15.0331 14.934 15.4496C15.0232 15.8776 15.1773 16.242 15.3897 16.676C15.9322 17.7847 16.6491 18.6637 17.579 19.2804C18.5085 19.8969 19.5993 20.2171 20.836 20.2895C20.836 20.2895 20.836 20.2895 20.8361 20.2895L20.8487 20.2903C21.5036 20.3287 21.9405 20.3544 22.6422 20.1781C23.2667 20.0213 24.1307 19.6976 25.7 19.1095L25.7645 19.0854C31.3148 17.0057 33.7563 16.379 38.1673 15.8803C40.7851 15.5845 46.9006 15.6323 49.5137 15.9691C58.7952 17.1656 64.266 20.1788 66.5372 24.8246C67.4401 26.6716 67.7398 27.7716 67.9783 30.2036C68.1792 32.2527 68.0557 34.0226 67.2779 39.4165C67.0624 40.9115 66.9193 41.8157 66.808 42.344C66.8068 42.3496 66.8056 42.3552 66.8044 42.3607C66.5876 42.3266 66.3195 42.2833 66.0105 42.2324C65.1971 42.0986 64.1075 41.9138 62.9387 41.7105C53.4366 40.0573 47.1801 39.4443 39.7125 39.4475M9.7748 87.6381L9.21131 88.2313C15.2799 93.9959 23.583 97.245 34.3213 98.1708C35.1471 98.2419 37.0794 98.2217 38.9844 98.1574C40.8962 98.0929 42.8846 97.9804 43.8341 97.8515L43.7241 97.0407L43.8342 97.8515C49.9817 97.0167 56.0863 94.9163 60.3761 92.127C63.3329 90.2045 66.3572 87.4652 68.3501 84.8945C68.3978 84.833 68.4445 84.7732 68.4899 84.7156M9.7748 87.6381L68.4899 84.7156M39.7125 39.4475L39.7127 40.2657L39.7125 39.4475ZM68.4899 84.7156C68.6285 84.9029 68.7829 85.1119 68.9444 85.3308L69.6029 84.8452L68.9444 85.3308C71.3304 88.5662 74.5144 91.1335 78.643 93.1883C83.9313 95.8201 89.6941 97.2295 97.9002 97.9423C100.84 98.1976 106.881 98.1551 109.561 97.8578C117.036 97.029 123.35 94.6295 128.317 90.6775C129.363 89.845 130.133 89.0565 130.633 88.1585C131.142 87.244 131.335 86.2815 131.34 85.1634C131.345 84.097 130.946 82.9722 130.357 82.0226C129.767 81.0718 128.933 80.2091 127.971 79.7207C127.439 79.4504 126.759 79.2489 126.119 79.1307C125.49 79.0144 124.801 78.9607 124.259 79.0509C123.995 79.095 123.444 79.2627 122.835 79.4622C122.196 79.6717 121.413 79.9437 120.64 80.2282C114.533 82.4731 112.493 82.9896 107.955 83.4708C106.095 83.6677 104.57 83.7128 101.537 83.649H101.537C94.7204 83.507 90.29 82.5881 86.0833 80.5068C81.8435 78.4092 79.585 75.7556 78.5471 71.7854C78.2317 70.5788 78.1894 70.1686 78.2011 67.3294V67.3293C78.212 64.5741 78.2824 63.7386 78.8068 60.2566C78.9721 59.1586 79.1269 58.1569 79.2428 57.4279C79.2671 57.2751 79.2897 57.1347 79.3102 57.0082C79.3766 57.0183 79.4469 57.0291 79.5206 57.0405C80.1204 57.1334 80.9365 57.2661 81.8083 57.4116C83.5561 57.7035 85.5063 58.0436 86.3789 58.2179C88.5426 58.6497 93.5459 59.282 97.6006 59.6403C102.409 60.0653 109.818 60.1023 113.899 59.7184C121.979 58.9582 128.234 57.0266 133.247 53.6746C139.508 49.4883 143.098 43.5984 144.594 35.2154C144.754 34.3191 144.823 32.4928 144.818 29.9126C144.814 27.8278 144.777 26.4709 144.615 25.2661C144.452 24.0473 144.165 23.0091 143.693 21.5565C142.001 16.3563 137.845 11.14 132.754 7.75833C126.344 3.50017 117.792 1.1819 108.642 1.18182L68.4899 84.7156ZM77.0408 15.2195L77.3951 14.9879C77.3951 14.9879 77.3951 14.9879 77.3951 14.9879L77.0408 15.2195ZM64.1402 54.808L64.1409 54.8081C64.4004 54.8316 64.6523 54.8613 64.8655 54.892C64.852 55.0776 64.8313 55.3034 64.8035 55.5653C64.7165 56.3865 64.5666 57.5053 64.384 58.7181C64.0174 61.1523 63.5282 63.9028 63.1675 65.3332C61.8759 70.4556 59.5371 75.0619 56.733 78.1025L57.3345 78.6571L56.733 78.1025C53.6568 81.4383 49.404 83.8287 44.6113 84.8909C43.5364 85.1288 42.546 85.2093 39.7004 85.2525L39.6333 85.2536C37.6992 85.2827 36.7925 85.2963 36.0778 85.2477C35.3849 85.2005 34.8767 85.0951 33.7169 84.8547L33.6827 84.8476C29.2317 83.9249 25.6926 82.0917 23.0225 79.3785C21.0726 77.397 20.2342 75.9487 19.5052 73.3102C19.3119 72.6105 19.2059 71.0271 19.2228 69.2947C19.2396 67.5757 19.3753 65.8919 19.5954 65.0156L18.8018 64.8163L19.5954 65.0156C20.2428 62.4371 21.1601 60.5542 22.6827 58.6491C23.704 57.3712 25.0057 56.3813 26.967 55.4447L26.6144 54.7064L26.967 55.4447C30.8247 53.6024 33.4167 53.0345 40.0041 52.6655L40.0041 52.6655C43.4116 52.4744 49.572 52.9733 59.7464 54.2892C61.4575 54.5105 63.4346 54.7436 64.1402 54.808ZM64.8821 54.4178C64.8821 54.4179 64.8821 54.4179 64.8821 54.418C64.8816 54.4135 64.8817 54.4131 64.8821 54.4178ZM81.2214 44.4851L81.7211 41.0447C82.3925 36.4215 82.5879 35.4282 83.3296 32.7865C85.2105 26.0877 88.5658 21.1626 93.3829 17.9044C95.9866 16.1433 98.9491 14.973 102.486 14.3278C103.357 14.169 105.007 14.0693 106.704 14.0508C108.403 14.0323 110.038 14.0964 110.883 14.2358C118.106 15.4272 123.448 18.8916 125.691 23.5559C126.211 24.6367 126.516 25.4506 126.699 26.3515C126.885 27.2625 126.954 28.2988 126.962 29.8363C126.982 34.0587 126.198 36.8251 124.201 39.7679C122.865 41.7375 121.476 42.8945 118.994 44.0607C116.056 45.4412 113.662 46.0676 109.798 46.4303L109.471 46.4592C106.581 46.7141 101.259 46.7358 98.3098 46.5043C97.2953 46.4246 94.7699 46.1419 92.7017 45.8754C89.41 45.4511 83.7457 44.7652 81.2214 44.4851Z" fill="url(#paint0_linear)" stroke="url(#paint1_linear)" stroke-width="10"/>
<defs>
<linearGradient id="paint0_linear" x1="73" y1="2" x2="73" y2="97.3975" gradientUnits="userSpaceOnUse">
<stop stop-color="#92C3EB"/>
<stop offset="1" stop-color="#B6E2D2"/>
</linearGradient>
<linearGradient id="paint1_linear" x1="73" y1="2" x2="73" y2="97.3975" gradientUnits="userSpaceOnUse">
<stop stop-color="#92C3EB"/>
<stop offset="1" stop-color="#B6E2D2"/>
</linearGradient>
</defs>
</svg>
