<svg width="174" height="111" viewBox="0 0 174 111" fill="none" xmlns="http://www.w3.org/2000/svg">
<path fill-rule="evenodd" clip-rule="evenodd" d="M58.7875 0C61.464 17.6494 64.4655 53.65 55.0595 56.4569L41.5814 7.33621H8.60304C8.50745 12.6523 6.65302 25.1983 0 32.8534C2.10297 33.3851 7.39862 32.7259 11.7575 25.8362L11.184 41.4655L20.0738 30.9397V48.4828L24.9488 43.6983C30.1107 55.0747 39.574 84.2069 36.1328 109.724L72.2656 111C73.6038 101.537 78.3451 82.1017 86.604 80.0603V3.5016C77.8847 3.6711 68.1445 2.82814 58.7875 0ZM114.421 0C111.744 17.6494 108.743 53.65 118.149 56.4569L131.627 7.33621H164.605C164.701 12.6523 166.555 25.1983 173.208 32.8534C171.105 33.3851 165.81 32.7259 161.451 25.8362L162.024 41.4655L153.134 30.9397V48.4828L148.259 43.6983C143.097 55.0747 133.634 84.2069 137.075 109.724L100.943 111C99.6043 101.537 94.8631 82.1017 86.6042 80.0603V3.5016C95.3234 3.6711 105.064 2.82814 114.421 0Z" fill="url(#paint0_linear)"/>
<path fill-rule="evenodd" clip-rule="evenodd" d="M77.3893 13.447C74.8297 14.6438 74.6769 25.6894 77.1766 28.8226L77.8407 29.6552L78.4369 29.3076C79.0583 28.945 79.4428 28.4094 79.597 27.6899C79.6471 27.4569 79.7288 27.2028 79.779 27.1253C80.014 26.7607 80.3929 23.8047 80.4477 21.9039C80.4709 21.0997 80.1593 18.0915 79.9801 17.388C79.4391 15.2651 79.3035 14.8003 79.1721 14.621C78.1504 13.2306 78.0264 13.149 77.3893 13.447ZM98.882 16.9076C98.3531 17.1938 97.7963 17.7082 97.7963 17.9107C97.7963 17.9773 97.5646 18.4871 97.2809 19.0434C96.9976 19.6002 96.6563 20.5346 96.5225 21.1208C96.0363 23.253 95.8845 23.8904 95.7317 24.4441C95.1819 26.4378 95.6235 31.2595 96.4436 32.2099C97.0087 32.8659 98.1404 32.5611 98.5565 31.6412C98.6619 31.4088 98.791 31.197 98.843 31.1712C98.8955 31.1454 98.9382 31.0679 98.9382 30.9997C98.9382 30.931 99.1063 30.5803 99.312 30.2198C99.5173 29.8592 99.7207 29.3649 99.7634 29.1211C99.8061 28.8773 99.892 28.5509 99.9538 28.3954C101.098 25.521 101.331 18.9892 100.343 17.5027C99.8396 16.7449 99.4648 16.5926 98.882 16.9076ZM80.8457 38.5919C79.9907 39.1353 80.078 38.8507 79.531 42.8759C79.3982 43.8547 79.2046 44.9657 79.101 45.3454C78.9974 45.7255 78.7328 47.1155 78.5122 48.4351C78.0576 51.1598 77.9192 51.5167 77.5012 51.0518C77.0285 50.5265 76.8483 49.7636 76.487 46.7611C76.2516 44.8082 75.8327 42.7891 75.6112 42.5428C75.4533 42.3671 75.2253 43.4802 75.0855 45.1124C74.9476 46.7255 74.584 49.5338 74.5014 49.6257C74.3458 49.7982 74.0449 49.1056 73.5252 47.3768C73.0409 45.7643 72.7818 44.5164 72.3402 41.6611C72.1939 40.7122 72.1512 40.6611 71.9413 41.1792C71.7797 41.5795 71.7295 42.8227 71.6478 48.5059C71.534 56.3869 71.5099 56.6968 70.6266 61.6688C70.458 62.6166 70.5639 64.2999 70.8268 64.8536L71.0046 65.2291L71.1384 64.8412C71.2122 64.6284 71.3859 63.9461 71.5247 63.3257C71.6636 62.7049 71.8869 62.0221 72.0216 61.8077C72.1558 61.5939 72.4256 60.9105 72.6211 60.2897C73.2517 58.283 73.5173 58.2546 73.9525 60.1487C74.4312 62.2333 74.6021 61.9611 75.1445 58.251C75.1835 57.9834 75.2722 57.5299 75.3419 57.2433L75.4682 56.7216L76.1244 56.8838C76.8748 57.0692 76.8887 57.0992 77.1204 59.0196C77.289 60.4188 77.6201 61.6378 77.8588 61.74C78.1788 61.8764 78.8679 60.8511 78.9575 60.1063C79.0012 59.7411 79.0889 59.284 79.1525 59.0898C79.2166 58.8961 79.3578 57.9116 79.4669 56.9024C79.7107 54.6493 79.9359 53.9784 80.4054 54.1044C81.0407 54.2749 81.2812 54.42 81.3486 54.6721C81.4354 54.998 81.8882 57.173 82.0038 57.8197C82.3674 59.8537 83.2024 61.5489 83.6143 61.0913C83.7044 60.9906 84.4743 57.9974 84.4743 57.7469C84.4743 57.7092 84.7292 57.6787 85.0408 57.6787C85.7797 57.6787 85.8697 57.8786 85.8697 59.5113C85.8697 61.9477 86.9146 62.6259 87.3948 60.5014C88.0082 57.7872 88.8078 58.5599 89.2936 62.3361C89.5662 64.4543 90.0162 65.7709 90.3589 65.4543C90.6328 65.2017 91.5263 62.7715 91.817 61.489C91.9312 60.9844 92.0622 60.5076 92.1077 60.4296C92.1532 60.3516 92.2303 60.0541 92.2781 59.769C92.3696 59.2267 92.8052 58.6069 93.3754 58.2076C93.8723 57.86 94.1115 58.5092 94.2378 60.55C94.3093 61.7121 94.3989 62.2411 94.5791 62.5701L94.8238 63.0163L95.0792 62.7116C95.663 62.0148 96.0451 61.0086 96.4807 59.0201C97.0045 56.6286 98.042 57.4127 98.4878 60.5371C98.8091 62.788 99.1309 64.1707 99.3339 64.1707C99.9895 64.1707 100.607 63.0034 100.9 61.2101C101.235 59.1611 101.525 58.7525 102.229 59.3372C102.796 59.8078 103.124 60.2597 103.241 60.7344C103.307 60.9968 103.524 61.5117 103.725 61.8795C104.088 62.5432 104.648 63.8102 104.648 63.9672C104.648 64.0122 104.865 64.3464 105.13 64.7095C105.395 65.0731 105.708 65.6082 105.826 65.899C106.195 66.8122 106.678 66.4568 106.678 65.2735C106.677 64.7002 106.459 63.1992 106.168 61.7715C105.663 59.2918 105.368 54.2464 105.389 48.4351C105.406 43.6837 105.243 40.0382 105.011 40.0382C104.951 40.0382 104.902 40.0645 104.902 40.0965C104.902 40.5588 104.461 42.4611 104.215 43.0582C103.876 43.8816 103.769 44.4482 103.375 47.4817C102.924 50.9604 102.14 50.901 101.545 47.3432C101.167 45.0783 100.683 43.6961 100.384 44.0288C100.314 44.1062 100.114 45.2539 99.7072 47.9202C99.4202 49.8008 99.4388 49.7652 99.0106 49.2559C98.4715 48.6149 98.3703 48.0741 97.8632 43.1429C97.6839 41.4007 97.1513 39.1193 97.0556 39.6854C97.0292 39.8409 96.9627 40.0315 96.908 40.1089C96.7858 40.2815 96.5736 41.831 96.464 43.3547C96.3897 44.3841 96.2406 45.6016 96.0744 46.5395C96.0117 46.8939 95.9959 46.899 95.3936 46.7616L94.7769 46.6211L94.5833 45.7643C94.4769 45.2927 94.3019 44.3805 94.1941 43.7374C93.7446 41.0578 92.8075 42.1518 92.3464 45.8949C92.2001 47.0819 92.1151 47.5514 91.7655 49.1056C91.276 51.2801 90.5469 49.6996 89.9911 45.2596C89.5072 41.3956 89.1167 40.8119 88.5901 43.1672C88.4805 43.6584 88.3388 44.2886 88.2757 44.568C88.1559 45.0979 87.8796 46.6904 87.5884 48.5261C87.4361 49.4852 87.078 50.6226 86.9276 50.6226C86.713 50.6226 86.2292 49.7409 85.9403 48.823C85.7513 48.2213 85.5154 47.4755 85.4165 47.165C84.7696 45.1393 84.4803 45.3495 83.9602 48.2234C83.6101 50.1572 83.5479 50.2533 83.031 49.6531C82.5699 49.118 82.2745 47.7637 82.0108 44.9776C81.897 43.7746 81.7512 42.3139 81.6871 41.7318C81.6226 41.1497 81.5311 40.2608 81.4837 39.7562C81.3514 38.3549 81.317 38.2924 80.8457 38.5919Z" fill="url(#paint1_linear)"/>
<defs>
<linearGradient id="paint0_linear" x1="122.664" y1="0.27032" x2="87.649" y2="50.8196" gradientUnits="userSpaceOnUse">
<stop stop-color="#BDECF4"/>
<stop offset="1" stop-color="#98CCF9"/>
</linearGradient>
<linearGradient id="paint1_linear" x1="88.6116" y1="13.3062" x2="88.6116" y2="66.4148" gradientUnits="userSpaceOnUse">
<stop stop-color="#616892"/>
<stop offset="1" stop-color="#707FA6"/>
</linearGradient>
</defs>
</svg>
